<svg xmlns="http://www.w3.org/2000/svg" xml:space="preserve" width="419.20828" height="416.64185" viewBox="0 0 419.20828 416.64185"><path d="M113.161-45.927c86.577 0 157.198-70.184 157.198-156.236 0-86.048-70.621-156.236-157.198-156.236-86.581 0-157.199 70.188-157.199 156.236 0 86.052 70.618 156.236 157.2 156.236" style="fill:#fff;fill-opacity:1;fill-rule:nonzero;stroke:none;stroke-width:.236935" transform="matrix(1.33333 0 0 -1.33333 58.724 -61.229)"/><path d="M113.161-45.927v-.005c43.287 0 82.585-17.545 111.062-45.847 28.477-28.301 46.131-67.36 46.131-110.385 0-86.045-70.618-156.23-157.193-156.23-43.29 0-82.589 17.548-111.064 45.85-28.477 28.301-46.131 67.357-46.131 110.38 0 43.025 17.654 82.084 46.13 110.385 28.476 28.302 67.775 45.847 111.065 45.847v.01C69.87-45.922 30.57-63.469 2.09-91.774c-28.477-28.301-46.133-67.362-46.133-110.39 0-86.05 70.62-156.24 157.204-156.24 86.58 0 157.202 70.19 157.202 156.24 0 43.028-17.656 82.089-46.135 110.39C195.75-63.469 156.45-45.922 113.16-45.922v-.005" style="fill:#2e3192;fill-opacity:1;fill-rule:nonzero;stroke:none;stroke-width:.236935" transform="matrix(1.33333 0 0 -1.33333 58.724 -61.229)"/><path d="M34.374-128.51a115.586 115.586 0 0 0 29.315 21.563v14.027c-20.261-8.947-36.397-22.86-47.87-40.573 9.62-5.878 19.245-11.759 28.87-17.642 1.307-.467 1.494 3.13 4.172 2.244 1.274 8.146 5.688 13.436 14.828 14.588v17.246c-7.983-5.065-15.052-11.145-21.824-17.559-2.236 2.234-5.252 3.867-7.49 6.106zm29.315 21.563c9.16 4.73 18.991 8.264 29.302 10.546-1.549-3.274-3.095-6.54-4.645-9.809-9.292-2.417-17.35-6.208-24.657-10.847v-17.246c.308.04.629.073.953.102 4.067 2.68 7.424 6.058 11.49 8.73 3.594 3.913 7.314 7.597 11.866 9.62 3.424.218 6.847-.275 10.269-.061 1.605 1.068 3.558 2.492 5.165 3.565.945 6.454 4.252 12.8 9.912 18.315 7.886-7.591 12.183-15.538 15.368-23.127 3.841 0 8.046-.708 11.892-.708 6.205-5.824 11.863-10.125 18.066-12.22 1.21-.508 2.42-1.023 3.616-1.548v15.324c-7.345 4.68-15.45 8.49-24.788 10.923-1.55 3.272-3.097 6.547-4.649 9.81a120.059 120.059 0 0 0 29.437-10.653v13.353c-10.333 4.533-21.24 7.682-32.583 9.755-.43-2.777-.856-5.563-1.281-8.345-5.03 5.241-9.942 9.695-15.078 14.83-4.61-4.696-8.769-8.95-13.154-13.866-.536 2.465-1.072 4.917-1.605 7.38-12.698-1.814-24.358-5.129-34.896-9.796zm98.597-24.688v15.324c7.923-5.044 14.953-11.09 21.691-17.483 2.234 2.244 5.506 3.647 7.748 5.888a116.918 116.918 0 0 1-29.44 21.675v13.353c18.072-7.913 34.38-20.054 48.26-38.049-8.452-5.13-16.998-10.737-25.44-15.874-6.208 6.926-14.252 11.387-22.82 15.166M14.191-266.857c-2.346.503-4.69 1.01-7.036 1.515 1.499 6.735 2.998 13.477 4.488 20.22-2.99-1.182-5.983-2.36-8.981-3.535-4.946 13.285-8.636 28.97-8.956 45.733v4.717c.297 15.33 3.51 31.46 11.2 47.39 3.095-1.768 6.186-3.531 9.285-5.303v-15.816c-.827.33-1.65.629-2.49.854-6.015-21.99-5.368-44.904 1.592-66.811.297.431.599.869.898 1.29zm48.997-44.218c-19.05 8.655-33.336 21.274-44.498 35.134 2.461 2.026 5.253 4.4 7.714 6.434l-12.213 2.65v30.255c1.758 2.556 3.508 5.106 5.265 7.649-5.37 19.337-2.857 37.06 1.29 54.446-2.231.595-4.379 1.702-6.555 2.571v15.816c6.634-3.793 13.274-7.584 19.91-11.378-3.566-16.545-5.736-31.972-4.81-44.908 7.161 6.617 14.332 13.256 21.497 19.886 5.404-1.264 9.788-2.666 7.052-5.132a26.41 26.41 0 0 1-3.85-11.539c-14.455-10.463-24.11-25.728-30.473-44.274-1.49-2.983-.965-2.464 1.921-3.53 9.198-2.933 20.355-3.786 28.127-3.765 2.79-7.901 5.426-10.245 9.623-11.818v-13.167c-6.57 3.592-12.873 8.047-18.776 13.797-3.603-.367-7.2-.737-10.802-1.104 8.753-9.181 18.695-16.823 29.578-22.726zm43.74 15.903c.048.05.08-.211.083-.715v-1.828c-.062-5.3-.562-17.57-.72-24.408-16.637 1.563-30.853 5.484-43.103 11.048v15.297a115.472 115.472 0 0 1 28.225-10.808c.76 3.071.6 6.493 1.354 9.568-10.16 2.786-20.145 6.134-29.58 11.273v13.167c1.658-.614 3.553-1.123 5.787-1.79 3.33-5.065 12.028-8.32 20.314-9.583-.538-1.074 17.276-11.631 17.64-11.221M139.898-306.024a115.092 115.092 0 0 1 27.25 11.757v-15.318c-12.764-6.549-26.7-10.775-41.615-12.22.218 11.872.429 23.747.647 35.612 12.955 2.12 25.982 4.595 40.733 18.282-8.001 1.95-16.457 3.443-23.419 6.421-.376 4.175 1.012 8.343 4.168 12.51 6.468-2.232 12.956-4.11 19.486-5.456v-29.541c-9.182-5.545-19.01-9.321-29.025-12.548.891-3.04.886-6.469 1.775-9.499zm27.25 11.757c10.8 6.418 20.563 14.597 29.029 24.295-3.62.213-7.231.415-10.85.623-5.65-6.018-11.758-10.75-18.18-14.628v29.541c12.982-2.675 26.118-3.201 39.547.004-1.793 13.998-9.013 24.12-17.002 33.685 6.281 6.13 9.92 14.891 10.904 26.297-2.308 8.3-4.34 17.69-5.772 29.517 6.41 3.633 12.811 7.258 19.222 10.89v-15.638c-2.321-1.046-4.556-2.553-6.94-3.26 4.61-17.273 7.6-34.921 2.75-54.397 1.395-1.915 2.795-3.823 4.19-5.741v-32.633c-3.416-.728-6.83-1.458-10.237-2.2 2.032-2.132 4.06-4.276 6.091-6.41-12.133-14.866-26.503-26.947-42.752-35.264zm66.327 96.051v-3.54c-.225-15.012-3.307-30.12-8.496-45.3-2.35 1.178-4.701 2.357-7.054 3.533 1.28-6.847 2.561-13.69 3.848-20.533-2.573-.556-5.149-1.104-7.727-1.656v32.633c.742-1.014 1.477-2.018 2.206-3.028 6.376 22.087 6.327 45.349-.267 67.154a15.465 15.465 0 0 1-1.939-.727v15.638c2.47 1.392 4.936 2.788 7.4 4.188 8.084-15.995 11.766-32.12 12.03-48.362" style="fill:#99def9;fill-opacity:1;fill-rule:nonzero;stroke:none;stroke-width:.236935" transform="matrix(1.33333 0 0 -1.33333 58.724 -61.229)"/><path d="M50.952-158.63c-5.505 12.17-2.372 23.507 12.46 24.815 3.698 4.558 7.646 6.288 11.49 7.933 2.974 3.34 6.22 7.138 11.077 9.96 3.693 1.085 7.845 1.258 12.448.524 3.253 5.778 11.336 5.873 26.452-2.344 4.216.815 8.465 1.346 12.839 1.02 3.504-.264 3.632-.468 6.11-2.752 5.41-4.996 10.246-8.135 14.499-9.41 13.77-4.66 22.03-9.945 25.157-15.818 5.123-3.149-.087-6.288 1.44-8.153 3.792-2.8 7.72-5.426 9.969-11.304.798-7.929-.773-14.2-5.758-16.048 3.298-4.305 7.265-8.85 11.468-13.776 3.016-12.649.44-22.186-10.897-27.218-14.441-1.41-23.89-6.22-31.638-12.19-3.693-4.872-7.1-9.71-8.041-14.267-3.846-2.61-5.715-6.84-6.222-12.19-1.87-7.461-5.573-13.242-9.478-18.87-3.314-6.657-6.086-4.293-8.669-11.988-.499-1.486-16.793-5.51-18.675-3.371-7.71-2.88-19.714 9.541-20.49 12.96-.553 2.456-.188 9.51.52 14.26-.5-.357-2.097.214-2.423-.312-.953-1.542-2.25-2.848-3.681-4.035-3.012-2.497-4.127-2.974-8.07-3.33-11.902-1.086-19.441 4.143-19.283 17.025-1.468 3.651 1.16 8.238 0 11.671-1.996 3.095-2.553 7.092-1.453 14.107 3.632 4.637 7.503 9.202 12.763 11.444-.009.993.392 2.943-.029 3.76-.985 1.941-8.112 2.884-10.756 5.436-.989 5.115-1.784 10.174 3.107 13.22 1.21.749.604 1.659-.26 2.595-5.6.417-9.001 5.604-11.411 12.962-.454 3.574-.36 7.043-.12 10.651.165 2.613.2 3.306 1.699 5.492 1.085 1.585 2.308 3.052 3.523 4.533 1.322 1.606 1.187 1.122.333 3.009" style="fill:#231f20;fill-opacity:1;fill-rule:nonzero;stroke:none;stroke-width:.236935" transform="matrix(1.33333 0 0 -1.33333 58.724 -61.229)"/><path d="M71.964-218.23c1.086-2.353 1.874-4.879 1.179-7.765-1.338-5.634-6.527-10.6-11.158-15.507-1.656-.988-3.212-1.059-4.334.439-.078 1.829.01 3.653.458 5.482 7.862 7.779 12.48 12.868 13.855 17.35M79.842-218.355c8.077-7.016 13.519-15.223 12.482-26.344-1.263-7.278-2.545-14.107-10.279-15.72-2.968.363-5.306 1.367-7.688 2.016-1.284.69-1.553-.317-1.67-2.582 1.427-2.547 3.627-3.798 5.941-4.879-2.575-4.468-15.642-4.018-18.725 3.66-.855 3.787-.883 7.299.913 10.201 4.057 8.84 14.368 13.638 17.348 24.66.8 3.069-.593 7.876 1.678 8.988M105.978-160.253c-.5-1.293-.788-2.68.435-4.614v-21.803c1.238.02 2.276.435 2.884 1.739.554 4.4.22 7.909-.72 10.825-1.013 2.905-.472 6.206-.435 9.38-.87 1.045-1.51 2.782-2.164 4.473" style="fill:#fff200;fill-opacity:1;fill-rule:nonzero;stroke:none;stroke-width:.236935" transform="matrix(1.33333 0 0 -1.33333 58.724 -61.229)"/><path d="M72.376-160.624c-2.286.97-5.706 2.142-8.073 1.744-25.354-2.529-18.32-39.076 6.354-33.446-12.52 8.335-11.253 24.96 1.719 31.702" style="fill:#fff;fill-opacity:1;fill-rule:nonzero;stroke:none;stroke-width:.236935" transform="matrix(1.33333 0 0 -1.33333 58.724 -61.229)"/><path d="M74.25-163.576c-.514.864-1.946.487-2.917.732-11.62-6.98-9.62-23.305 0-28.098 2.316-.825 3.809.275 6.558.243 2.647.567 4.862 3.154 7.293 7.61.86 3.553 1.019 7.377.159 11.577-.731 1.7-1.679 3.256-3.48 6.722-1 .44-1.996.44-2.995 0-1.64-.533-3.367-.883-4.617 1.214M69.797-197.875c1.526 0 2.76-.628 2.76-1.381 0-.764-1.234-1.387-2.76-1.387-1.523 0-2.76.623-2.76 1.387 0 .753 1.237 1.38 2.76 1.38" style="fill:#fff;fill-opacity:1;fill-rule:nonzero;stroke:none;stroke-width:.236935" transform="matrix(1.33333 0 0 -1.33333 58.724 -61.229)"/><path d="M58.834-143.593c.18-1.285.323-2.827 1.502-2.37 2.635-.585 1.182-2.793.724-6.494-1.05-.989-2.257-1.263-3.805 0-1.424 1.497-1.984 3.238-1.664 5.227.093.848-.13 1.542-.036 2.385.238 2.137.522 2.4 2.339 3.597 3.96 2.602 9.091 4.739 14.532 6.485 1.722.716 3.309 1.651 5.386 2.37 2.03.698 2.06.101 2.9 2.17.63 1.547 1.367 3.094 3.177 4.632 1.417.976 3.057 2.083 4.76 3.336l2.851-1.427c1.912-.653 3.636-.53 4.97.259a41.732 41.732 0 0 0 7.393 4.97c.601 1.038 1.636 1.353 3.098.955 3.394-1.196 6.932-3.125 9.986-2.62 1.18-.268 1.497-.817.958-1.663-.966-1.088-2.306-1.02-3.57-1.187-1.004-1.13-1.004-2.393 0-3.81.942-1.06 5.174-.99 7.133-.474 2.791 1.424 7.785 2.862 12.838 4.284 1.699.218 3.46.527 4.274-.714 10.542-7.738 13.792-19.12 32.927-28.693 8.156-3.326 14.098-7.635 16.782-12.69 2.971-7.053-2.189-11.084-7.373-9.517-12.024 8.278-22.364 16.791-28.063 25.928-.85 2.184-2.604 2.504-4.603.95-.09-1.666.547-3.132 1.04-4.516 5.824-13.273 23.09-22.362 36.857-34.723 6.857-5.599 9.606-12.176 9.276-19.502-6.316-13.59-19.32-10.764-26.394-2.848-1.678 18.045-5.137 22.461-8.57 27.103-6.62 7.966-12.768 15.75-13.313 21.412-.965 2.836-2.507 3.125-4.194 1.182-2.132-2.282-4.054-5.99-6.509-13.081-2.151-9.354-3.324-18.709-4.042-28.068-.559-12.876-9.049-26.761-12.184-29.524-4.593-4.04-14.927-3.727-16.736.848-.803 2.021-2.212 7.263-2.466 9.423-.254 2.166-2.221.979-3.33-.473-1.237-7.448.769-12.51 4.993-15.937 5.65-3.88 11.99-3.163 18.79.718 12.656 11.657 14.24 17.685 18.548 58.732 1.72 3.913 3.37 7.399 4.512 7.852.398.078.796.153 1.196.234-.327-6.867 8.665-11.444 12.84-19.028 7.373-10.644 5.378-19.673-2.38-24.485-3.352-.419-5.51.74-7.133 2.614.078 1.243-.548 1.482-1.905.712.01-3.087.921-5.721 3.807-7.37 4.334-1.045 8.72-1.846 14.508 5.23.656-1.859 4.35-6.363 3.326-6.415-13.567-1.773-28.759-27.966-28.486-36.012.016-.614-1.012.031-1.244.337-2.495 3.25 6.76 46.967 7.136 49.934.382 2.969-2.345 3.62-3.807.48-6.312-17.962-8.075-38.056-8.558-58.74-2.474-11.679-8.117-20.289-18.069-24.736-19.303-2.886-23.484 5.752-22.834 18.076 1.2 4.175 4.037 8.423 10.47 12.84 1.028 1.195 1.184 2.383.468 3.57-1.893-.912-4.94-1.237-7.647-1.906 5.514 30.446-10.498 42.336-35.156 47.091-1.121 1.809-1.383 3.516.24 4.08 4.732-2.756 9.521-4.27 14.504-.045 4.661-3.658 10.987-4.854 21.88.713 1.63.155 3.258.337 4.14-.767 2.931-10.181 8.9-10.099 15.123-7.781.5 1.063.5 2.25 0 3.557-7.691-.558-13.754 5.742-8.082 14.035 5.167 8.743 20.521 18.765 24.726 30.434 2.551 3.02 5.705 6.028 9.75 9.044 1.492 4.488 2.36 9.141.239 15.22-1.107 3.621-6.253 3.024-11.179 2.143-4.759-3.194-3.015-9.506 1.427-6.188 4.572 1.063 7.863-.527 4.99-6.656-1.365-3.35-3.972-5.348-8.08-5.71-2.058-2.223-2.005-5.55-.712-6.659 1.297-1.11-14.368-18.926-15.683-16.935-1.315 1.993-.983 16.687-5.087 23.622-4.111 6.94-13.756 5.933-19.418-.029-3.209-1.874-6.977-.952-10.466-1.426-.852-.796-1.136-1.77-1.614-2.568-1.597 2.518-2.525 3.033-3.617 3.286-1.903.47-3.806.943-5.705 1.424-2.044 3.08-3.069 5.073.157 7.369 2.793.23 2.568 2.231.866 3.038-1.916.911-9.782.66-10.625-.114M158.623-135.073c7.359-.941 12.877-5.6 19.22-10.16 1.988-2.573 1.523-3.781-1.405-3.637-7.933 3.06-13.768 7.066-18.268 12.605-.51.627-.51 1.068.453 1.192" style="fill:#fff200;fill-opacity:1;fill-rule:nonzero;stroke:none;stroke-width:.236935" transform="matrix(1.33333 0 0 -1.33333 58.724 -61.229)"/><path d="m93.503-127.446 17.54-.408-10.606-8.153zM131.878-145.534c.966 1.2 2.056 1.995 4.004 0-1.1-1.665-1.706-3.336-1.332-5.006-1.48-.849-2.84-1.452-3.336-.337-.739 1.781-.787 3.561.664 5.343M52.797-163.487c4.654-6.807 3.062-15.917-1.578-21.662-.187-.427.03-.51.48-.427 5.3 6.046 6.205 15.934 1.62 22.386-.536-.081.007.092-.522-.297" style="fill:#231f20;fill-opacity:1;fill-rule:nonzero;stroke:none;stroke-width:.236935" transform="matrix(1.33333 0 0 -1.33333 58.724 -61.229)"/><path d="M-27.906-165.882v-3.82l-2.495.47-.782-3.89 3.277-.626v-3.82l-2.749.514c-.912.176-1.586.358-2.02.553a2.85 2.85 0 0 0-1.054.808c-.322.336-.517.76-.581 1.244-.043.411 0 .983.145 1.691l.854 4.258c.259 1.286.759 2.135 1.49 2.533.731.412 1.875.47 3.43.178zm0 15.1v-9.714c-1.098.438-1.817.96-2.147 1.57-.385.666-.374 1.592.056 2.796l1.434 4.012c.186.528.408.983.657 1.336zm0-35.192-4.812.656 1.9-2.205-2.117-.79-3.018 3.554.53 3.626 7.517-1.021zm4.188 19.303v-10.695l-.166-.104c-.723-.433-1.672-.536-2.845-.318l-1.177.22v3.82l2.504-.47.78 3.894-3.284.623v3.82zm0 16.614v-3.974l-1.838.617-1.238-3.469 3.076-1.016v-3.636c-.547-.056-1.208.036-1.97.29l-1.689.568-.53.18v9.715c.32.45.674.754 1.086.928.719.307 1.748.235 3.103-.203zm0 9.752v-4.82l-1.902.86zm0-46.242-4.188.573v3.82l4.188-.569zm8.062 18.338v-10.67c-.695-.278-1.648-.3-2.859-.077l-1.483.284.667 3.315 2.162-.412.78 3.897-5.192.974-.884-4.362c-.189-.953-.61-1.656-1.253-2.106v10.695l6.896-1.293c.45-.08.837-.169 1.166-.245zm0 15.242v-3.748l-2.064.687-1.272-3.573 3.336-1.109v-3.973l-.153.054-1.975.66c-.933.31-1.601.766-1.999 1.374-.435.662-.677 1.707-.733 3.108-1.045-1.071-1.942-1.72-2.693-1.936l-.51-.112v3.636l1.847-.62 1.231 3.47-3.077 1.018v3.974l.103-.04 1.7-.56c1.04-.353 1.742-.791 2.113-1.343.425-.635.636-1.67.606-3.115 1.11 1.047 2.05 1.712 2.845 1.997.224.07.455.123.695.151zm0 13.575v-8.168l-.478-.983-7.584 3.419v4.82l2.772 5.752 2.719-1.23-3.125-6.468 3.524-1.585 1.774 3.677c.138.283.266.54.398.766zm0 15.99v-7.22l-2.325 1.462 2.18 3.242-1.086.683zm0-64.56-.138-.922-3.06.413.273 1.227-5.137.697v3.824l5.686-.775.08 1.248 2.296-.31zm0 23.279v3.973l2.06-.687 1.267 3.573-3.327 1.11v3.747a4.183 4.183 0 0 0 1.714-.222l1.97-.655c.786-.262 1.395-.525 1.82-.779a4.629 4.629 0 0 0 1.073-.922c.217-.431.316-.871.31-1.329.007-.462-.116-1.035-.361-1.722l-1.454-4.094c-.255-.716-.515-1.246-.767-1.585a2.213 2.213 0 0 0-1.108-.759 3.132 3.132 0 0 0-1.434-.108c-.405.052-.996.21-1.763.459zm0-14.195v10.67c.324-.081.587-.164.788-.242.484-.183.86-.44 1.135-.782.385-.35.617-.77.704-1.258.086-.465.05-1.064-.095-1.801l-.782-3.893c-.251-1.262-.715-2.096-1.38-2.504zm8.501 32.718-.994-2.047-2.797 1.26-1.556-3.233 2.172-.977c.607-.275 1.114-.448 1.524-.516.456-.064.878-.033 1.258.102l.393.118zm0 5.92v-4.035l-5.688 2.558-2.813-5.843v8.168c.231.398.44.696.637.89.293.325.688.533 1.18.64.402.07.848.048 1.307-.086.428-.097 1.035-.329 1.829-.696zm0 18.29v-3.818l-.296.246c-.522.326-1.1.369-1.743.13-.595-.241-1.102-.673-1.525-1.31-.422-.617-.627-1.24-.605-1.86.038-.666.312-1.166.832-1.488.458-.292.99-.296 1.602-.036.606.244 1.113.673 1.518 1.28l.217.355v-4.289a6.916 6.916 0 0 0-1.267-.653c-1.52-.617-2.902-.531-4.146.25-.643.403-1.09.897-1.345 1.481-.31.7-.414 1.626-.304 2.79l-1.253-1.866-.186.117v7.219l.94 1.393 1.086-.678 2.177 3.254 2.51-1.588-1.302-1.942c.702.622 1.513.969 2.425 1.013.222.021.448.021.665 0zm0 7.88v-4.61l-1.585.986c-.237.151-.454.196-.65.137-.177-.057-.356-.24-.557-.535l-.85.53 2.731 4.064zm-7.734-68.592-.767-5.3v5.402zm10.207 41.256v-6.473l-.707-1.464c-.335-.707-.653-1.219-.956-1.545a2.166 2.166 0 0 0-.81-.565v5.293l.746 1.54-.746.345v4.034l1.715-.772c.274-.123.528-.254.758-.393zm0 8.982-1.582-2.353.824-.522c.21.311.418.484.627.515l.131.007zm0 9.297v-6.99l-.173-.267c-.666-.99-1.43-1.772-2.3-2.356v4.29c.276.508.405 1.015.39 1.527 0 .49-.129.872-.39 1.155v3.818a3.723 3.723 0 0 0 1.715-.576c.284-.182.534-.372.758-.601zm0 8.451v-5.565l-2.473 1.561v4.61l2.025-1.276zm0-15.44c.81 1.3 1.202 2.648 1.164 4.025-.027 1.234-.417 2.218-1.164 2.964zm0-17.763v6.473c.731-.44 1.215-.946 1.44-1.517.275-.739.155-1.659-.373-2.753zm5.834 14.386v-4.48c-.297-.038-.611.047-.935.251l-4.275 2.692c-.247.15-.458.241-.624.253v2.353l1.131 1.686 4.6-2.886zm0 14.209v-4.62l-5.834 3.663v5.565l.637.95 2.512-1.58-1.086-1.616zm0 16.64v-4.168l-.695-.694-2.158 2.012zm0-21.26.665-.42 2.177 3.251-2.842 1.789zm0-14.07v4.481l6.701 9.996 2.507-1.576-8.151-12.156c-.268-.401-.571-.643-.913-.723zm21.256 33.453v-5.38l-3.978 3.72-9.356-9.38-2.148 2.013 4.493 4.507-1.071 1-5.888-5.905-2.157 2.01 10.75 10.773-3.24 3.03-8.661-8.679v4.168l9.283 9.307 5.396-5.04.68.682 2.159-2.011-5.543-5.55 1.067-1.001 4.866 4.871zm0 20.71v-5.288l-.845 1.18-1.628-1.109-1.724 2.375zm4.191-24.624v-.019l-2.771-2.772-1.42 1.325v5.38zm0 6.833v-.02l-.015.016zm0 20.63v-3.537l-1.76-1.187 1.76-2.426v-9.122l-.89-.602-1.724 2.374 2.04 1.381-3.617 4.992v5.289zm0-16.272 13.824 9.368-1.714 2.374-2.04-1.381-4.47 6.17 1.636 1.099-1.724 2.374-5.512-3.732v-3.537l2.324 1.575 4.468-6.172-4.08-2.765-2.712 3.749zm0-11.21v.02l.005-.006zm16.597 18.095v-3.535l-14.891-10.091-1.706 2.362v.021zm0 13.972v-1.085l-.267-.093-.413.889zm0 5.506v-3.168l-.65-.284-1.226 2.651zm0-23.013v3.535l.153.1 1.722-2.37zM66.638-82.3l-1.107 2.417-7.313-3.149-1.751 3.805 6.213 2.68-1.216 2.65-12.326-5.308-.846 1.838 12.32 5.315-3.327 7.238-14.089-6.068v-3.168l11.646 5.019.9-1.948-12.546-5.41v-1.084h.529c.21-.067.38-.251.52-.566l1.673-3.623c.265-.58.584-.946.954-1.107.407-.166.932-.132 1.583.093l4.379 1.89 1.751-3.814-7.945-3.422 1.215-2.648 18.783 8.096zm0 16.318v-2.853c-.15 1.005-.15 1.962 0 2.853zm0-16.592v.274l.11-.227zm6.88 22.11v-3.182c-.468.244-.939.304-1.41.192-.775-.208-1.287-.808-1.541-1.798-.275-1.08-.194-2.422.254-4.035.448-1.616 1.071-2.827 1.865-3.623.277-.27.553-.483.832-.625v-3.175c-1.04.092-2.047.46-3.005 1.092-1.702 1.15-2.89 2.921-3.555 5.322-.14.5-.246.99-.32 1.461v2.853c.125.709.342 1.377.65 2.019.84 1.722 2.193 2.817 4.045 3.3a6.55 6.55 0 0 0 2.185.2zm6.036-4.911v-8.212c-.839-1.507-2.115-2.481-3.827-2.934-.761-.19-1.49-.258-2.209-.19v3.176a1.937 1.937 0 0 1 1.428-.185c.757.196 1.264.794 1.52 1.784.28 1.083.196 2.43-.256 4.042-.442 1.614-1.068 2.815-1.865 3.62a3.56 3.56 0 0 1-.827.628v3.182c1.045-.092 2.05-.462 3.004-1.109 1.324-.886 2.337-2.156 3.032-3.802zm0 7.352v-1.211c-.158.026-.383 0-.66-.071l-.287 1.038zm13.964 2.706.212-2.896 13.432.912.489-6.748-15.442-1.051.209-2.886 8.46.57.628-8.674 3.993.273-.627 8.67 7.961.542-.212 2.886-.978-.064-.693 9.643zm-13.964-3.917.123-.033c.18-.05.302-.197.37-.434l5.224-18.85 3.863 1-2.895 10.453 1.917.495-.774 2.803-1.914-.495-.524 1.86 1.925.495-.774 2.798-1.925-.495-.724 2.618-3.892-1.004zm0-14.353v8.212c.203-.479.375-.981.522-1.52.672-2.402.56-4.51-.326-6.325l-.196-.367M136.017-55.99v-10.496c-.47.548-.801 1.128-1.002 1.747-.853-.875-1.934-1.526-3.227-1.943-1.267-.427-2.535-.56-3.784-.394l.517 2.858c1.435.13 2.565.564 3.396 1.3 1.005.877 1.738 2.32 2.193 4.31l-3.93.673.516 2.858zm-6.135-11.993-.179-.957c.387-.067.629-.192.736-.365.096-.159.12-.41.062-.76l-.884-4.839c-.11-.592-.062-1.026.15-1.294.202-.236.586-.41 1.147-.509l5.103-.867v2.938l-2.225.379.99 5.435zm11.968 6.665-.123.026-.524-2.857.647-.112zm0 4.331v-2.94l-3.82.651c-.274-2.025-.094-3.62.546-4.771.519-.974 1.428-1.759 2.734-2.356l-.521-2.852a8.62 8.62 0 0 0-3.528 1.637 7.7 7.7 0 0 0-1.244 1.132v10.497zm-5.833-20.587 5.833-.998v2.948l-5.833.988zm5.833 17.647v2.94l.638-.109-.512-2.853zm1.796-7.516v-4.468l-.786.135zm0 5.824v-2.945l-1.796.303v2.943zm-1.796-16.953 1.796-.305v2.947l-1.796.306zm15.145 9.082c-.204-.585-.535-1.035-1.005-1.34-.457-.3-.926-.37-1.412-.217-.483.147-.82.474-1.004.981-.197.51-.197 1.06 0 1.652.17.514.493.912.955 1.187.469.291.93.362 1.41.215.468-.154.802-.48 1.006-.973.202-.486.223-.995.05-1.505zm-13.349-2.421v4.468l.507 2.794-.507.085v2.945l1.028-.182.453 2.492c.045.242 0 .44-.133.585-.135.166-.372.285-.718.34l.171.954 4.938-.836L146.8-72.45zm27.617-5.8-11.114 4.786-1.218-2.645 7.947-3.421-2.96-6.44 3.635-1.564 2.96 6.44.75-.327zm0 12.052v-4.762c-.41.12-.803.192-1.173.225-.938.08-1.518-.1-1.73-.554-.2-.45.053-.962.764-1.538.533-.455 1.248-.88 2.14-1.287v-3.032c-.34.118-.68.255-1.027.41-2.078.843-3.75 1.919-5.01 3.248-1.415 1.493-1.858 2.864-1.33 4.123.268.575.8 1.023 1.606 1.32.82.3 1.692.39 2.611.265l-2.907 1.25 1.128 2.458zm-27.617-13.218 1.917-.327.521 2.852-2.438.422zm27.617-2.005 6.369-2.741 1.213 2.651-7.582 3.26zm10.518-4.866v-1.986c-.315.197-.642.412-.957.647zm0 15.562v-2.52l-.154-.35-2.74 1.178c.62-.484 1.072-1.133 1.36-1.934.306-.824.328-1.52.067-2.08-.564-1.234-1.903-1.827-4.016-1.772-1.568.033-3.246.39-5.035 1.057v3.032l.237-.097c1.007-.436 1.896-.694 2.659-.791.916-.126 1.48.038 1.694.49.206.45-.038.984-.733 1.612-.594.526-1.38.997-2.36 1.419a9.122 9.122 0 0 1-1.497.521v4.762l1.18-.5.412.887 4.196-1.813-.405-.886zm0-2.52v2.52l.971-.42zm13.548-20.449V-99.9l-1.702-2.346-3.276 2.22zm0 15.462v-9.64c-1.716-1.462-3.65-2.294-5.784-2.493-2.575-.242-5.158.448-7.764 2.092v1.986l.753 1.035c1.862-1.13 3.794-1.595 5.798-1.405 1.99.182 3.566.948 4.743 2.298l1.993 2.756-6.144 4.163 1.723 2.374zm0-9.64a13.804 13.804 0 0 1 1.713 1.765l3.255 4.5-4.968 3.375zm0-12.567v6.745l6.537 9.04c.196.27.26.492.206.686-.043.187-.218.372-.512.576l.566.8 4.104-2.78L195.329-99.9M216.008-111.449c-1.066.891-2.187 1.578-3.352 2.052-1.95.815-3.471.754-4.538-.177-1.04-.903-1.241-2.35-.606-4.3.585-1.759 1.63-3.455 3.132-5.069 1.576-1.687 3.241-2.91 5.004-3.663l.36-.154v3.087c-.355.017-.744.133-1.187.337-.862.422-1.7 1.07-2.525 1.952-.79.848-1.353 1.701-1.68 2.561-.363.99-.282 1.718.241 2.17.52.458 1.277.465 2.268.017.898-.381 1.739-.992 2.523-1.831l.36-.412zm0 5.25v-4.186l-5.15 5.537 2.146 1.87zm0 3.207c-.32-.318-.485-.643-.493-.984-.023-.346.145-.703.484-1.073l.009-.002zm0-19.768v3.087c.427-.026.78.088 1.069.337.523.457.609 1.187.253 2.19-.272.776-.718 1.534-1.322 2.267v3.43a16.61 16.61 0 0 0 1.545-1.473c1.58-1.69 2.651-3.429 3.237-5.208.649-1.962.43-3.422-.642-4.36-.986-.855-2.36-.943-4.14-.27zm12.525-3.494v-7.51l-1.266 2.039-1.786-1.036 3.052-4.924v-5.26l-6.594 10.61c-.282.456-.382.882-.296 1.285.085.434.362.784.824 1.06l5.563 3.231c.259.142.415.307.503.505zm0 .783v-.288l-.112.223zm-8.412 27.383c.245-.249.351-.483.344-.699-.012-.225-.152-.44-.412-.675l-3.917-3.407-.128-.123v-2.06l3.405-3.662-.583-.515-2.822 3.03v-4.186l8.535-9.181 2.158 1.877-5.21 5.603.588.51 4.549-4.896 1.853 1.614-9.02 9.705.582.504 8.352-8.975.138.119v3.068l-6.779 7.281.609.524 6.17-6.627v3.603l-7.656 8.222zm11.044-40.833v-4.516l-1.713-.995-.92 1.487v5.26l1.266-2.035zm0 10.859-1.884 3.023-.748-.432v-.288l.005-.467-.005-.028v-7.51l2.632-4.247v5.265l-1.497 2.417 1.497.871zm0 5.957v-4.434a7.048 7.048 0 0 0-.412 2.521c.016.73.151 1.365.412 1.913zm-2.632 12.846v3.603l2.632-2.833v-3.604zm0-4.246 1.573 1.379-1.573 1.69zm2.632-15.953.635.37-.635 1.026zm.825-4.618v-8.882l-.825-.479v4.516l.42.241-.42.669v5.265zm0 13.039v-7.231a9.322 9.322 0 0 0-.825 1.73v4.433c.201.412.481.771.825 1.068zm-.825 8.944.218-.232.607.528v2.417l-.825.89zm6.246-42.871v-4.073l-1.882-.618-1.296 3.637zm0 16.854-1.744 2.802-.863-.504c.145-.235.187-.46.114-.688-.071-.204-.244-.383-.505-.53l-.424-.256-2 3.21v-8.882l5.422 3.146zm0 2.811v-1.694l-.775 1.247zm0 16.901v-6.98l-.053.088c-.398.637-.87 1.095-1.41 1.364-.594.29-1.113.307-1.563.05-.415-.244-.607-.677-.595-1.298-.005-.594.19-1.208.588-1.846.393-.64.87-1.1 1.424-1.397.559-.301 1.042-.334 1.457-.093l.152.099v-3.62c-.638.019-1.31.204-2.036.56-1.338.657-2.445 1.691-3.317 3.1l-.068.103v7.23l.433.311c.654.384 1.296.554 1.926.5.73-.043 1.6-.386 2.597-1.026l-1.187 1.903zm-5.421 6.601 1.246 1.085-1.246 1.332zm5.42-20.234a3.266 3.266 0 0 1 1.75.46c.755.43 1.274 1.032 1.563 1.805.294.78.287 1.602-.021 2.471l1.23-1.992 2.321 1.345-2.061 3.327 1.104.64-2.045 3.298-1.106-.645-2.061 3.324-.673-.4v-6.98c.37-.618.55-1.213.55-1.779 0-.565-.19-.976-.55-1.254zm0-7.78.775.45-.774 1.25zm8.95-31.307v-4.153c-.6.556-1.237.764-1.917.644-.818-.161-1.391-.766-1.713-1.81-.27-.934-.292-1.955-.069-3.061.232-1.157.654-2.119 1.268-2.908.694-.865 1.454-1.208 2.286-1.06l.145.034v-4.255c-1.258.005-2.464.725-3.583 2.14-1.201 1.504-2.023 3.369-2.473 5.603-.43 2.137-.375 4.114.151 5.93.595 2.014 1.64 3.166 3.17 3.455.948.176 1.865-.01 2.735-.56zm0 11.565-5.237 14.728-2.831-.948 2.831-7.952-3.712-1.24v-4.072l5.004 1.67 2.542-7.124 1.403.47zm0 14.336v-10.318c-.19.425-.37.867-.536 1.34-.805 2.247-1.057 4.28-.775 6.09.207 1.251.638 2.216 1.31 2.888zm0 14.833v-4.22l-1.237-.718 1.026-1.657-2.569-1.49-1.026 1.654-3.86-2.243-1.283 2.065v1.694l7.278 4.235c.244.144.384.31.405.514.024.173-.057.412-.246.713l.858.5zm0-4.22v4.22l1.924-3.109zm0-29.418 1.424.474-1.424 3.995zm3.473-11.975c-.455 1.273-1.078 2.408-1.874 3.396-.512.644-1.047 1.133-1.6 1.483v-4.153l.39-.413c.646-.763 1.07-1.694 1.298-2.8.227-1.143.194-2.192-.095-3.163-.31-.99-.841-1.586-1.592-1.785v-4.255c.227 0 .454.021.687.062 1.227.234 2.156.997 2.786 2.317zm0 8.288v-4.499l-.87 4.329zm0 23.49v-3.703c-.24.026-.476 0-.715-.083-.68-.223-1.064-.86-1.166-1.91-.1-.997.073-2.123.528-3.397.353-1.015.808-1.848 1.353-2.52v-4.216c-.246.18-.5.381-.749.613-1.09 1.005-2.002 2.31-2.724 3.9v10.318c.405.392.893.688 1.46.872.665.23 1.338.273 2.013.126zm0-41.089c.173.346.318.734.448 1.173.53 1.829.566 3.862.118 6.09a15.4 15.4 0 0 1-.566 2.048zm.92 17.772v-9.223l-.92 4.551v4.5zm0 10.821v-3.874a5.108 5.108 0 0 0-.92.54v4.218l.372-.412zm0 12.186v-3.78a2.05 2.05 0 0 1-.92.387v3.703c.306-.067.614-.178.92-.31zm3.603-34.981-2.447 12.188-1.157-.214v-9.223l2.119-10.556 1.485.284zm0 11.162v-4.045a13.407 13.407 0 0 0-1.452 3.767zm0 20.244v-12.374a3.24 3.24 0 0 0-.69-.3c-.968-.327-1.945-.263-2.914.19v3.873c.538-.379 1.071-.485 1.585-.317.72.246 1.126.874 1.223 1.9.078.962-.1 2.073-.55 3.324-.464 1.3-1.04 2.305-1.708 3.019l-.55.48v3.78c.538-.252 1.093-.628 1.642-1.13.74-.674 1.389-1.491 1.962-2.445zm0-12.374v12.374c.498-.832.934-1.77 1.3-2.816.79-2.22 1.053-4.24.769-6.07-.263-1.694-.955-2.86-2.069-3.488zm0-11.915c.18-.32.375-.627.585-.926a12.097 12.097 0 0 1 3.429-3.322c-.97-1.262-1.616-2.644-1.931-4.137-.363-1.6-.37-3.398-.014-5.39l2.822.528c-.171 1.478.026 2.94.585 4.383.625 1.666 1.606 2.818 2.938 3.481l-.76 3.78c-1.491.22-2.858.992-4.093 2.297-1.078 1.126-1.803 2.324-2.196 3.601l-1.365-.25zm0-14.638v7.52l1.455-7.245z" style="fill:#00a650;fill-opacity:1;fill-rule:nonzero;stroke:none;stroke-width:.236935" transform="matrix(1.33333 0 0 -1.33333 58.724 -61.229)"/><path d="m142.59-339.95.641-1.948-5.11-1.405-.657 1.955 5.125 1.397M243.386-261.125l-6.947 4.966 1.493 3.682 5.454-.703v-2.95l-3.435.56-.015-.039 3.45-2.22zm6.239-4.438-6.239 4.438v3.296l2.374-1.528 1.085 2.673-3.459.553v2.951l10.702-1.38-1.194-2.935-3.551.521-1.55-3.817 2.945-2.016-1.113-2.756M-31.908-239.561c-.418 3.715 1.882 4.71 4.6 4.897l.35-2.992c-1.498-.2-2.742-.413-2.555-2.066.117-1.013.884-1.417 1.947-1.28 2.816.365 2.3 6.423 6.953 7.01 2.448.32 4.516-.504 4.934-4.158.332-2.913-.93-4.549-4.224-4.764l-.333 2.912c1.17.151 2.344.488 2.204 1.691-.115.972-.765 1.477-1.844 1.332-2.966-.376-2.018-6.376-6.94-7.003-4.04-.52-4.83 2.139-5.092 4.421M-29.931-245.949l10.289.071v-2.63l-3.475-.196.71-2.79 2.765 1.391v-3.357l-7.347-3.992-.787 3.07 3.184 1.659-1.022 3.98-3.582-.09zm10.289.071 5.953.045.986-3.85-6.94-3.777v3.357l3.465 1.749-.008.031-3.456-.185v2.63M-25.448-259.873l14.517 6.155 1.975-4.442-8.95-6.247.02-.032 10.848 1.987 1.908-4.293-14.512-6.146-1.196 2.68 11.193 4.75-.015.033-12.327-2.208-1.171 2.628 10.12 7.158-.015.035-11.197-4.748-1.198 2.69M-15.083-280.245c-1.99 3.177-.29 4.96 2.155 6.189l1.604-2.569c-1.3-.754-2.365-1.436-1.481-2.846.542-.862 1.433-.929 2.359-.393 2.443 1.405-.638 6.658 3.423 8.996 2.125 1.223 4.398 1.285 6.359-1.845 1.561-2.497 1.09-4.457-1.862-5.924l-1.562 2.502c1.022.586 1.961 1.33 1.31 2.37-.521.834-1.338 1.028-2.28.488-2.582-1.479.878-6.52-3.407-8.987-3.525-2.029-5.398.061-6.618 2.019M9.247-286.953l-9.282-6.07c-1.961-1.28-4.754-1.645-6.938 1.343-1.977 2.702-1.367 5.016 1.099 6.63l9.276 6.08 1.803-2.455-9.107-5.95c-1.61-1.06-1.791-2.097-1.142-2.985.79-1.079 1.942-1.043 3.393-.097l9.097 5.96 1.801-2.456M-.23-299.56l12.04 9.851 2.837-3.016-5.675-9.666.033-.029 8.333 6.818 1.959-2.089-12.039-9.847-2.764 2.95 6.065 10.12-.031.028-8.798-7.2-1.96 2.08M23.356-307.754c1.043.993 1.768 2.019.528 3.095-1.452 1.267-3.394-.628-5.526-2.718-3.446-3.381-3.72-4.267-2.389-5.425.39-.344.906-.619 1.376-.801l2.446 2.385-1.276 1.102 1.696 1.659 3.609-3.132-5.585-5.47c-.752.432-2.592 1.576-3.524 2.387-3.93 3.414-2.779 5.376 1.396 9.47 2.779 2.714 5.737 5.355 9.565 2.035 2.296-1.992 2.453-4.464.007-6.602l-2.323 2.015M29.913-326.113l8.87 12.26 2.708-1.615-7.397-10.212 4.052-2.421-1.476-2.033-6.757 4.02M39.78-331.89l8.024 12.69 2.83-1.456-8.022-12.688-2.833 1.454M48.919-328.5c1.318 2.341 2.599 4.604 4.805 5.107v-3.538c-.55-.687-1.136-1.661-1.853-2.922-1.88-3.317-2.481-4.852-.839-5.605 1.02-.462 1.795-.128 2.692.988v-3.528c-1.028-.237-2.257-.093-3.792.609-2.119.969-2.938 2.154-3.033 3.474v.511c.102 1.525 1.052 3.203 2.02 4.905zm4.805 5.107c1.026.234 2.255.082 3.78-.617 2.14-.978 2.965-2.165 3.049-3.48v-.498c-.1-1.514-1.049-3.198-2.024-4.916-1.31-2.32-2.59-4.587-4.805-5.094v3.528c.55.685 1.136 1.66 1.85 2.92 1.882 3.323 2.483 4.856.842 5.607-1.02.462-1.803.128-2.692-.988v3.538M58.64-340.876l5.53 13.616 4.168-1.346.086-10.71.046-.005 3.827 9.425 2.878-.935-5.525-13.612-4.068 1.314.024 11.262-.042.01-4.046-9.959-2.878.939M77.166-346.833c-3.898 1.094-3.912 3.397-2.939 5.726l3.149-.876c-.448-1.32-.762-2.441.973-2.927 1.06-.296 1.793.19 2.108 1.12.849 2.484-5.432 4.408-4.037 8.512.731 2.158 2.448 3.56 6.283 2.485 3.06-.855 4.153-2.542 2.967-5.364l-3.07.855c.354 1.034.52 2.135-.744 2.486-1.03.289-1.803-.055-2.13-1.012-.889-2.61 5.524-4.158 4.046-8.494-1.215-3.566-4.209-3.184-6.606-2.511M99.683-335.79l4.674-.235v-2.22l-1.533.071-.284-4.11 1.817-.085v-2.224l-1.969.096-.402-5.857-3.297.156zm4.674-.235 1.257-.06c2.645-.131 3.783-1.477 3.904-3.586v-.765l-.007-.16c-.115-1.634-.821-4.202-4.674-4.02l-.48.024v2.223h.015c.984-.043 1.73.9 1.795 1.853.081 1.182-.203 2.191-1.687 2.262l-.123.01v2.22M114.976-350.935l-3.295.04.138 14.418 4.824-.064v-2.218l-.088.005-1.458.017-.04-4.009 1.463-.021h.123v-2.272a5.27 5.27 0 0 1-.76.064l-.845.01zm1.667 14.394 1.274-.006c2.247-.032 3.676-1.37 3.653-3.82-.021-1.84-.816-3.21-2.964-3.498v-.044c.72-.088 2.862-.275 2.834-2.875-.008-.916.028-3.631.333-4.228l-3.234.035c-.426.881-.335 1.86-.324 2.799.016 1.528.163 2.843-1.572 3.139v2.272c1.208.06 1.572 1.213 1.588 2.1.003 1.338-.589 1.873-1.588 1.909v2.217M123.727-343.67c-.13.962-.254 1.907-.288 2.794v.758c.091 2.264 1.055 4.034 4.695 4.43.345.033.68.057.99.057v-2.223a2.094 2.094 0 0 1-.702.022c-1.842-.2-1.876-1.808-1.382-5.479.419-3.145.819-4.747 2.085-5.006v-2.22c-4.472-.052-4.93 3.364-5.398 6.866zm5.398 8.038c4.466.05 4.911-3.326 5.387-6.872.124-.946.259-1.891.285-2.773v-.75c-.086-2.273-1.05-4.062-4.679-4.45a8.919 8.919 0 0 0-.993-.06v2.22c.21-.042.439-.05.702-.021 1.836.194 1.856 1.81 1.367 5.478-.422 3.149-.801 4.739-2.07 5.006v2.223M150.375-346.77l-5.464 13.586 5.493 1.799c.236.08.485.147.725.21v-2.374l-.38-.09-1.905-.615 1.394-3.47.89.29v-2.358l-.052-.021.053-.119v-6.591zm3.118 1.022-2.364-.775v6.591l1.504-3.739.86.285zm-2.364 14.574c.831.21 1.634.296 2.364.149v-8.042a4.468 4.468 0 0 1-.614-.152l-1.75-.573v2.358l1.177.388c.675.223 1.452.94.917 2.26-.344.872-1.19 1.365-2.094 1.237zm2.364.149c1.085-.208 2.005-.925 2.625-2.471.633-1.564.242-2.97-1.315-3.82l.012-.038c2.308.434 3.403-.675 4.156-2.54.173-.434.275-.832.318-1.204v-.758c-.244-1.976-2.424-2.788-3.443-3.125l-2.353-.767v2.361l.853.28c.661.216 2.128.716 1.36 2.621-.412 1.033-1.057 1.6-2.213 1.419v8.042M161.805-343.201l-2.403 14.876 3.967 1.522 1.163-1.338v-4.63l-2.087 2.57-.038-.013 1.383-6.294.742.292v-2.432l-.358-.135.358-1.968v-1.4zm2.727 2.45.24-1.304-.24-.097zm0 12.61 9.134-10.501-3.17-1.214-2.216 2.646-3.748-1.438v2.432l2.13.815-2.13 2.63v4.63M179.042-336.207c-3.618-1.595-5.39.097-6.49 2.436l2.922 1.289c.687-1.259 1.322-2.282 2.93-1.573.984.44 1.135 1.25.645 2.144-1.296 2.357-7.25-.097-9.397 3.8-1.132 2.05-.988 4.142 2.564 5.71 2.845 1.26 4.914.69 6.233-2.139l-2.845-1.249c-.543.974-1.263 1.893-2.445 1.372-.943-.42-1.235-1.147-.73-2.064 1.365-2.48 7.12.334 9.39-3.781 1.867-3.395-.555-4.967-2.777-5.945M187.697-331.795l-9.025 12.126 7.025 4.3 1.391-1.864-4.336-2.652 2.23-2.99 3.992 2.443 1.384-1.864-3.995-2.448 2.642-3.544 4.47 2.743 1.387-1.86-7.165-4.39M194.357-321.768l-6.487 7.826 4.57 3.163c.63.436 1.275.791 1.917.993v-2.749a2.086 2.086 0 0 1-.829-.327l-1.588-1.102 2.417-2.912zm3.237-3.886-3.237 3.886v4.892l.06-.073 1.729 1.192c.564.388 1.05 1.289.109 2.426-.502.611-1.208.891-1.898.796v2.749c1.37.416 2.768.149 4.163-1.519v-5.919c-.341-.05-.701-.214-1.097-.483l-1.507-1.04 2.604-3.149v-3.118zm.926 14.349.026-.032c1.121-1.352 1.23-2.804.045-4.034l.029-.029c2.025 1.017 3.435.228 4.772-1.379.62-.75.914-1.433.995-2.056v-.732c-.192-1.452-1.529-2.455-2.237-2.94l-3.63-2.507v3.118l.161-.178 1.431.983c.54.382 1.754 1.244.406 2.889-.602.715-1.233 1.11-1.998.978v5.919M205.884-315.736l-6.568 10.056 2.929 2.815 3.64-1.896v-3.308l-3.012 1.697-.026-.021 3.037-4.166zm2.007-3.061-2.007 3.062v5.176l.92-1.26 2.125 2.033-3.045 1.717v3.308l10.778-5.616-2.35-2.255-3.14 1.716-3.037-2.907 1.948-2.865-2.192-2.11M218.468-308.787l-11.686 10.236 2.17 2.158 9.748-8.534 3.248 3.236 1.938-1.7-5.418-5.396M225.687-300.986l-12.04 9.948 2.07 2.232 10.044-8.3 3.103 3.353 1.998-1.656-5.175-5.577M229.132-270.276l2.294-1.239-1.751-2.888 11.489-6.205-1.571-2.599L228.106-277l-1.75-2.89-2.285 1.237 5.061 8.377M244.734-274.723l-14.19 6.698 3.675 7.011 2.182-1.034-2.27-4.32 3.505-1.651 2.09 3.982 2.175-1.028-2.09-3.988 4.15-1.952 2.342 4.455 2.182-1.027-3.75-7.146M255.325-252.42l-15.18 4.23 1.322 4.667 10.946-.708.012.033-9.667 5.181 1.287 4.514 15.18-4.232-.803-2.822-11.714 3.266-.014-.036 10.953-5.94-.789-2.763-12.43.735-.014-.043 11.714-3.265-.803-2.816" style="fill:#1a5dad;fill-opacity:1;fill-rule:nonzero;stroke:none;stroke-width:.236935" transform="matrix(1.33333 0 0 -1.33333 58.724 -61.229)"/></svg>