<svg xmlns="http://www.w3.org/2000/svg" xml:space="preserve" width="752.97668" height="500" viewBox="0 0 752.97669 500"><defs><linearGradient id="b" x1="0" x2="1" y1="0" y2="0" gradientTransform="matrix(0 -334.285 -334.285 0 3035.01 664.17)" gradientUnits="userSpaceOnUse" spreadMethod="pad"><stop offset="0" style="stop-opacity:1;stop-color:#f07124"/><stop offset="0.15" style="stop-opacity:1;stop-color:#f07124"/><stop offset="0.5" style="stop-opacity:1;stop-color:#fac816"/><stop offset="0.8" style="stop-opacity:1;stop-color:#fff"/><stop offset="1" style="stop-opacity:1;stop-color:#fff"/></linearGradient><clipPath id="a" clipPathUnits="userSpaceOnUse"><path d="M3618.14 432.871c1.33-20.98 8.77-31.469 22.38-31.469 13.8 0 22.46 8.719 25.96 26.188 1.84 9.223-6.37 23.922-24.61 44.101-5.97 9.129-7.65 20.18-5.04 33.149 4.07 20.351 13.13 36.539 27.23 48.562 14.1 11.989 30.29 18 48.62 18 22.82 0 33.18-5.339 31.05-16.05-1.88-9.313-9.14-18.793-21.77-28.383-6.17 14.933-13.41 22.402-21.75 22.402-11.77 0-19.16-7.629-22.23-22.891-1.59-8.039.86-15.66 7.4-22.89 5.99-6.559 11.99-13.18 18.05-19.84 6.09-9.41 7.79-20.879 5.1-34.379-4.46-22.211-14.37-39.832-29.75-52.871-15.39-13.078-33.17-19.598-53.35-19.598-25.85 0-37.26 7.5-34.26 22.528 2.26 11.269 11.25 22.441 26.97 33.441zm-104.72 63.891c30.08 49.769 55.5 74.64 76.27 74.64 15.78 0 21.72-9.754 17.82-29.273-2.77-13.867-9.67-34.777-20.7-62.758-11.02-27.98-17.92-48.949-20.73-62.91-2.24-11.211-1.88-20.359 1.07-27.481-9.86-6.66-18.93-9.98-27.25-9.98-13.94 0-19.25 8.25-15.95 24.762 2.44 12.218 6.95 27.367 13.51 45.437 16.55 45.543 25.28 70.614 26.2 75.172 1 5 .25 7.5-2.31 7.5-4.83 0-19.02-17.832-42.49-53.5-23.51-35.66-37.21-63.359-41.11-83.062-.68-3.457-.89-7.61-.59-12.477-8.09-2.551-15.67-3.832-22.73-3.832-12.79 0-18.05 5.652-15.8 16.941 1.18 5.821 3.58 13.207 7.21 22.141l8.81 21.859c21.24 54.098 33.71 90.329 37.39 108.739 1.01 5.011 1.2 9.73.57 14.191 10.66 4.289 19.6 6.442 26.76 6.442 11.29 0 15.79-5.75 13.5-17.211-1.28-6.411-7.76-24.852-19.45-55.34zm-111.51-79.192c22.18 27.149 36.46 56.59 42.82 88.371 3.85 19.25 2.27 34.989-4.72 47.18-7 12.18-18.1 18.281-33.34 18.281-23.41 0-46.22-13.472-68.44-40.39-22.22-26.953-36.53-56.461-42.95-88.5-3.95-19.731-2.37-35.59 4.74-47.614 7.1-11.976 18.5-17.996 34.19-17.996 22.95 0 45.53 13.567 67.7 40.668zm-65.22 22.192c4.78 23.801 12.76 47.14 23.97 70.051 11.21 22.859 22.08 34.308 32.6 34.308 11.44 0 14.78-11.859 10.02-35.582-4.65-23.25-12.58-46.437-23.72-69.598-11.15-23.179-21.88-34.75-32.2-34.75-11.85 0-15.41 11.872-10.67 35.571zm-22.74 157.867c-8.89-4.649-16.65-6.977-23.28-6.977-9.96 0-14.27 3.36-12.91 10.129.44 2.27 1.5 5.68 3.16 10.25 1.65 4.551 2.7 7.969 3.17 10.25.31 1.551.2 3.418-.32 5.621 10.45 4.289 18.99 6.418 25.61 6.418 10.86 0 15.27-5.058 13.25-15.179-.9-4.481-3.79-11.309-8.68-20.512zm-57.3-35.309c11.16 4.66 20.92 6.993 29.32 6.993 11.26 0 15.85-5.282 13.73-15.852-.95-4.731-2.82-10.512-5.61-17.34-24.26-59.101-38.54-99.379-42.83-120.871-2.08-10.379-1.6-19.148 1.44-26.25-9.96-6.68-18.95-10-27.01-10-14.49 0-20.08 8.25-16.77 24.719 2.85 14.32 10.77 37.902 23.72 70.781 12.96 32.859 20.86 56.469 23.72 70.762 1.15 5.75 1.24 11.429.29 17.058zM3068.6 357.551c1.43 7.14 4.76 18.25 10.02 33.328 7.11-6.758 16.08-10.129 26.85-10.129 21.69 0 43.41 15.191 65.13 45.59 21.72 30.379 35.8 61.711 42.27 94 6.8 34.051.48 51.062-18.98 51.062-18.65 0-44.26-24.922-76.81-74.73 11.74 29.547 18.3 47.777 19.68 54.707 2.4 11.953-2.13 17.934-13.58 17.934-7.43 0-16.32-2.391-26.71-7.122.18-4.839-.11-9.121-.85-12.859-2.15-10.762-6.92-26.211-14.21-46.383l-42.19-116.129c-.02-.09-2.4-5.98-7.12-17.66-2.92-7.101-4.85-13.031-5.79-17.758-2.33-11.691 2.14-17.523 13.45-17.523 6.99 0 15.83 2.512 26.5 7.531.77 6.832 1.54 12.219 2.34 16.141zm63.8 133.609c18.36 26.211 29.64 39.332 33.88 39.332 4.79 0 5.87-6.73 3.18-20.191-3.97-19.75-11.73-41.5-23.34-65.25-11.62-23.742-22.18-35.621-31.74-35.621-8.44 0-15.5 7.082-21.19 21.269 7.77 14.114 20.86 34.25 39.21 60.461zm-210.07-108.328c-7.78-2.551-15.08-3.832-21.91-3.832-11.15 0-15.62 5.391-13.5 16.141.85 4.172 3.87 13.089 9.05 26.75 22.43 58.73 34.69 93.25 36.75 103.531.66 3.359.06 5.07-1.79 5.07-4.92 0-19.49-18.023-43.67-54.012-24.19-36.011-38.06-62.832-41.6-80.48-.81-4-1.04-8.391-.74-13.16-8.05-2.559-15.24-3.84-21.52-3.84-12.15 0-17.07 5.652-14.82 16.941 1.19 5.93 3.55 13.301 7.08 22.141 26.88 67.02 42.36 110.688 46.41 131.008.96 4.719 1.1 9.32.47 13.781 10.73 4.289 19.42 6.442 26.09 6.442 10.6 0 14.76-5.711 12.47-17.122-1.43-7.199-4.36-16.449-8.77-27.722l-10.86-27.578c33.14 49.668 59.08 74.511 77.81 74.511 13.42 0 18.18-9.812 14.26-29.402-1.13-5.551-3.45-13.07-6.98-22.559-3.95-10.679-6.49-18.191-7.57-22.55 33.21 49.668 59.37 74.511 78.41 74.511 13.63 0 18.6-9.16 14.93-27.48-1.08-5.383-4.47-15.922-10.19-31.602-19.07-52.039-29.78-83.918-32.1-95.59-2.28-11.289-1.92-20.539 1-27.75-9.83-6.66-18.62-9.98-26.37-9.98-13.26 0-18.23 8.25-14.94 24.719 2.68 13.39 7.6 29.82 14.77 49.32 16 43.891 24.45 68.031 25.32 72.402.68 3.36.08 5.051-1.77 5.051-4.84 0-19.3-18.023-43.4-54.031-24.12-36-37.93-62.84-41.47-80.52-.81-4.011-1.09-8.371-.85-13.109zm-184.25 27.977c-4.24-21.219 1.45-31.809 17.12-31.809 8.44 0 16.64 3.469 24.55 10.371-1.83 9.848-1.46 21.25 1.15 34.258 3.62 18.133 10.91 42.434 21.86 72.91 10.96 30.492 20.41 52.34 28.39 65.52-7.25 4.843-15.17 7.254-23.79 7.254-7.11 0-13.25-2.782-18.43-8.344-6.95 6.961-15.86 10.433-26.72 10.433-22.01 0-44.03-15.691-66.06-47.101-22-31.442-36.33-63.66-42.95-96.719-6.75-33.781-.36-50.68 19.23-50.68 18.9 0 44.51 24.969 76.85 74.86-5.29-16.391-9.03-30.02-11.2-40.953zm-5.87 43.711c-16.95-24.461-27.68-36.7-32.21-36.7-4.9 0-6.01 6.692-3.32 20.059 3.98 19.98 12 42.43 24.06 67.391 12.05 24.96 22.88 37.46 32.45 37.46 8.47 0 15.57-7.16 21.33-21.441-11.29-20.059-25.4-42.328-42.31-66.769zm-168.64 42.261c28.42 47.199 53.24 70.778 74.46 70.778 15.56 0 21.4-9.758 17.51-29.239-2.74-13.578-9.41-33.871-20.05-60.89-10.63-26.989-17.32-47.309-20.05-60.981-2.26-11.219-1.88-20.367 1.06-27.469-9.86-6.66-18.95-9.98-27.26-9.98-13.96 0-19.28 8.25-15.99 24.742 2.56 12.758 9.05 32.688 19.49 59.758 10.42 27.07 16.7 45.941 18.84 56.59 1.01 5.07.29 7.59-2.16 7.59-6.91 0-21.5-17.93-43.76-53.778-22.27-35.839-35.04-62.031-38.35-78.601-.7-3.469-.9-7.621-.6-12.469-8.09-2.551-15.64-3.832-22.7-3.832-12.74 0-17.99 5.652-15.74 16.941 1.44 7.2 4.73 17.02 9.83 29.489 7.66 18.66 11.73 28.582 12.2 29.781l46.54 129.32c7.32 20.219 12 35.461 14.06 45.758.6 2.992.92 6.922.93 11.742 9.75 6.278 18.65 9.43 26.72 9.43 11.55 0 16.14-5.949 13.76-17.871-1.29-6.461-25.93-75.828-48.74-136.809zm-93.62-50.101c.11-8.508-.05-13.891-.49-16.11-2.82-14.058-15.67-26.808-38.59-38.25-22.9-11.441-42.37-17.16-58.43-17.16-39.48 0-53.78 27.18-42.89 81.559 10.44 52.14 32.07 99.211 64.92 141.16 32.84 41.992 67 62.992 102.44 62.992 31.77 0 45.72-9.699 41.84-29.09-2.18-10.859-13-24.312-32.43-40.39-1.67 27.781-10.86 41.679-27.61 41.679-18.5 0-36.77-16.941-54.81-50.84-18.03-33.929-30.86-69.968-38.51-108.23-7.96-39.73-1.44-59.598 19.53-59.598 16.4 0 38.08 10.758 65.03 32.278z"/></clipPath></defs><path d="m304.743 12.954 52.473 61.54c-14.004 17.002-32.617 26.36-52.473 26.36-19.855 0-38.469-9.358-52.472-26.36l52.472-61.54" style="fill:#314093;fill-opacity:1;fill-rule:nonzero;stroke:none;stroke-width:.1" transform="matrix(5.15772 0 0 -5.15772 -1188.882 566.813)"/><path d="M351.911 74.777c-12.921 14.33-29.673 22.228-47.168 22.241-17.472.012-34.223-7.885-47.168-22.241l-.404-.449.392-.46 44.432-52.186c.109.537.321 1.017.608 1.413l-43.595 51.203c12.621 13.777 28.839 21.352 45.734 21.34 16.918-.011 33.135-7.587 45.736-21.34l-43.874-51.532c.255-.452.421-.991.468-1.576l44.852 52.678.392.46-.405.449" style="fill:#1ea14b;fill-opacity:1;fill-rule:nonzero;stroke:none;stroke-width:.1" transform="matrix(5.15772 0 0 -5.15772 -1188.882 566.813)"/><path d="m257.08 92.872 1.109.914.528-3.39 3.654-1.687-1.136-.936-3.298 1.65-.014-.01 2.143-2.602-1.007-.83-4.183 5.075 1.008.832 1.79-2.174.014.011-.608 3.147M267.512 92.151c1.814 1.165.907 2.575-.024 4.024-.94 1.464-1.836 2.859-3.648 1.694-1.814-1.165-.917-2.56.022-4.023.93-1.45 1.837-2.86 3.65-1.695zm-.531.827c-.62-.398-1.094.165-2.004 1.583-.911 1.417-1.224 2.083-.605 2.48.618.396 1.091-.165 2.003-1.582.91-1.419 1.225-2.082.606-2.48M273.191 98.622l.303.147c.904.438 1.131-.19 1.475-.895.185-.385.35-.801.68-1.087l1.153.56c-.229.193-.792 1.295-.977 1.673-.516 1.064-1.31.759-1.584.668l-.008.017c.7.501.707 1.204.34 1.957-.49 1.007-1.265 1.299-2.068.91l-2.172-1.055 2.871-5.916 1.176.57zm-1.241 2.557.521.252c.374.182.704.079.979-.487.182-.377.287-.933-.178-1.159l-.522-.254-.8 1.648M280.822 98.992l-2.176 6.207 3.217 1.129.335-.956-1.985-.695.538-1.53 1.828.642.335-.955-1.83-.643.637-1.812 2.051.72.334-.956-3.284-1.15M289.074 101.523l.033 1.499 1.74.384.652-1.348 1.344.296-3.071 6.056-1.684-.37-.273-6.795zm1.285 2.81-1.217-.267-.029 2.905.017.003 1.229-2.641M296.892 102.952l-.549 6.553 1.76.149 2.035-4.401.017.002-.381 4.539 1.217.102.549-6.556-1.717-.143-2.099 4.652-.018-.002.401-4.793-1.215-.102M313.261 102.718c-1.605.211-1.775 1.245-1.557 2.365l1.296-.172c-.083-.623-.126-1.15.587-1.243.437-.058.691.213.749.654.154 1.174-2.443 1.591-2.187 3.532.133 1.02.704 1.773 2.282 1.564 1.262-.165 1.809-.845 1.544-2.197l-1.261.166c.064.488.053.995-.471 1.064-.421.056-.701-.155-.761-.607-.163-1.239 2.459-1.473 2.19-3.524-.223-1.688-1.425-1.733-2.411-1.602M319.784 101.678l1.627 6.373 3.304-.845-.251-.978-2.037.518-.402-1.57 1.879-.48-.251-.978-1.878.479-.475-1.862 2.105-.539-.251-.979-3.37.861M329.473 101.58l.315-.12c.938-.359.634-.957.354-1.687-.154-.401-.346-.805-.328-1.242l1.196-.458c-.016.299.405 1.463.555 1.856.423 1.105-.342 1.477-.595 1.613l.006.018c.843-.168 1.36.307 1.66 1.089.401 1.047.083 1.813-.748 2.131l-2.255.867-2.357-6.143 1.221-.467zm1.018 2.653.541-.208c.387-.148.537-.459.313-1.046-.15-.392-.484-.848-.969-.663l-.541.208.656 1.709M334.974 96.235l2.963 5.874 1.167-.588-2.963-5.874-1.167.588M340.203 93.401l3.512 5.561 2.883-1.821-.539-.856-1.779 1.124-.866-1.37 1.64-1.036-.541-.855-1.639 1.036-1.026-1.626 1.836-1.16-.539-.855-2.942 1.858M347.951 87.866c-1.264 1.011-.874 1.983-.108 2.828l1.019-.815c-.391-.492-.701-.92-.141-1.369.345-.276.701-.177.98.172.74.926-1.268 2.625-.045 4.154.645.804 1.522 1.152 2.765.158.993-.795 1.111-1.66.184-2.681l-.994.796c.307.383.559.824.148 1.153-.331.266-.681.231-.966-.125-.78-.974 1.343-2.533.05-4.148-1.065-1.329-2.115-.746-2.892-.123" style="fill:#314093;fill-opacity:1;fill-rule:nonzero;stroke:none;stroke-width:.1" transform="matrix(5.15772 0 0 -5.15772 -1188.882 566.813)"/><path d="m249.069 46.264-.001-.001-.031 2.218s-3.752-3.125-6.385-4.239c-2.109-.89-2.664-.277-2.058 2.746a37.504 37.504 0 0 0 3.646 10.248c.811 1.523 1.51 2.466 2.077 3.047 1.13 1.161 2.077.781 2.306-.29l.944-4.413 2.401 1.943a22.022 22.022 0 0 1 1.718 1.57zm126.74 11.47c-1.105 1.347-3.121 1.502-4.541 1.502-2.335 0-4.427-.774-6.219-2.3a9.746 9.746 0 0 1-2.152-2.59c.197 1.475-.067 2.67-.79 3.55-.5.613-1.453 1.34-3.138 1.34-1.319 0-2.652-.546-4.036-1.67-.067.1-.134.195-.203.279-.442.54-1.286 1.182-2.793 1.182-.994 0-2.126-.26-3.457-.794l-1.529-.614.235-1.628a2.13 2.13 0 0 0-.037-.712 18.987 18.987 0 0 0-.441-1.687 7.23 7.23 0 0 1-.889 2.764c-1.084 1.884-2.866 2.88-5.152 2.88-2.984 0-5.832-1.615-8.461-4.802-.165-.2-.324-.4-.479-.602.13.4.23.766.298 1.102.244 1.212-.042 2.065-.395 2.621.24.104.484.218.737.35l.574.3.305.574c.598 1.127.939 1.959 1.072 2.622.284 1.416-.169 2.337-.598 2.862-.436.531-1.273 1.166-2.782 1.166-.95 0-2.047-.263-3.358-.802l-1.653-.678.376-1.595a10.09 10.09 0 0 0-.181-.536c-.205-.565-.334-.99-.401-1.329-.139-.687-.053-1.348.237-1.916a13.528 13.528 0 0 1-1.101-.406l-1.948-.796c-.095.152-.196.3-.31.44-.533.651-1.523 1.425-3.21 1.425-1.273 0-2.585-.568-4.013-1.768a3.054 3.054 0 0 1-.26.37c-.444.544-1.29 1.189-2.798 1.189-1.055 0-2.213-.295-3.543-.903l-1.746-.774a3.403 3.403 0 0 1-.406.631c-.47.573-1.35 1.255-2.883 1.255-1.406 0-2.865-.677-4.473-2.11a3.518 3.518 0 0 1-.52.869c-.465.566-1.33 1.24-2.819 1.24-1.283 0-2.617-.576-4.073-1.796a2.972 2.972 0 0 1-.294.43c-.433.529-1.25 1.158-2.698 1.158-.943 0-2.05-.259-3.387-.794l-1.013-.404-.189.123a6.282 6.282 0 0 1-3.538 1.075c-.65 0-1.269-.13-1.842-.387-.8.393-1.701.596-2.673.596-2.915 0-5.714-1.884-8.322-5.604-.121-.174-.239-.349-.357-.523.024.106.047.21.067.312.346 1.731.112 3.11-.697 4.099-.498.606-1.441 1.331-3.109 1.331a5.43 5.43 0 0 1-2.018-.4c.801 2.262 1.413 4.064 1.501 4.496.313 1.563-.163 2.55-.617 3.105-.446.544-1.296 1.191-2.814 1.191-1.21 0-2.491-.429-3.808-1.277l-.465-.301a3.953 3.953 0 0 1-.426.646c-1.034 1.259-2.821 1.872-5.465 1.872-4.208 0-8.209-2.39-11.895-7.102a35.384 35.384 0 0 1-6.897-14.998c-.772-3.858-.411-6.636 1.105-8.485 1.185-1.446 2.948-2.178 5.24-2.178 1.954 0 4.172.634 6.78 1.936 1.053.528 1.936 1.089 2.659 1.689.018-.938.37-1.592.71-2.006.461-.563 1.358-1.234 3.008-1.234.914 0 1.889.161 2.9.479l1.563.492-.101 1.637c-.025.393.003.608.023.707.065.32.193.755.428 1.346-.217-1.396.025-2.533.724-3.386.477-.58 1.382-1.275 2.986-1.275 1.253 0 2.563.456 3.898 1.354l.759.512c.126-.229.268-.443.431-.644.536-.653 1.532-1.43 3.231-1.43 1.482 0 3.011.756 4.698 2.366.133-.3.304-.578.51-.83.498-.606 1.434-1.328 3.069-1.328 1.318 0 2.569.49 3.719 1.458l.18-.245c.454-.555 1.328-1.213 2.921-1.213.852 0 1.764.157 2.787.483l2.134.673c.444-.533 1.284-1.156 2.781-1.156.897 0 1.854.163 2.842.485l1.526.5-.082 1.602c-.015.298 0 .562.045.793.076.376.236.898.549 1.617l-.003-.018c-.313-1.562-.093-2.818.656-3.732.468-.569 1.348-1.247 2.892-1.247.751 0 1.513.17 2.303.513a8.425 8.425 0 0 1-.195-.767c-.308-1.548.163-2.528.614-3.077.442-.538 1.284-1.181 2.787-1.181 1.022 0 2.18.31 3.543.951l1.06.498.13 1.164c.086.77.159 1.204.206 1.438.036.177.096.431.198.792a6.477 6.477 0 0 1 1.434-.155c2.875 0 5.64 1.828 8.217 5.433.115.162.228.327.342.49a16.744 16.744 0 0 1-.27-1.118c-.306-1.526-.081-2.766.672-3.684.484-.592 1.409-1.297 3.061-1.297 1.226 0 2.528.455 3.869 1.354l1.787 1.221c.773-1.28 2.296-2.784 5.196-2.784 2.944 0 5.77 1.626 8.393 4.836l.137.172a8.69 8.69 0 0 1-.143-.6c-.293-1.467.176-2.423.621-2.965.673-.82 1.686-1.234 3.014-1.234.914 0 1.891.161 2.903.479l1.563.492-.101 1.637c-.024.393.005.614.024.712.078.395.227.913.494 1.588-.286-1.51-.059-2.731.678-3.633.478-.58 1.383-1.275 2.986-1.275 1.243 0 2.544.449 3.867 1.337.923-1.04 2.458-1.546 4.686-1.546 2.52 0 4.773.826 6.69 2.456 1.901 1.612 3.137 3.79 3.673 6.471.381 1.9.111 3.58-.804 4.992l-.094.145-.116.127-.026.027 1.598 1.214c1.701 1.294 2.67 2.632 2.964 4.097.192.963-.028 1.888-.619 2.609" style="fill:#282d5c;fill-opacity:1;fill-rule:nonzero;stroke:none;stroke-width:.1" transform="matrix(5.15772 0 0 -5.15772 -1188.882 566.813)"/><g clip-path="url(#a)" transform="matrix(.51577 0 0 -.51577 -1188.882 566.813)"><path d="M3618.14 432.871c1.33-20.98 8.77-31.469 22.38-31.469 13.8 0 22.46 8.719 25.96 26.188 1.84 9.223-6.37 23.922-24.61 44.101-5.97 9.129-7.65 20.18-5.04 33.149 4.07 20.351 13.13 36.539 27.23 48.562 14.1 11.989 30.29 18 48.62 18 22.82 0 33.18-5.339 31.05-16.05-1.88-9.313-9.14-18.793-21.77-28.383-6.17 14.933-13.41 22.402-21.75 22.402-11.77 0-19.16-7.629-22.23-22.891-1.59-8.039.86-15.66 7.4-22.89 5.99-6.559 11.99-13.18 18.05-19.84 6.09-9.41 7.79-20.879 5.1-34.379-4.46-22.211-14.37-39.832-29.75-52.871-15.39-13.078-33.17-19.598-53.35-19.598-25.85 0-37.26 7.5-34.26 22.528 2.26 11.269 11.25 22.441 26.97 33.441zm-104.72 63.891c30.08 49.769 55.5 74.64 76.27 74.64 15.78 0 21.72-9.754 17.82-29.273-2.77-13.867-9.67-34.777-20.7-62.758-11.02-27.98-17.92-48.949-20.73-62.91-2.24-11.211-1.88-20.359 1.07-27.481-9.86-6.66-18.93-9.98-27.25-9.98-13.94 0-19.25 8.25-15.95 24.762 2.44 12.218 6.95 27.367 13.51 45.437 16.55 45.543 25.28 70.614 26.2 75.172 1 5 .25 7.5-2.31 7.5-4.83 0-19.02-17.832-42.49-53.5-23.51-35.66-37.21-63.359-41.11-83.062-.68-3.457-.89-7.61-.59-12.477-8.09-2.551-15.67-3.832-22.73-3.832-12.79 0-18.05 5.652-15.8 16.941 1.18 5.821 3.58 13.207 7.21 22.141l8.81 21.859c21.24 54.098 33.71 90.329 37.39 108.739 1.01 5.011 1.2 9.73.57 14.191 10.66 4.289 19.6 6.442 26.76 6.442 11.29 0 15.79-5.75 13.5-17.211-1.28-6.411-7.76-24.852-19.45-55.34zm-111.51-79.192c22.18 27.149 36.46 56.59 42.82 88.371 3.85 19.25 2.27 34.989-4.72 47.18-7 12.18-18.1 18.281-33.34 18.281-23.41 0-46.22-13.472-68.44-40.39-22.22-26.953-36.53-56.461-42.95-88.5-3.95-19.731-2.37-35.59 4.74-47.614 7.1-11.976 18.5-17.996 34.19-17.996 22.95 0 45.53 13.567 67.7 40.668zm-65.22 22.192c4.78 23.801 12.76 47.14 23.97 70.051 11.21 22.859 22.08 34.308 32.6 34.308 11.44 0 14.78-11.859 10.02-35.582-4.65-23.25-12.58-46.437-23.72-69.598-11.15-23.179-21.88-34.75-32.2-34.75-11.85 0-15.41 11.872-10.67 35.571zm-22.74 157.867c-8.89-4.649-16.65-6.977-23.28-6.977-9.96 0-14.27 3.36-12.91 10.129.44 2.27 1.5 5.68 3.16 10.25 1.65 4.551 2.7 7.969 3.17 10.25.31 1.551.2 3.418-.32 5.621 10.45 4.289 18.99 6.418 25.61 6.418 10.86 0 15.27-5.058 13.25-15.179-.9-4.481-3.79-11.309-8.68-20.512zm-57.3-35.309c11.16 4.66 20.92 6.993 29.32 6.993 11.26 0 15.85-5.282 13.73-15.852-.95-4.731-2.82-10.512-5.61-17.34-24.26-59.101-38.54-99.379-42.83-120.871-2.08-10.379-1.6-19.148 1.44-26.25-9.96-6.68-18.95-10-27.01-10-14.49 0-20.08 8.25-16.77 24.719 2.85 14.32 10.77 37.902 23.72 70.781 12.96 32.859 20.86 56.469 23.72 70.762 1.15 5.75 1.24 11.429.29 17.058zM3068.6 357.551c1.43 7.14 4.76 18.25 10.02 33.328 7.11-6.758 16.08-10.129 26.85-10.129 21.69 0 43.41 15.191 65.13 45.59 21.72 30.379 35.8 61.711 42.27 94 6.8 34.051.48 51.062-18.98 51.062-18.65 0-44.26-24.922-76.81-74.73 11.74 29.547 18.3 47.777 19.68 54.707 2.4 11.953-2.13 17.934-13.58 17.934-7.43 0-16.32-2.391-26.71-7.122.18-4.839-.11-9.121-.85-12.859-2.15-10.762-6.92-26.211-14.21-46.383l-42.19-116.129c-.02-.09-2.4-5.98-7.12-17.66-2.92-7.101-4.85-13.031-5.79-17.758-2.33-11.691 2.14-17.523 13.45-17.523 6.99 0 15.83 2.512 26.5 7.531.77 6.832 1.54 12.219 2.34 16.141zm63.8 133.609c18.36 26.211 29.64 39.332 33.88 39.332 4.79 0 5.87-6.73 3.18-20.191-3.97-19.75-11.73-41.5-23.34-65.25-11.62-23.742-22.18-35.621-31.74-35.621-8.44 0-15.5 7.082-21.19 21.269 7.77 14.114 20.86 34.25 39.21 60.461zm-210.07-108.328c-7.78-2.551-15.08-3.832-21.91-3.832-11.15 0-15.62 5.391-13.5 16.141.85 4.172 3.87 13.089 9.05 26.75 22.43 58.73 34.69 93.25 36.75 103.531.66 3.359.06 5.07-1.79 5.07-4.92 0-19.49-18.023-43.67-54.012-24.19-36.011-38.06-62.832-41.6-80.48-.81-4-1.04-8.391-.74-13.16-8.05-2.559-15.24-3.84-21.52-3.84-12.15 0-17.07 5.652-14.82 16.941 1.19 5.93 3.55 13.301 7.08 22.141 26.88 67.02 42.36 110.688 46.41 131.008.96 4.719 1.1 9.32.47 13.781 10.73 4.289 19.42 6.442 26.09 6.442 10.6 0 14.76-5.711 12.47-17.122-1.43-7.199-4.36-16.449-8.77-27.722l-10.86-27.578c33.14 49.668 59.08 74.511 77.81 74.511 13.42 0 18.18-9.812 14.26-29.402-1.13-5.551-3.45-13.07-6.98-22.559-3.95-10.679-6.49-18.191-7.57-22.55 33.21 49.668 59.37 74.511 78.41 74.511 13.63 0 18.6-9.16 14.93-27.48-1.08-5.383-4.47-15.922-10.19-31.602-19.07-52.039-29.78-83.918-32.1-95.59-2.28-11.289-1.92-20.539 1-27.75-9.83-6.66-18.62-9.98-26.37-9.98-13.26 0-18.23 8.25-14.94 24.719 2.68 13.39 7.6 29.82 14.77 49.32 16 43.891 24.45 68.031 25.32 72.402.68 3.36.08 5.051-1.77 5.051-4.84 0-19.3-18.023-43.4-54.031-24.12-36-37.93-62.84-41.47-80.52-.81-4.011-1.09-8.371-.85-13.109zm-184.25 27.977c-4.24-21.219 1.45-31.809 17.12-31.809 8.44 0 16.64 3.469 24.55 10.371-1.83 9.848-1.46 21.25 1.15 34.258 3.62 18.133 10.91 42.434 21.86 72.91 10.96 30.492 20.41 52.34 28.39 65.52-7.25 4.843-15.17 7.254-23.79 7.254-7.11 0-13.25-2.782-18.43-8.344-6.95 6.961-15.86 10.433-26.72 10.433-22.01 0-44.03-15.691-66.06-47.101-22-31.442-36.33-63.66-42.95-96.719-6.75-33.781-.36-50.68 19.23-50.68 18.9 0 44.51 24.969 76.85 74.86-5.29-16.391-9.03-30.02-11.2-40.953zm-5.87 43.711c-16.95-24.461-27.68-36.7-32.21-36.7-4.9 0-6.01 6.692-3.32 20.059 3.98 19.98 12 42.43 24.06 67.391 12.05 24.96 22.88 37.46 32.45 37.46 8.47 0 15.57-7.16 21.33-21.441-11.29-20.059-25.4-42.328-42.31-66.769zm-168.64 42.261c28.42 47.199 53.24 70.778 74.46 70.778 15.56 0 21.4-9.758 17.51-29.239-2.74-13.578-9.41-33.871-20.05-60.89-10.63-26.989-17.32-47.309-20.05-60.981-2.26-11.219-1.88-20.367 1.06-27.469-9.86-6.66-18.95-9.98-27.26-9.98-13.96 0-19.28 8.25-15.99 24.742 2.56 12.758 9.05 32.688 19.49 59.758 10.42 27.07 16.7 45.941 18.84 56.59 1.01 5.07.29 7.59-2.16 7.59-6.91 0-21.5-17.93-43.76-53.778-22.27-35.839-35.04-62.031-38.35-78.601-.7-3.469-.9-7.621-.6-12.469-8.09-2.551-15.64-3.832-22.7-3.832-12.74 0-17.99 5.652-15.74 16.941 1.44 7.2 4.73 17.02 9.83 29.489 7.66 18.66 11.73 28.582 12.2 29.781l46.54 129.32c7.32 20.219 12 35.461 14.06 45.758.6 2.992.92 6.922.93 11.742 9.75 6.278 18.65 9.43 26.72 9.43 11.55 0 16.14-5.949 13.76-17.871-1.29-6.461-25.93-75.828-48.74-136.809zm-93.62-50.101c.11-8.508-.05-13.891-.49-16.11-2.82-14.058-15.67-26.808-38.59-38.25-22.9-11.441-42.37-17.16-58.43-17.16-39.48 0-53.78 27.18-42.89 81.559 10.44 52.14 32.07 99.211 64.92 141.16 32.84 41.992 67 62.992 102.44 62.992 31.77 0 45.72-9.699 41.84-29.09-2.18-10.859-13-24.312-32.43-40.39-1.67 27.781-10.86 41.679-27.61 41.679-18.5 0-36.77-16.941-54.81-50.84-18.03-33.929-30.86-69.968-38.51-108.23-7.96-39.73-1.44-59.598 19.53-59.598 16.4 0 38.08 10.758 65.03 32.278" style="fill:url(#b);fill-opacity:1;fill-rule:nonzero;stroke:none"/></g><path d="m316.494 82.318-.702.265-1.091.413v-2.785l-1.145 2.27-.057.118-.009.016-.116.231-.18.354-.389.073-.252.049c-.01.001-.957.181-2.016.336-1.078.161-2.375.26-2.43.263l-.559.04-.865.065V81.39c-.09.103-.181.206-.276.303-1.447 1.505-3.307 2.333-5.239 2.333-2.221 0-4.232-1.09-5.679-2.845v2.156l-1.054-.345-.681-.223a72.578 72.578 0 0 1-3.198-1.134 39.84 39.84 0 0 1-2.909-1.278l-.29-.143-.45-.222V77.334s1.071.454 1.071-.406v-5.43s-1.055-1.13-2.731-1.13l-.174.001v10.653c0 1.039 1.116 1.039 1.116 1.039v2.701h-8.823v-2.701s1.147.064 1.147-1.04V69.28c0-1.218-1.147-1.347-1.147-1.347V65.42H295.489v2.438c.144-.17.288-.339.441-.499 1.447-1.505 3.306-2.334 5.238-2.334 1.932 0 3.792.829 5.239 2.334.119.125.235.254.347.387-.069-.2-.071-.434-.071-.664v-1.658H314.585V67.454c1.615-2 4.083-2.497 4.946-2.497H321.154V65.787l.041-.021.138-.067.453-.22c2.598-1.26 5.274-1.222 7.341.1 1.944 1.24 3.034 3.451 2.992 6.064-.031 2.273-1.103 4.148-3.097 5.427l-1.178.789c-.471.312-1.493.872-1.234 1.31.146.247.52-.05.871-.316l2.019-1.536 1.293-.982v7.343l-2.24.752c-2.16.71-4.433.418-6.089-.78a5.702 5.702 0 0 1-2.092-2.906c-.35.164-.753.35-1.073.483a76.16 76.16 0 0 1-2.317.887l-.488.204" style="fill:#1ea14b;fill-opacity:1;fill-rule:nonzero;stroke:none;stroke-width:.1" transform="matrix(5.15772 0 0 -5.15772 -1188.882 566.813)"/><path d="M300.306 78.786c.286.3.576.45.862.45.286 0 .576-.15.863-.45.795-.826 1.308-2.524 1.308-4.326 0-2.731-1.147-4.773-2.171-4.773-.286 0-.576.152-.862.449-.795.83-1.308 2.524-1.308 4.324 0 1.802.513 3.5 1.308 4.326zm5.521 2.283c-1.295 1.347-2.948 2.088-4.659 2.088-3.946 0-7.158-3.9-7.158-8.697 0-2.544.912-4.954 2.501-6.606 1.294-1.346 2.948-2.088 4.657-2.088 1.711 0 3.364.742 4.659 2.088 1.589 1.654 2.499 4.062 2.499 6.606 0 2.548-.91 4.956-2.499 6.61" style="fill:#314093;fill-opacity:1;fill-rule:nonzero;stroke:none;stroke-width:.1" transform="matrix(5.15772 0 0 -5.15772 -1188.882 566.813)"/><path d="m293.788 68.696.003.188v10.422c0 .594.52 1.189.72 1.368l.174.154v1.333l-.68-.223a66.423 66.423 0 0 1-3.158-1.118c-1.441-.56-2.787-1.223-2.844-1.25l-.29-.143V78.166s1.069.29 1.069-.655v-6.375s-.427-.59-1.269-.994c-.012-.007-1.13-.634-2.26-.646-.405 0-.681.014-.985.082v12.093c0 .592.729.85.76.86l.352.121.003.371v.87h-7.212V82.62l.392-.099c.074-.02.754-.224.754-.85v-13.22c0-.619-.807-.945-.815-.95l-.327-.13-.004-.353V66.16h16.514v1.326l-.446.063s-.451.125-.451 1.147" style="fill:#314093;fill-opacity:1;fill-rule:nonzero;stroke:none;stroke-width:.1" transform="matrix(5.15772 0 0 -5.15772 -1188.882 566.813)"/><path d="M328.546 76.356h-.002zM324.193 73.183h.001z" style="fill:#fff;fill-opacity:1;fill-rule:nonzero;stroke:none;stroke-width:.1" transform="matrix(5.15772 0 0 -5.15772 -1188.882 566.813)"/><path d="m328.546 76.356-.539.378-.596.38c-1.623 1.07-1.637 1.8-1.509 2.256a.676.676 0 0 0 .432.484c.622.265 1.35-.208 1.635-.423l.714-.544.471-.359.833-.634V83.034l-.354.12-.2.066-1.136.383c-1.913.627-3.914.376-5.362-.671-.988-.716-1.654-1.76-1.929-2.987 0 0-.097-.202-.107-.42l-.11.056c-.189.095-1.166.574-1.8.837a88.55 88.55 0 0 1-2.288.894l-.492.188-.703.266V80.39s.883-.505.883-1.602v-3.786l-3.552 7.053-.067.135-.115.226-.253.049c-.008.002-.944.18-1.983.333-1.05.153-2.318.25-2.371.256l-.559.04V81.82l.338-.124c.015-.01.744-.363.744-2.091V68.858c0-1.032-.668-1.323-.744-1.352l-.331-.131-.007-.357v-.853h6.29v1.096l-.239.154-.294.188c-.15.143-.214.221-.3.36-.187.295-.24.49-.24.882v3.653l1.851-3.58c1.311-2.672 4.258-3.219 4.974-3.219H320.351v11.733c0 .959.491.797.491.797l.017-.557c.244-2.077 1.408-3.197 3.334-4.489l.606-.413.626-.422c.692-.507.954-.828 1.015-1.598.026-.374-.078-.7-.303-.945-.245-.265-.608-.409-1.023-.409-.629 0-1.277.252-1.893.76l-.562.495-2.43 2 1.079-6.107.244-.118.136-.07.451-.22c2.34-1.13 4.728-1.111 6.554.057 1.706 1.086 2.66 3.045 2.621 5.372-.028 2.06-.998 3.67-2.768 4.791" style="fill:#314093;fill-opacity:1;fill-rule:nonzero;stroke:none;stroke-width:.1" transform="matrix(5.15772 0 0 -5.15772 -1188.882 566.813)"/><path d="M289.577 83.073c-.855-.356-1.225.08-1.428.667l.691.288c.132-.314.256-.576.636-.415.234.097.285.295.192.519-.25.597-1.656.051-2.068 1.034-.216.518-.142 1.034.701 1.387.675.281 1.134.118 1.377-.592l-.672-.28c-.104.246-.25.48-.53.364-.223-.095-.305-.273-.209-.503.261-.626 1.63.011 2.065-1.028.358-.858-.227-1.22-.755-1.441M293.237 87.464l-.008-.004.083-1.581.689.19zm-.617-3.173-.002 3.717.95.263 1.897-3.19-.761-.21-.402.71-.986-.273.016-.818-.712-.199M297.509 85.516l-.468 3.55 1.196.158.873-2.342h.011l.274 2.494 1.156.152.467-3.553-.723-.095-.361 2.741h-.009l-.324-2.832-.71-.093-1.008 2.655h-.012l.361-2.74-.723-.095M304.357 86.018c-.927 0-1.1.548-1.059 1.167h.749c0-.344.015-.632.426-.632.253 0 .376.163.378.406.002.645-1.508.688-1.504 1.753.001.562.269 1.008 1.181 1.006.73-.002 1.091-.329 1.04-1.079l-.73.002c.002.266-.042.54-.345.542-.244 0-.386-.134-.387-.383-.001-.68 1.504-.622 1.504-1.748-.002-.929-.683-1.035-1.253-1.034M310.751 89.197l-.308-2.522c-.064-.53-.433-1.058-1.338-.946-.818.1-1.162.57-1.079 1.24l.308 2.523.743-.09-.302-2.473c-.052-.439.114-.634.385-.666.324-.041.499.158.548.553l.301 2.472.742-.091M312.658 85.206l.889 3.471.98-.253.308-2.637.01-.004.615 2.404.676-.174-.888-3.469-.957.245-.297 2.778-.009.004-.65-2.537-.677.172M319.963 85.481c.129.306.187.598-.181.747-.433.172-.669-.41-.926-1.056-.42-1.04-.392-1.265.003-1.424.116-.047.25-.068.371-.075l.297.736-.378.154.206.51 1.073-.432-.678-1.684c-.205.04-.708.155-.984.27-1.169.468-1.108 1.003-.6 2.267.336.837.722 1.671 1.857 1.215.681-.274.952-.829.63-1.505l-.69.277M301.168 69.168c-.432 0-.848.204-1.237.608-.895.933-1.453 2.73-1.453 4.684 0 1.958.558 3.754 1.453 4.686.389.405.805.61 1.237.61.434 0 .85-.205 1.238-.61.897-.932 1.451-2.728 1.451-4.686 0-2.867-1.231-5.292-2.689-5.292zm6.638 5.292c0 2.414-.857 4.691-2.355 6.25-1.194 1.243-2.716 1.93-4.283 1.93-3.66 0-6.638-3.669-6.638-8.18 0-2.413.858-4.69 2.357-6.247 1.192-1.243 2.714-1.927 4.281-1.927 1.567 0 3.089.684 4.283 1.927 1.498 1.557 2.355 3.834 2.355 6.247M288.142 69.383l.184.71-.624-.388s-1.143-.716-2.442-.728c-.625 0-.983.034-1.512.208v12.486c0 .985 1.116 1.352 1.116 1.352v.349h-6.173v-.348s1.147-.293 1.147-1.353v-13.22c0-.993-1.147-1.433-1.147-1.433v-.338h8.739l.122.427.59 2.276" style="fill:#fff;fill-opacity:1;fill-rule:nonzero;stroke:none;stroke-width:.1" transform="matrix(5.15772 0 0 -5.15772 -1188.882 566.813)"/><path d="M288.232 79.104v-.339s1.07.152 1.07-.85v-9.42c0-.491-.107-.783-.376-1.045a1.05 1.05 0 0 0-.292-.21l-.399-.169v-.39h5.931v.356s-.896.127-.896 1.66l.001.192v10.417c0 .969.895 1.756.895 1.756v.383s-1.697-.552-3.133-1.111c-1.433-.555-2.801-1.23-2.801-1.23M328.325 75.915l-1.193.764c-1.457.957-2.008 1.859-1.729 2.834.126.431.376.671.729.821.815.346 1.688-.142 2.151-.49l.715-.544.47-.358v3.72l-.2.066-1.138.382c-1.749.575-3.576.35-4.89-.598-1.061-.77-1.707-1.938-1.836-3.339l-.025-.583c.008-2.482 1.01-3.578 3.084-4.969l1.253-.843c.79-.579 1.168-1.03 1.24-1.989.086-1.135-.755-1.914-1.842-1.914-.777 0-1.446.29-2.13.856l-1.295 1.024-.703.555.794-4.419.136-.07.451-.218c2.171-1.05 4.375-1.039 6.047.028 1.548.988 2.416 2.782 2.38 4.926-.026 1.873-.856 3.34-2.469 4.358M318.789 79.94c-.753.312-2.256.882-2.27.888l-.494.184v-.372s.884-.696.884-1.852v-5.973l-4.536 9.007-.066.133s-.921.175-1.964.327c-1.041.155-2.335.251-2.335.251v-.352s1.085-.404 1.085-2.577V68.858c0-1.456-1.085-1.84-1.085-1.84v-.333h5.253v.294l-.338.214a2.162 2.162 0 0 0-.417.494c-.239.378-.321.67-.321 1.158v5.79l2.833-5.478c1.186-2.415 3.906-2.939 4.513-2.939h.298v11.214c0 1.045.413 1.315.704 1.315l.026.368c-.199.1-1.153.568-1.77.824" style="fill:#fff;fill-opacity:1;fill-rule:nonzero;stroke:none;stroke-width:.1" transform="matrix(5.15772 0 0 -5.15772 -1188.882 566.813)"/><path d="M321.154 72.931v1.905c.62-.815 1.478-1.506 2.554-2.232l1.25-.849c.581-.426.869-.867.587-1.338-.282-.47-1.352.048-1.806.42l-1.816 1.487-.769.607M299.804 74.328c0-1.58.434-3.092 1.083-3.766a.38.38 0 0 1 .565 0c.646.674 1.081 2.186 1.081 3.766v.198c0 1.578-.435 3.092-1.081 3.767a.38.38 0 0 1-.565 0c-.649-.675-1.083-2.19-1.083-3.767v-.198" style="fill:#314093;fill-opacity:1;fill-rule:nonzero;stroke:none;stroke-width:.1" transform="matrix(5.15772 0 0 -5.15772 -1188.882 566.813)"/><path d="M327.663 28.196c.527 1.48.151 2.478-.258 3.056-.755 1.07-2.198 1.59-4.414 1.59-2.563 0-4.568-.863-5.687-2.383a2.897 2.897 0 0 1-.429.925c-.912 1.292-2.649 1.458-4.061 1.458-2.929 0-4.586-.876-5.811-2.69a2.95 2.95 0 0 1-.496 1.232c-.912 1.292-2.65 1.458-4.062 1.458-2.849 0-4.495-.832-5.71-2.547-.095.397-.26.713-.432.957-.755 1.07-2.199 1.59-4.414 1.59-3.431 0-5.864-1.547-6.509-4.142l-.446-1.798h3.169c-.284-.198-.592-.417-.934-.656l-3.501-2.473-.368-.26-.155-.434-.658-1.85-.686-1.936h11.744l.343.965.379 1.069c.088-.223.2-.438.344-.643 1.078-1.527 3.278-1.527 4-1.527 3.013 0 4.704 1.114 5.85 2.79.08-.45.244-.876.519-1.263 1.077-1.527 3.277-1.527 4.002-1.527 1.883 0 3.25.437 4.29 1.174l-.369-1.038h11.745l.342.965.578 1.626.687 1.934h-2.668c1.948 1.383 3.529 2.835 4.076 4.378" style="fill:#282d5c;fill-opacity:1;fill-rule:nonzero;stroke:none;stroke-width:.1" transform="matrix(5.15772 0 0 -5.15772 -1188.882 566.813)"/><path d="m283.853 20.742.658 1.852c6.175 4.416 7.321 4.927 7.787 6.24.187.526.092 1.023-.746 1.023-1.215 0-1.572-.83-1.813-1.507h-2.953c.487 1.959 2.401 3.045 5.103 3.045 2.535 0 4.01-.74 3.308-2.712-.84-2.368-5.626-5.047-7.667-6.314h5.572l-.579-1.627h-8.67M302.445 31.395c-3.601 0-4.707-1.342-6.135-5.364-1.172-3.3-1.634-5.425 2.301-5.425 3.939 0 4.987 2.125 6.159 5.425 1.429 4.022 1.277 5.364-2.325 5.364zm-.545-1.538c1.256 0 1.057-.618-.093-3.856-1.13-3.18-1.476-3.857-2.648-3.857-1.174 0-1.038.677.092 3.857 1.151 3.238 1.393 3.856 2.649 3.856M312.814 31.395c-3.602 0-4.707-1.342-6.137-5.364-1.172-3.3-1.633-5.425 2.305-5.425 3.935 0 4.984 2.125 6.158 5.425 1.428 4.022 1.277 5.364-2.326 5.364zm-.545-1.538c1.255 0 1.057-.618-.094-3.856-1.13-3.18-1.475-3.857-2.648-3.857-1.171 0-1.037.677.093 3.857 1.151 3.238 1.391 3.856 2.649 3.856M314.955 20.742l.658 1.852c6.177 4.416 7.322 4.927 7.786 6.24.189.526.094 1.023-.746 1.023-1.213 0-1.57-.83-1.811-1.507h-2.952c.486 1.959 2.399 3.045 5.101 3.045 2.534 0 4.01-.74 3.309-2.712-.841-2.368-5.626-5.047-7.668-6.314h5.571l-.578-1.627h-8.67" style="fill:#fff;fill-opacity:1;fill-rule:nonzero;stroke:none;stroke-width:.1" transform="matrix(5.15772 0 0 -5.15772 -1188.882 566.813)"/></svg>