<svg xmlns="http://www.w3.org/2000/svg" xml:space="preserve" width="725.38977" height="500.00006" viewBox="0 0 725.38977 500.00006"><path d="m586.882 134.923-22.959-1-.617 14.023 13.885 14.46-.235 5.538-6.032-.263.231-5.531-7.937-.347-.301 7.018 6.057 6.432 9.473.414 6.79-5.86.46-10.554-13.809-13.885.144-3.434 14.524.628.326-7.639M625.251 143.495l-.322 25.768-5.738-.07.322-25.775zm8.365-1.39-6.067-6.238-10.084-.12-6.586 6.082-.362 28.745 6.447 6.24 9.708.123 6.59-6.079.354-28.752M672.462 143.372l.362 25.771-5.738.078-.365-25.772zm8.33-1.606-6.232-6.075-10.084.144-6.432 6.243.4 28.752 6.611 6.071 9.715-.133 6.426-6.25-.404-28.752M728.014 139.938l-6.66-5.86-9.817.442-6.05 6.411.34 7.548 8.246-.369-.27-6.032 5.93-.27.46 10.16-7.145.32-6.267 6.281.779 17.238 19.3-.86-.34-7.648-11.564.519-.357-7.944 7.909-.351 6.102-6.253-.596-13.332" style="fill:#314093;fill-opacity:1;fill-rule:nonzero;stroke:none;stroke-width:.350726" transform="matrix(1.33333 0 0 -1.33333 -498.716 278.58)"/><path d="M916.989 13.295c-2.568 9.115-6.363 24.8-8.607 32.179-13.093 5.38-64.643 24.256-72.145 26.722-7.375 15.309-15.884 31.765-15.884 31.765s-5.818 1.96-18.978 4.465a2859.154 2859.154 0 0 1 60.178 60.56c7.228 7.498 8.789 20.492-3.034 31.923-11.833 11.409-24.754 9.371-32.007 1.869-30.843-31.98-56.414-59.88-80.748-87.211-.575.063-1.143.122-1.725.178l-.004-.007c-24.067 1.964-54.503 3.381-92.375 3.381-41.957 0-75.118-1.795-100.76-4.184l-.024.025c-1.34-.151-2.659-.309-3.974-.463-24.62 27.672-50.452 55.881-81.708 88.281-7.25 7.502-20.17 9.54-31.997-1.87-11.827-11.43-10.266-24.424-3.037-31.922a2827.883 2827.883 0 0 1 62.173-62.503c-9.572-2.077-13.96-3.57-13.96-3.57l-10.205-30.184s-17.003-4.398-35.346-10.666c-18.343-6.267-38.03-14.408-47.692-19.044l-8.677-22.541 8.926-35.869 19.073-12.749s18.273 7.888 34.318 14.808l96.436-52.423v-41.712c0-.484-.007-1.378-1.284-1.6l.092.008-.099-.021.007.014-3.402-.446-.07-3.539v-12.643c-.494-.533-.982-1.052-1.487-1.589-5.422 3.865-12.917 6.13-18.343.505 0 0-2.978-3.09-5.77-5.994-4.675-4.84 3.434-16.084 10.077-22.495 6.664-6.419 18.2-14.12 22.867-9.274a2268.54 2268.54 0 0 1 5.766 5.987c5.433 5.626 2.883 13.033-1.157 18.301 4.331 4.35 8.572 8.593 12.76 12.77h4.77l-.043-.056h4.924l.042.056h12.58l-.041-.056h7.291l.042.056h28.89v4.875c5.818-4.223 12.563-6.499 19.528-6.499 6.702 0 13.194 2.108 18.852 6.005v-4.363H692.8v3.52c5.741-3.73 11.76-5.088 15.116-5.39.516-.049.986-.066 1.368-.066h1.95l.186-.221 7.825-.407v2.837c3.062-2.192 8.147-3.107 12.258-3.486l4.913-.25.667.05.484.056c.687.07 1.371.158 2.051.267a5080.28 5080.28 0 0 0 9.687-9.698c-4.04-5.268-6.593-12.675-1.16-18.3 0 0 2.967-3.09 5.776-5.988 4.668-4.847 16.2 2.855 22.867 9.274 6.64 6.41 14.745 17.655 10.07 22.495-2.8 2.904-5.77 5.994-5.77 5.994-5.429 5.626-12.92 3.36-18.343-.505-1.904 2.038-3.76 4.03-5.629 6.029 5.401 5.889 8.382 13.9 8.382 22.972l-.01.68c-.095 6.486-1.985 12.287-5.496 17.204v15.783l99.508 49.712c17.841-6.822 37.608-14.384 37.608-14.384l19.729 18.02s-7.183 26.126-7.422 27.189c3.094-1.084 7.58-2.655 7.573-2.627" style="fill:#314093;fill-opacity:1;fill-rule:nonzero;stroke:none;stroke-width:.350726" transform="matrix(1.33333 0 0 -1.33333 -498.716 278.58)"/><path d="M761.473-97.671c.13-8.151-2.402-15.37-7.102-20.633-.42-.397-1.932-1.936-2.788-2.666a25.63 25.63 0 0 0-2.508-1.845 26.613 26.613 0 0 0-6.415-2.95c-1.059-.336-4.542-1.083-6.632-1.192-5.594-.33-11.539.898-17.396 3.732l-1.88.926-.565.266-.171.092V-125.382h-6.73c-3.578 0-13.812 2.073-20.504 10.353v-8.414h-32.765v6.871c0 .965 0 1.926.298 2.757a52.727 52.727 0 0 0-1.441-1.607c-5.99-6.246-13.714-9.676-21.728-9.676-8.01 0-15.72 3.43-21.717 9.676a47.795 47.795 0 0 0-1.83 2.07v-10.116H534.458v10.417s4.766.534 4.766 5.584v48.688c0 4.587-4.766 4.307-4.766 4.307v11.206H571.04v-11.206s-4.62 0-4.62-4.307v-44.164l.716-.007c6.955 0 11.31 4.683 11.31 4.683v22.523c0 3.57-4.415 1.68-4.415 1.68V-63.048l1.856.923 1.192.596c.253.109 5.97 2.925 12.065 5.296 6.047 2.343 13.198 4.69 13.268 4.703l2.81.923 4.376 1.427v-8.939c5.998 7.277 14.338 11.798 23.548 11.798 8.014 0 15.737-3.427 21.717-9.674.39-.406.782-.824 1.154-1.255v10.929l3.584-.26 2.319-.182c.224-.007 5.6-.425 10.073-1.084 4.38-.653 8.315-1.389 8.36-1.4l1.053-.192 1.617-.31.743-1.472.474-.95.028-.067.238-.488 4.756-9.413V-50.583l4.51-1.715 2.919-1.105 2.016-.852s6.419-2.34 9.617-3.679c1.333-.547 2.992-1.315 4.447-2.003 1.582 4.932 4.542 9.067 8.677 12.055 6.86 4.959 16.288 6.176 25.242 3.24l9.287-3.124v-30.44l-5.366 4.079-8.361 6.355c-1.452 1.119-3.01 2.346-3.623 1.315-1.066-1.827 3.17-4.145 5.12-5.422l4.893-3.283c8.27-5.3 12.703-13.071 12.833-22.51zM829.297 200.098c2.29 2.368 5.24 3.844 8.53 4.28 5.699.77 11.843-1.723 17.3-6.987a32.418 32.418 0 0 0 1.638-1.701c1.456-2.476 4.321-10.08-6.404-21.226-10.907-11.307-34.203-34.624-63.527-63.783-9.96 1.35-22.51 2.928-36.335 4.398 23.769 26.648 48.733 53.843 78.798 85.02zM699.258 108.247l13.19-.723-.192-3.398-8.25.456-.14-2.543 7.632-.42-.182-3.245-7.632.428-.172-3.125 8.484-.467-.2-3.58-13.415.733zM634.553 109.57l6.06-8.783-.046 8.817 4.634.018.08-15.91-4.633-.017-6.032 8.74.045-8.771-4.633-.021-.08 15.905zM607.81 109.054l5.408.16 6.383-15.733-5.149-.15-.866 2.602-5.566-.154-.726-2.652-5.022-.144zM591.413 108.454l.176-3.402-8.253-.425.13-2.546 7.639.396.168-3.237-7.635-.396.158-3.129 8.487.446.186-3.595-13.426-.684-.817 15.888z" style="fill:#fff;fill-opacity:1;fill-rule:nonzero;stroke:none;stroke-width:.350726" transform="matrix(1.33333 0 0 -1.33333 -498.716 278.58)"/><path d="M441.352 174.464c-10.729 11.146-7.864 18.75-6.412 21.226.523.572 1.063 1.157 1.645 1.7 5.461 5.265 11.602 7.759 17.305 6.987 3.283-.435 6.233-1.911 8.52-4.279 30.498-31.617 55.744-59.15 79.814-86.159a1081.851 1081.851 0 0 1-35.613-4.99c-30.138 29.972-54.134 53.983-65.26 65.515z" style="fill:#f9f9f9;fill-opacity:1;fill-rule:nonzero;stroke:none;stroke-width:.350726" transform="matrix(1.33333 0 0 -1.33333 -498.716 278.58)"/><path d="M486.027 92.854a3.916 3.916 0 0 0 3.914-3.915 3.91 3.91 0 0 0-3.914-3.91 3.913 3.913 0 0 0 0 7.825zM405.37-17.295l-12.008 8.024-7.232 29.079 6.082 15.825 38.281 16.48-5.285-13.822-28.297-12.18 7.972-32.067 41.614 17.9-4.935 44.473 11.63 2.02 2.4-21.633 27.307 4.752-2.403 21.623 11.63 2.027 5.826-52.458-11.63-2.013-2.4 21.629-27.31-4.749 2.402-21.633-.19-.028.222-.165z" style="fill:#fff;fill-opacity:1;fill-rule:nonzero;stroke:none;stroke-width:.350726" transform="matrix(1.33333 0 0 -1.33333 -498.716 278.58)"/><path d="M747.269-120.255c-7.569-4.843-17.47-4.934-27.167-.238l-1.877.908-.568.291-1.003.488-3.974 22.482V-122.3h-3.394c-2.964 0-15.194 2.265-20.638 13.338l-7.666 14.846v-15.155c0-1.617.224-2.427 1-3.644.36-.579.63-.901 1.248-1.494l1.224-.786.978-.638v-4.542h-26.076V-116.835l.038 1.473 1.354.54c.316.134 3.097 1.337 3.097 5.612v44.553c0 7.172-3.027 8.634-3.097 8.67l-1.392.512v5.288l2.315-.175c.224-.014 5.489-.417 9.841-1.056 4.296-.641 8.186-1.367 8.218-1.381l1.048-.2.477-.944.274-.554 14.72-29.24v15.706c0 4.534-3.651 6.621-3.651 6.621V-55.7l2.907-1.101 2.052-.765c.046-.02 6.324-2.406 9.487-3.717 2.616-1.088 6.678-3.087 7.453-3.47l.452-.227c.053.905.453 1.74.453 1.74 1.143 5.089 3.893 9.413 8.007 12.38 5.994 4.342 14.289 5.377 22.218 2.781l4.71-1.585.835-.27 1.46-.502v-21.292l-3.455 2.62-1.954 1.47-2.956 2.265c-1.193.89-4.195 2.851-6.776 1.754-.986-.41-1.487-.982-1.793-2.003-.533-1.894-.463-4.928 6.25-9.347l2.47-1.575 2.237-1.581c7.348-4.63 11.367-11.322 11.483-19.865.158-9.645-3.806-17.761-10.87-22.265zm-94.808 6.885c-5.352-5.58-12.216-8.663-19.315-8.663-7.085 0-13.938 3.083-19.314 8.663-6.59 6.85-10.368 16.835-10.368 27.388 0 19.887 13.328 36.055 29.682 36.055 7.099 0 13.963-3.072 19.315-8.656 6.59-6.843 10.37-16.831 10.37-27.399 0-10.553-3.78-20.538-10.37-27.388zm-46.191-3.391v-3.627h-68.465v3.553l.014 1.463 1.357.55c.028 0 3.381 1.365 3.381 3.935v54.802c0 2.591-2.837 3.436-3.132 3.524l-1.62.417V-46.876H567.704v-3.605l-.01-1.536-1.463-.491c-.126-.053-3.15-1.12-3.15-3.578v-50.132c1.267-.288 2.403-.34 4.087-.34 4.685.038 9.308 2.647 9.364 2.668 3.486 1.68 5.268 4.128 5.268 4.128V-73.334c0 3.914-4.437 2.714-4.437 2.714v5.226l1.203.603c.232.109 5.822 2.855 11.792 5.17 5.934 2.304 13.019 4.623 13.092 4.647l2.82.919V-59.575l-.719-.646c-.831-.747-2.995-3.212-2.995-5.675v-43.995c0-4.226 1.866-4.734 1.866-4.734l1.848-.267zm142.37 41.673-4.892 3.283c-1.95 1.28-6.187 3.591-5.121 5.415.614 1.042 2.17-.196 3.623-1.305l8.361-6.362 5.366-4.079v30.447l-9.287 3.118c-8.954 2.946-18.381 1.729-25.242-3.241-4.135-2.992-7.095-7.12-8.677-12.051-1.455.69-3.114 1.455-4.447 2.006-3.198 1.333-9.617 3.676-9.617 3.676l-2.016.848-2.918 1.105-4.51 1.705V-62.073l-4.757 9.42-.238.488-.028.07-.474.948-.743 1.466-1.617.308-1.052.2c-.046.007-3.981.754-8.362 1.407-4.471.652-9.848 1.073-10.072 1.08l-2.319.175-3.584.267v-10.932c-.372.427-.765.852-1.154 1.252-5.98 6.243-13.703 9.68-21.717 9.68-9.21 0-17.55-4.525-23.548-11.806V-49.11l-4.377-1.424-2.809-.922c-.07-.021-7.221-2.364-13.268-4.707-6.096-2.36-11.812-5.18-12.065-5.292l-1.192-.597-1.856-.925v-11.009s4.416 1.886 4.416-1.684v-22.523s-4.356-4.687-11.311-4.687l-.716.014v44.16c0 4.307 4.62 4.307 4.62 4.307v11.209h-36.581V-54.399s4.766.27 4.766-4.307v-48.684c0-5.054-4.766-5.594-4.766-5.594v-10.413H609.598v10.111a54.755 54.755 0 0 1 1.831-2.062c5.998-6.243 13.707-9.676 21.717-9.676 8.014 0 15.737 3.433 21.728 9.676.49.526.968 1.052 1.441 1.6-.298-.821-.298-1.782-.298-2.75v-6.878h32.765V-114.952c6.692-8.29 16.926-10.353 20.503-10.353h6.731v3.43l.171-.088.565-.273 1.88-.919c10.77-5.205 21.86-5.047 30.443.42 8.056 5.146 12.577 14.314 12.398 25.137-.13 9.438-4.563 17.214-12.833 22.51M601.458-27.754l.347-6.555 2.873.792-3.17 5.777-.05-.014" style="fill:#219f4d;fill-opacity:1;fill-rule:nonzero;stroke:none;stroke-width:.350726" transform="matrix(1.33333 0 0 -1.33333 -498.716 278.58)"/><path d="m470.483-7.601 40.575-21.805 134.616 40.561.523.155 137.716-41.596 48.701 24.273S646 42.623 470.483-7.6" style="fill:#219f4d;fill-opacity:1;fill-rule:nonzero;stroke:none;stroke-width:.350726" transform="matrix(1.33333 0 0 -1.33333 -498.716 278.58)"/><path d="m715.17-37.111-2.862 1.136c.537 1.287.769 2.48-.743 3.104-1.806.726-2.774-1.701-3.848-4.37-1.74-4.31-1.634-5.25.018-5.903a4.972 4.972 0 0 1 1.53-.312l1.237 3.051-1.56.628.852 2.118 4.436-1.792-2.802-6.98c-.849.166-2.935.653-4.082 1.106-4.85 1.953-4.595 4.19-2.494 9.41 1.403 3.479 3.002 6.937 7.72 5.043 2.809-1.147 3.935-3.43 2.598-6.24zm-22.422-2.736-3.952 1.017-1.224 11.525h-.05l-2.686-10.508-2.816.716 3.696 14.38 4.062-1.042 1.28-10.943.039-.003 2.539 9.967 2.81-.74zm-19.907 8.835c-.266-2.213-1.795-4.38-5.541-3.928-3.395.42-4.823 2.367-4.486 5.141l1.27 10.47 3.09-.38-1.26-10.24c-.21-1.828.481-2.631 1.607-2.775 1.347-.168 2.07.656 2.265 2.29l1.246 10.252 3.086-.386zm-25.238-2.729c-3.84.007-4.556 2.276-4.388 4.844h3.1c0-1.431.064-2.617 1.78-2.617 1.037 0 1.553.674 1.553 1.673.01 2.683-6.243 2.855-6.226 7.278.004 2.325 1.105 4.19 4.897 4.166 3.012-.01 4.517-1.36 4.317-4.475l-3.03.018c0 1.097-.172 2.237-1.438 2.237-1.014 0-1.603-.561-1.603-1.575-.018-2.816 6.246-2.591 6.24-7.256-.015-3.862-2.831-4.293-5.202-4.293zm-16.842-.561-1.494 11.36h-.038l-1.34-11.746-2.94-.379-4.184 11h-.056l1.498-11.357-2.988-.397-1.943 14.738 4.96.638 3.619-9.712h.049l1.122 10.343 4.805.635 1.929-14.73zm-23.172-4.191-1.673 2.946-4.083-1.137.06-3.388-2.953-.813-.007 15.4 3.942 1.094 7.863-13.218zm-21.258-7.453c-3.546-1.477-5.085.333-5.934 2.767l2.865 1.2c.558-1.316 1.063-2.385 2.634-1.726.972.393 1.203 1.22.818 2.153-1.05 2.466-6.878.21-8.593 4.29-.888 2.146-.575 4.272 2.918 5.748 2.788 1.158 4.707.491 5.717-2.465l-2.792-1.158c-.428 1.017-1.042 1.992-2.203 1.508-.93-.4-1.262-1.136-.873-2.076 1.09-2.613 6.765.042 8.565-4.275 1.494-3.543-.944-5.044-3.122-5.966zM766.825-28.89C732.903-18.646 678.175-2.11 656.006 4.59l-9.84-6.453v-.022l-.018.014-.014-.014v.022l-9.42 6.555c-22.23-6.696-78.353-23.608-112.103-33.779l7.365-4.09-8.333-2.994 6.895-3.7v.627h44.609v-15.228s-.039-3.02-.053-3.61l.291.144.26.127c4.17 2.013 8.49 3.907 12.149 5.324 6.166 2.392 13.419 4.766 13.633 4.826l-.172-.05 2.82.923 9.637 3.139v-5.222c5.809 4.25 12.493 6.565 19.529 6.565 6.71 0 13.198-2.108 18.855-6.011v6.32l10.22-.758-.08.007c.385-.024 5.913-.456 10.444-1.129 2.585-.382 5.464-.863 8.344-1.392l.172-.028 1.038-.193s2.57-.488 3.107-.586v1.284l9.943-3.75 2.988-1.14 2-.83c.617-.229 6.548-2.403 9.67-3.704l.788-.358a27.452 27.452 0 0 0 8.45 9.94c7.905 5.723 18.696 7.144 28.889 3.794l8.754-2.942 13.334 6.642-11.037 3.964 7.705 4.286" style="fill:#219f4d;fill-opacity:1;fill-rule:nonzero;stroke:none;stroke-width:.350726" transform="matrix(1.33333 0 0 -1.33333 -498.716 278.58)"/><path d="M650.907-111.88c-4.945-5.148-11.255-7.985-17.76-7.985-6.493 0-12.81 2.837-17.751 7.986-6.2 6.457-9.768 15.902-9.768 25.897 0 18.701 12.35 33.898 27.518 33.898 6.506 0 12.816-2.834 17.76-7.993 6.209-6.45 9.765-15.895 9.765-25.905 0-9.995-3.556-19.44-9.764-25.897zm1.554 53.297c-5.352 5.584-12.216 8.656-19.315 8.656-16.354 0-29.682-16.168-29.682-36.055 0-10.553 3.778-20.538 10.368-27.388 5.376-5.58 12.23-8.663 19.314-8.663 7.099 0 13.963 3.083 19.315 8.663 6.59 6.85 10.37 16.835 10.37 27.388 0 10.568-3.78 20.556-10.37 27.4" style="fill:#314093;fill-opacity:1;fill-rule:nonzero;stroke:none;stroke-width:.350726" transform="matrix(1.33333 0 0 -1.33333 -498.716 278.58)"/><path d="M746.125-118.434c-6.944-4.444-16.077-4.483-25.083-.12l-1.866.916-.568.27-3.3 18.329 2.917-2.304 5.373-4.248c2.838-2.346 5.608-3.553 8.835-3.553 4.503 0 7.993 3.238 7.639 7.944-.298 3.981-1.873 5.837-5.149 8.246l-5.194 3.483c-8.596 5.77-12.745 10.329-12.777 20.615l.098 2.41c.533 5.811 3.202 10.658 7.604 13.843 5.447 3.946 13.026 4.875 20.279 2.483l4.717-1.582.835-.287v-15.404l-1.95 1.48-2.967 2.245c-1.908 1.47-5.528 3.472-8.912 2.034-1.47-.614-2.497-1.607-3.027-3.406-1.157-4.03 1.126-7.772 7.169-11.739l4.949-3.174c6.677-4.208 10.115-10.297 10.23-18.069.158-8.88-3.45-16.33-9.852-20.412zm-32.684 50.227c-1.213 0-2.925-1.119-2.925-5.457V-120.156h-1.23c-2.526 0-13.795 2.178-18.719 12.198l-11.753 22.706v-24.018c0-2.013.35-3.223 1.343-4.798.509-.817.902-1.273 1.715-2.04l1.417-.899v-1.22h-21.787v1.392S666-115.253 666-109.21v44.553c0 9.017-4.497 10.69-4.497 10.69v1.459s5.356-.397 9.684-1.049c4.32-.631 8.14-1.35 8.14-1.35l.27-.554 18.824-37.35v24.78c0 4.79-3.676 7.67-3.676 7.67v1.543l2.045-.757c.066-.036 6.299-2.392 9.427-3.697 2.554-1.06 6.503-3.006 7.33-3.413zm33.214-9.918-2.238 1.581-2.469 1.575c-6.713 4.42-6.783 7.453-6.25 9.347.306 1.02.807 1.592 1.793 2.003 2.58 1.097 5.583-.863 6.776-1.754l2.956-2.266 1.954-1.47 3.454-2.62V-50.435l-1.459.502-.834.27-4.71 1.585c-7.93 2.596-16.225 1.561-22.22-2.78-4.113-2.968-6.863-7.292-8.006-12.382 0 0-.4-.834-.453-1.74l-.452.229c-.775.382-4.837 2.381-7.453 3.469-3.163 1.311-9.441 3.696-9.487 3.717l-2.052.765-2.907 1.101V-61.41s3.65-2.087 3.65-6.621v-15.706l-14.72 29.24-.273.554-.477.944-1.048.2c-.032.014-3.922.74-8.218 1.381-4.352.639-9.617 1.042-9.841 1.056l-2.315.175v-5.288l1.392-.513c.07-.035 3.097-1.497 3.097-8.67v-44.552c0-4.276-2.781-5.478-3.097-5.612l-1.354-.54-.038-1.473V-120.374h26.076v4.542l-.978.638-1.224.786c-.618.593-.888.915-1.249 1.494-.775 1.217-1 2.027-1 3.644v15.155l7.667-14.846c5.444-11.073 17.674-13.338 20.637-13.338H712.68v25.975l3.974-22.482 1.003-.488.568-.29 1.877-.909c9.697-4.696 19.598-4.605 27.167.238 7.063 4.504 11.027 12.62 10.869 22.265-.116 8.543-4.135 15.235-11.483 19.865M633.146-66.183c-1.182 0-2.385-.628-3.577-1.859-3.29-3.423-5.415-10.473-5.415-17.94 0-7.453 2.125-14.495 5.415-17.922 1.192-1.227 2.395-1.862 3.577-1.862 4.244 0 9 8.452 9 19.784 0 7.467-2.126 14.517-5.412 17.94-1.192 1.231-2.402 1.859-3.588 1.859" style="fill:#314093;fill-opacity:1;fill-rule:nonzero;stroke:none;stroke-width:.350726" transform="matrix(1.33333 0 0 -1.33333 -498.716 278.58)"/><path d="m746.655-78.125-.004.014zM728.61-91.27l.004-.015z" style="fill:#fff;fill-opacity:1;fill-rule:nonzero;stroke:none;stroke-width:.350726" transform="matrix(1.33333 0 0 -1.33333 -498.716 278.58)"/><path d="m534.013-109.06-.09-.006-.008-.014z" style="fill:#314093;fill-opacity:1;fill-rule:nonzero;stroke:none;stroke-width:.350726" transform="matrix(1.33333 0 0 -1.33333 -498.716 278.58)"/><path d="m736.417-130.927-4.913.249a60.98 60.98 0 0 1 4.913-.25M711.235-129.401h-1.95c-.382 0-.852.017-1.368.066l.348-.073c3.514-.477 10.98-.993 10.98-.993v.372l-7.824.407-.186.22M535.813-139.299l1.062-1.02s8.558-10.649 3.911-15.57l-3.276-3.356c-1.154 2.547-4.205 7.93-11.739 15.208-7.533 7.256-13.033 10.125-15.635 11.188l3.269 3.391c3.963 4.107 11.135-.624 12.52-1.62l2.884-2.045 3.005 3.238c.758.81 1.495 1.606 2.245 2.402h13.303a1531.87 1531.87 0 0 1-11.55-11.816zM762.904-133.123l2.88 2.045c1.381.996 8.557 5.727 12.524 1.62l3.269-3.391c-2.61-1.063-8.105-3.932-15.636-11.188-7.537-7.278-10.584-12.661-11.738-15.208l-3.28 3.357c-4.647 4.92 3.911 15.568 3.911 15.568l1.063 1.021c-2.81 2.908-6.208 6.397-10.126 10.378a29.722 29.722 0 0 1 5.461 2.725 29.48 29.48 0 0 1 3.1 2.276c1.849-1.981 3.68-3.952 5.566-5.965zM724.545 106.707l8.176-.652c1.511-.12 2.662-.337 3.433-.663a3.71 3.71 0 0 0 1.828-1.6c.434-.746.613-1.62.536-2.637-.073-.877-.326-1.62-.754-2.234a4.445 4.445 0 0 0-1.683-1.43c-.435-.215-1.028-.376-1.779-.485.572-.242.979-.466 1.232-.684.16-.15.41-.445.708-.901.316-.456.516-.803.614-1.042l2.016-4.77-5.548.439-2.217 5.047c-.28.659-.54 1.083-.789 1.294a2.08 2.08 0 0 1-1.168.46l-.428.034-.515-6.428-4.931.396zM560.044 106.546c1.519.112 2.69.07 3.511-.133.824-.193 1.501-.628 2.048-1.295.544-.666.86-1.504.93-2.514.073-.884-.067-1.66-.393-2.326a4.534 4.534 0 0 0-1.435-1.676c-.406-.284-.968-.53-1.686-.754.603-.151 1.041-.312 1.315-.488.196-.122.48-.378.848-.778.38-.4.628-.709.765-.933l2.722-4.405-5.535-.425-2.977 4.644c-.383.6-.709.985-.982 1.16a2.06 2.06 0 0 1-1.221.27l-.431-.03.49-6.433-4.93-.375-1.21 15.863z" style="fill:#fff;fill-opacity:1;fill-rule:nonzero;stroke:none;stroke-width:.350726" transform="matrix(1.33333 0 0 -1.33333 -498.716 278.58)"/><path d="M559.36 100.019c.221.02.653.12 1.28.319.32.091.572.277.755.561.186.28.266.6.238.94-.031.52-.231.905-.579 1.147-.34.253-.96.344-1.862.277l-2.143-.161.246-3.241 2.065.158M610.563 105.01l-1.585-5.77 3.468.098z" style="fill:#314093;fill-opacity:1;fill-rule:nonzero;stroke:none;stroke-width:.350726" transform="matrix(1.33333 0 0 -1.33333 -498.716 278.58)"/><path d="M816.064 92.854a3.913 3.913 0 0 0 0-7.825 3.911 3.911 0 1 0 0 7.825zM805.924 92.671l-4.619.463c-.01.723-.186 1.277-.533 1.663-.337.385-.86.627-1.55.729-.565.098-1.01.046-1.343-.147-.327-.193-.516-.46-.565-.807l.245-.726c.197-.245.705-.523 1.54-.838 2.052-.796 3.507-1.498 4.353-2.105.841-.617 1.417-1.308 1.732-2.062.309-.757.386-1.568.253-2.43a5.018 5.018 0 0 0-1.277-2.648c-.687-.758-1.575-1.284-2.644-1.565-1.07-.277-2.371-.29-3.886-.056-2.673.421-4.451 1.231-5.31 2.43-.87 1.186-1.246 2.593-1.123 4.196l4.658-.439c-.014-.771.091-1.368.333-1.813.4-.716 1.063-1.147 1.992-1.298.691-.109 1.256-.028 1.677.235.431.267.684.61.743 1.042.074.403-.052.803-.354 1.175-.316.375-1.09.817-2.35 1.304-2.052.818-3.476 1.694-4.265 2.627-.785.944-1.087 2.024-.89 3.259.126.806.483 1.529 1.066 2.174.592.646 1.378 1.098 2.388 1.361 1.01.263 2.332.263 3.974 0 2.013-.32 3.493-.94 4.436-1.852.937-.919 1.375-2.206 1.32-3.872zM717.562 72.63V27.64H705.82v44.99zM688.715 74.212l9.368-13.811-11.093-16.239h-31.11V28.306h-11.742v45.906ZM619.173 72.63h13.97V27.71h-11.736v31.316l-17.515-25.571h-7.772l-17.428 25.603V27.71h-11.735v44.92h13.805l19.28-28.25c10.62 15.632 17.002 25.049 19.131 28.25zM554.913 61.404l3.094-37.23-11.764-1.28-1.185 14.3-27.91-3.02 1.188-14.3-11.686-1.266-3.104 37.237 8.582 11.844 32.372 3.514zM502.266 100.478l.796-5.966 4.317 6.65 6.478.877-4.948-6.688 7.34-9.046-6.015-.81-4.173 6.005-2.196-2.957.516-3.83-4.858-.656-2.118 15.769zM894.988-18.18 833.74 5.015l.113.095-.116.021-28.665 37.493-3.136-32.73-11.654 1.757 5.019 52.483 8.333-1.256 29.187-38.26 3.202 33.406 11.659-1.747-4.153-43.388 46.927-17.992 4.865 4.12-2.294 7.384-31.951 12.324-5.352 18.7 12.619 12.592 33.049-12.644 3.265-12.693L872.727 37l-4.882-4.212 2.315-7.295 32.02-12.356 5.276-18.718z" style="fill:#fff;fill-opacity:1;fill-rule:nonzero;stroke:none;stroke-width:.350726" transform="matrix(1.33333 0 0 -1.33333 -498.716 278.58)"/><path d="M688.396 73.616c.333-.49 8.54-12.58 8.968-13.215-.435-.635-10.36-15.148-10.694-15.643h-31.386V28.906h-10.55v44.71h43.662zm.32 1.19h-45.174V27.71h12.93v15.86h30.83l11.504 16.827-9.775 14.408h-.316M632.55 72.034V28.306H622V60.95l-18.424-26.893h-7.147c-.34.508-18.333 26.932-18.333 26.932V28.306h-10.54v43.728h12.887c.35-.508 19.602-28.71 19.602-28.71l19.44 28.71h13.065zm.593 1.196h-14.289s-17.887-26.41-18.813-27.791c-.943 1.378-18.967 27.791-18.967 27.791H566.36V27.113h12.928v30.005c1.922-2.81 16.512-24.26 16.512-24.26h8.403s14.689 21.45 16.607 24.243V27.113h12.931V73.23h-.6M544.29 70.579c.382-.354 9.729-9.154 10.045-9.452.035-.442 2.935-35.3 3.03-36.42-.99-.105-9.543-1.041-10.582-1.153-.087 1.118-1.185 14.299-1.185 14.299l-29.096-3.15s1.098-13.23 1.189-14.295c-.99-.11-9.466-1.028-10.501-1.14-.091 1.171-2.992 35.977-3.03 36.405.245.34 8 11.044 8.294 11.451.516.06 31.303 3.402 31.836 3.455zm.14 1.213-32.631-3.535-8.863-12.244 3.17-38.064 12.868 1.4-1.185 14.295c1.08.116 25.585 2.767 26.725 2.893.091-1.122 1.186-14.302 1.186-14.302l12.952 1.413-3.17 38.04-10.775 10.14-.277-.036M716.966 72.034V28.236h-10.55v43.798h10.55zm.596 1.196h-12.338V27.036h12.931V73.23h-.593" style="fill:#bcbfc6;fill-opacity:1;fill-rule:nonzero;stroke:none;stroke-width:.350726" transform="matrix(1.33333 0 0 -1.33333 -498.716 278.58)"/><path d="M732.342 99.836c.323.039.6.183.831.435.225.25.35.547.386.895.035.515-.095.926-.393 1.227-.302.298-.901.488-1.8.558l-2.146.168-.256-3.23 2.06-.172c.227-.014.662.025 1.318.12" style="fill:#314093;fill-opacity:1;fill-rule:nonzero;stroke:none;stroke-width:.350726" transform="matrix(1.33333 0 0 -1.33333 -498.716 278.58)"/><path d="m780.318 95.032-.404-3.213-7.586.95-.39-3.1 8.429-1.063-.453-3.567-13.334 1.684 2.002 15.782 13.097-1.648-.428-3.377-8.19 1.041-.333-2.528zM775.04 66.745l8.511-11.931-2.367-26.301-10.487-9.705-35.56 4.163-8.501 11.925 2.36 26.294 10.445 9.715z" style="fill:#fff;fill-opacity:1;fill-rule:nonzero;stroke:none;stroke-width:.350726" transform="matrix(1.33333 0 0 -1.33333 -498.716 278.58)"/><path d="M739.64 70.277c.544-.063 34.554-4.037 35.066-4.093.295-.414 7.986-11.198 8.225-11.539-.035-.427-2.28-25.406-2.319-25.852-.319-.294-9.74-9.01-10.125-9.36-.526.056-34.505 4.04-35.017 4.096-.29.41-7.975 11.188-8.22 11.528.045.432 2.286 25.41 2.325 25.856.312.295 9.69 9.014 10.066 9.364zm-.606 1.06-10.61-9.863-2.395-26.743 8.779-12.328L770.9 18.18l10.858 10.049 2.403 26.75-8.79 12.328-36.131 4.222-.207-.193" style="fill:#bcbfc6;fill-opacity:1;fill-rule:nonzero;stroke:none;stroke-width:.350726" transform="matrix(1.33333 0 0 -1.33333 -498.716 278.58)"/><path d="m772.002 57.62-31.2 3.65-2.617-29.183 31.194-3.64 2.623 29.173" style="fill:#314093;fill-opacity:1;fill-rule:nonzero;stroke:none;stroke-width:.350726" transform="matrix(1.33333 0 0 -1.33333 -498.716 278.58)"/><path d="m755.946 103.905-1.617-15.825-4.917.498 1.613 15.832z" style="fill:#fff;fill-opacity:1;fill-rule:nonzero;stroke:none;stroke-width:.350726" transform="matrix(1.33333 0 0 -1.33333 -498.716 278.58)"/><path d="M741.349 60.608c1.15-.14 28.913-3.385 29.997-3.514-.091-1.088-2.402-26.842-2.504-27.985-1.15.137-28.917 3.378-30.008 3.504.098 1.087 2.406 26.844 2.515 27.995zm-1.133.719-2.676-29.763 32.379-3.784 2.732 30.366-32.383 3.784-.052-.603" style="fill:#bcbfc6;fill-opacity:1;fill-rule:nonzero;stroke:none;stroke-width:.350726" transform="matrix(1.33333 0 0 -1.33333 -498.716 278.58)"/><path d="m515.123 58.468 1.245-14.997 27.911 3.017-1.245 15.004-27.91-3.024" style="fill:#314093;fill-opacity:1;fill-rule:nonzero;stroke:none;stroke-width:.350726" transform="matrix(1.33333 0 0 -1.33333 -498.716 278.58)"/><path d="M525.922 101.506c1.29 1.589 3.223 2.511 5.808 2.785 2.638.27 4.746-.225 6.313-1.49 1.582-1.264 2.505-3.175 2.768-5.725.189-1.848.031-3.395-.47-4.64a6.593 6.593 0 0 0-2.417-3.04c-1.112-.786-2.546-1.263-4.31-1.45-1.786-.189-3.294-.055-4.525.39-1.234.453-2.28 1.249-3.128 2.4-.866 1.157-1.39 2.665-1.578 4.506-.27 2.588.245 4.672 1.54 6.264z" style="fill:#fff;fill-opacity:1;fill-rule:nonzero;stroke:none;stroke-width:.350726" transform="matrix(1.33333 0 0 -1.33333 -498.716 278.58)"/><path d="M542.487 60.829c.095-1.077 1.066-12.784 1.154-13.812-1.087-.12-25.589-2.77-26.729-2.89-.091 1.077-1.063 12.78-1.15 13.805 1.087.119 25.585 2.774 26.725 2.897zm.477 1.252-28.49-3.087 1.35-16.182 29.097 3.142-1.347 16.193-.61-.066" style="fill:#bcbfc6;fill-opacity:1;fill-rule:nonzero;stroke:none;stroke-width:.350726" transform="matrix(1.33333 0 0 -1.33333 -498.716 278.58)"/><path d="M533.074 91.577c1.07.116 1.844.536 2.36 1.284.512.75.673 2.006.487 3.78-.147 1.494-.571 2.554-1.252 3.185-.673.62-1.529.877-2.574.772-.996-.102-1.757-.534-2.287-1.302-.53-.757-.712-1.943-.55-3.563.168-1.606.585-2.718 1.262-3.36.67-.638 1.53-.901 2.554-.796" style="fill:#314093;fill-opacity:1;fill-rule:nonzero;stroke:none;stroke-width:.350726" transform="matrix(1.33333 0 0 -1.33333 -498.716 278.58)"/><path d="M681.964 98.633c-.351.337-1.179.67-2.487 1.004-2.146.557-3.662 1.248-4.56 2.076-.897.835-1.336 1.876-1.29 3.114.028.828.288 1.586.789 2.294.502.719 1.228 1.266 2.2 1.652.967.382 2.279.55 3.945.494 2.037-.07 3.58-.494 4.626-1.287 1.049-.789 1.648-2.013 1.785-3.668l-4.63-.134c-.101.723-.347 1.253-.733 1.593-.392.34-.932.515-1.634.543-.572.01-1.017-.09-1.319-.326-.287-.231-.449-.519-.456-.866l.334-.695c.22-.217.768-.427 1.627-.634 2.143-.537 3.658-1.049 4.584-1.554.915-.505 1.571-1.115 1.975-1.83a4.47 4.47 0 0 0 .554-2.375 4.956 4.956 0 0 0-.937-2.792c-.589-.831-1.403-1.466-2.427-1.873-1.03-.414-2.315-.6-3.85-.54-2.708.088-4.567.666-5.577 1.736-1.01 1.08-1.554 2.424-1.635 4.037l4.679.144c.077-.765.267-1.35.561-1.764.488-.66 1.196-1.004 2.14-1.032.701-.02 1.245.123 1.637.439.386.312.593.687.607 1.119.014.42-.154.785-.508 1.125z" style="fill:#fff;fill-opacity:1;fill-rule:nonzero;stroke:none;stroke-width:.350726" transform="matrix(1.33333 0 0 -1.33333 -498.716 278.58)"/><path d="m686.414 59.433-4.079 5.797H655.88V53.393h26.455l4.08 6.04" style="fill:#314093;fill-opacity:1;fill-rule:nonzero;stroke:none;stroke-width:.350726" transform="matrix(1.33333 0 0 -1.33333 -498.716 278.58)"/><path d="M682.023 64.634c.305-.438 3.266-4.643 3.669-5.212-.39-.578-3.367-4.976-3.672-5.429h-25.547v10.641h25.55zm.312 1.193h-27.051V52.8h27.364l4.489 6.632-4.496 6.394h-.306" style="fill:#bcbfc6;fill-opacity:1;fill-rule:nonzero;stroke:none;stroke-width:.350726" transform="matrix(1.33333 0 0 -1.33333 -498.716 278.58)"/><path d="M650.802 117.976c116.17 0 163.206-13.482 168.043-14.976 1.347-2.61 9.003-17.501 15.66-31.323l.224-.474.498-.154c4.213-1.308 7.302-2.543 10.575-3.855 2.988-1.196 6.085-2.44 10.265-3.819l.499-.161c17.157-5.693 38.169-13.587 50.458-18.589l3.848-14.72s2.95-11.37 3.816-14.73c-2.182.845-7.72 2.995-7.72 2.995l.74-2.36c.018-.07 2.178-7.064 7.229-26.926-.979-.89-17.673-16.007-18.67-16.908-1.322.501-37.453 14.32-37.453 14.32L758.057-64.037v-16.926l.225-.308c3.42-4.784 5.19-10.347 5.282-16.544l.004-.66c0-11.552-5.005-21.373-13.724-26.939-8.604-5.482-19.311-6.151-30.16-1.873l-1.627.646v-1.8h-9.567c-2.684 0-9.453 1.105-15.853 5.268l-1.842 1.196v-4.52h-38.464v5.44l-1.866-1.288c-5.51-3.795-11.801-5.8-18.199-5.8-6.66 0-13.183 2.16-18.848 6.27l-1.897 1.368v-6.015H530.64v13.257c0-.014.032 1.442.05 2.484 1.006.133 2.405.315 2.405.315 1.087.2 2.315.835 2.315 2.792v42.462l-97.68 53.107-34.295-14.797c-.996.663-17.448 11.665-18.17 12.142-.215.863-8.555 34.392-8.73 35.101.256.663 8.045 20.896 8.375 21.759 9.747 4.609 30.229 13.061 48.351 19.251 18.122 6.198 33.89 10.136 34.21 10.235l.571.185 10.217 30.219c5.524 1.718 54.875 15.986 172.543 15.986zm-173.87-13.91-.55-.19s-9.848-29.106-10.216-30.2c-2.806-.905-18.89-4.977-36.57-11.055-17.68-6.078-36.953-14.159-46.139-18.564l-.427-.203-8.993-23.366 9.136-36.717 20.02-13.377s33.385 14.4 34.413 14.846c1.007-.543 94.194-51.202 95.418-51.869v-41.045l-.031-.34-.267-.091-4.377-.572-.094-4.563v-15.667h85.654v3.932c5.629-3.581 11.907-5.56 18.357-5.56 6.183 0 12.233 1.824 17.68 5.128v-3.475h43.23v2.63c6.306-3.563 12.644-4.577 15.313-4.577h11.953v.838c11.016-3.879 21.857-3.061 30.685 2.564 9.417 6.019 14.825 16.565 14.825 28.953l-.007.694c-.088 6.534-1.957 12.42-5.503 17.526v14.744c1.301.646 97.575 48.74 98.498 49.2l37.843-14.467 20.823 18.851-.18.698c-3.605 14.23-5.754 21.924-6.754 25.396 2.778-.887 7.407-2.543 7.407-2.543l-9.048 34.743-.551.246c-12.247 5.001-33.715 13.075-51.052 18.823l-.652.214c-4.065 1.343-7.127 2.575-10.09 3.764-3.178 1.27-6.219 2.476-10.256 3.749-7.25 15.046-15.603 31.21-15.691 31.372l-.221.428-.456.154c-.449.151-46.408 15.246-169.26 15.246-125.097 0-173.396-16.133-173.87-16.298" style="fill:#bcbfc6;fill-opacity:1;fill-rule:nonzero;stroke:none;stroke-width:.350726" transform="matrix(1.33333 0 0 -1.33333 -498.716 278.58)"/><path d="M795.834 63.445c1.03-.15 7.06-1.056 7.474-1.119.287-.378 29.966-39.28 29.966-39.28s3.17 33.087 3.283 34.29c1.059-.155 9.522-1.42 10.48-1.565-.11-1.094-4.146-43.28-4.146-43.28l47.688-18.28 5.426 4.602-2.494 8.043s-31.404 12.103-31.94 12.317c-.158.54-4.998 17.431-5.177 18.08.466.463 11.58 11.556 12.096 12.072.698-.27 31.836-12.184 32.397-12.398.133-.516 2.434-9.46 2.904-11.273l-31.187 12.03-5.443-4.706 2.522-7.944s31.453-12.135 32.007-12.342c.154-.548 4.92-17.463 5.096-18.098-.453-.463-11.437-11.563-11.95-12.082-.715.27-60.408 22.881-60.724 23.004L804.62 44.19s-3.1-32.407-3.217-33.613c-1.062.165-9.522 1.434-10.476 1.575.109 1.094 4.791 50.087 4.907 51.293zm-1.13.744L789.63 11.14l12.84-1.932 3.048 31.839c1.733-2.266 27.851-36.528 27.851-36.528l61.77-23.397 12.988 13.124-5.454 19.342-32.028 12.357c-.151.473-1.908 5.997-2.119 6.65.498.427 3.865 3.324 4.321 3.72.649-.252 32.677-12.612 32.677-12.612l-3.64 14.114-33.687 12.892-13.139-13.113 5.528-19.322s31.428-12.12 31.958-12.328c.15-.484 1.883-6.081 2.09-6.73-.498-.425-3.844-3.259-4.293-3.637l-46.176 17.7c.088.881 4.166 43.505 4.166 43.505l-12.836 1.922s-2.855-29.756-3.122-32.516c-1.725 2.27-28.408 37.247-28.408 37.247l-9.193 1.371-.066-.62" style="fill:#bcbfc6;fill-opacity:1;fill-rule:nonzero;stroke:none;stroke-width:.350726" transform="matrix(1.33333 0 0 -1.33333 -498.716 278.58)"/><path d="M604.12-118.234h-24.593v1.63l1.652.684c.491.253.807.477 1.207.884 1.122 1.07 1.567 2.287 1.567 4.325v39.05c0 4.156-4.436 3.524-4.436 3.524v1.403s5.667 2.792 11.62 5.1c5.944 2.304 12.983 4.612 12.983 4.612v-1.592s-3.725-3.266-3.725-7.282v-43.994c0-6.335 3.725-6.871 3.725-6.871zm-24.975 11.195-2.452-9.42-.505-1.775h-36.23v1.4s4.76 1.82 4.76 5.947v54.801c0 4.398-4.76 5.605-4.76 5.605v1.452h25.589v-1.452s-4.622-1.515-4.622-5.605v-51.77c2.192-.716 3.675-.86 6.27-.86 5.384.056 10.123 3.02 10.123 3.02l2.58 1.617zm23.41-2.852v43.995c0 2.463 2.165 4.928 2.996 5.675l.719.646v5.52l-2.82-.919c-.074-.024-7.158-2.343-13.092-4.647-5.97-2.315-11.56-5.061-11.792-5.17l-1.203-.603V-70.62s4.437 1.2 4.437-2.714v-26.428s-1.782-2.448-5.268-4.128c-.056-.02-4.679-2.63-9.364-2.669-1.684 0-2.82.053-4.086.34v50.133c0 2.459 3.023 3.525 3.15 3.578l1.462.49.01 1.537v3.605H537.805v-5.268l1.62-.417c.295-.088 3.132-.933 3.132-3.525v-54.801c0-2.57-3.353-3.935-3.38-3.935l-1.358-.55-.014-1.463v-3.553h68.465v5.497l-1.848.266s-1.866.508-1.866 4.734" style="fill:#314093;fill-opacity:1;fill-rule:nonzero;stroke:none;stroke-width:.350726" transform="matrix(1.33333 0 0 -1.33333 -498.716 278.58)"/><path d="M491.607 64.508c.137-1.214 5.573-50.193 5.696-51.262a3380.47 3380.47 0 0 0-10.455-1.817c-.133 1.185-2.4 21.633-2.4 21.633l-28.492-4.963s2.353-21.093 2.448-21.93c-.8-.348-52.384-22.535-52.97-22.788-.505.34-11.188 7.478-11.55 7.72-.108.438-7.046 28.31-7.133 28.668l5.927 15.411c.438.197 34.347 14.79 36.75 15.828a4195.509 4195.509 0 0 0-4.69-12.268l-28.525-12.282 8.263-33.239 42.67 18.35s-4.805 43.266-4.931 44.357c.95.157 9.388 1.623 10.451 1.81.133-1.186 2.403-21.63 2.403-21.63l28.49 4.956s-2.291 20.57-2.407 21.63c.947.16 9.393 1.63 10.455 1.816zm.418 1.284-12.185-2.119s2.29-20.573 2.41-21.626c-1.038-.182-24.961-4.345-26.136-4.545-.13 1.185-2.4 21.63-2.4 21.63l-12.804-2.228s4.854-43.725 4.952-44.588c-.786-.333-39.327-16.912-40.568-17.445-.316 1.28-7.45 29.956-7.681 30.892.901.382 28.068 12.08 28.068 12.08l5.875 15.378-39.818-17.14-6.236-16.231 7.337-29.482 12.469-8.333 54.376 23.38s-2.3 20.646-2.416 21.702c1.038.182 24.964 4.349 26.132 4.552.134-1.192 2.4-21.632 2.4-21.632l12.808 2.216-5.956 53.65-.627-.111" style="fill:#bcbfc6;fill-opacity:1;fill-rule:nonzero;stroke:none;stroke-width:.350726" transform="matrix(1.33333 0 0 -1.33333 -498.716 278.58)"/></svg>