<svg xmlns="http://www.w3.org/2000/svg" xml:space="preserve" width="589.33887" height="500" viewBox="0 0 589.33887 500"><defs><linearGradient id="b" x1="0" x2="1" y1="0" y2="0" gradientTransform="matrix(647.706 0 0 -647.706 562.559 2361.39)" gradientUnits="userSpaceOnUse" spreadMethod="pad"><stop offset="0" style="stop-opacity:1;stop-color:#f4f4f4"/><stop offset="1" style="stop-opacity:1;stop-color:#bdbcbc"/></linearGradient><linearGradient id="d" x1="0" x2="1" y1="0" y2="0" gradientTransform="scale(-393.966 393.966) rotate(48.251 -6.17 .25)" gradientUnits="userSpaceOnUse" spreadMethod="pad"><stop offset="0" style="stop-opacity:1;stop-color:#1b3072"/><stop offset="1" style="stop-opacity:1;stop-color:#99def9"/></linearGradient><linearGradient id="f" x1="0" x2="1" y1="0" y2="0" gradientTransform="scale(-326.264 326.264) rotate(52.978 -6.991 .844)" gradientUnits="userSpaceOnUse" spreadMethod="pad"><stop offset="0" style="stop-opacity:1;stop-color:#1b3072"/><stop offset="1" style="stop-opacity:1;stop-color:#99def9"/></linearGradient><linearGradient id="h" x1="0" x2="1" y1="0" y2="0" gradientTransform="scale(-219.396 219.396) rotate(51.598 -10.548 .81)" gradientUnits="userSpaceOnUse" spreadMethod="pad"><stop offset="0" style="stop-opacity:1;stop-color:#1b3072"/><stop offset="1" style="stop-opacity:1;stop-color:#99def9"/></linearGradient><linearGradient id="j" x1="0" x2="1" y1="0" y2="0" gradientTransform="scale(-384.183 384.183) rotate(48.251 -6.442 .182)" gradientUnits="userSpaceOnUse" spreadMethod="pad"><stop offset="0" style="stop-opacity:1;stop-color:#1b3072"/><stop offset="1" style="stop-opacity:1;stop-color:#99def9"/></linearGradient><linearGradient id="l" x1="0" x2="1" y1="0" y2="0" gradientTransform="scale(-318.066 318.066) rotate(48.251 -7.857 0)" gradientUnits="userSpaceOnUse" spreadMethod="pad"><stop offset="0" style="stop-opacity:1;stop-color:#1b3072"/><stop offset="1" style="stop-opacity:1;stop-color:#99def9"/></linearGradient><linearGradient id="n" x1="0" x2="1" y1="0" y2="0" gradientTransform="scale(-271.367 271.367) rotate(52.978 -8.618 .628)" gradientUnits="userSpaceOnUse" spreadMethod="pad"><stop offset="0" style="stop-opacity:1;stop-color:#1b3072"/><stop offset="1" style="stop-opacity:1;stop-color:#99def9"/></linearGradient><linearGradient id="p" x1="0" x2="1" y1="0" y2="0" gradientTransform="scale(-308.295 308.295) rotate(48.251 -8.25 -.092)" gradientUnits="userSpaceOnUse" spreadMethod="pad"><stop offset="0" style="stop-opacity:1;stop-color:#1b3072"/><stop offset="1" style="stop-opacity:1;stop-color:#99def9"/></linearGradient><linearGradient id="r" x1="0" x2="1" y1="0" y2="0" gradientTransform="scale(393.956) rotate(48.251 -3.901 5.315)" gradientUnits="userSpaceOnUse" spreadMethod="pad"><stop offset="0" style="stop-opacity:1;stop-color:#1b3072"/><stop offset="1" style="stop-opacity:1;stop-color:#99def9"/></linearGradient><linearGradient id="t" x1="0" x2="1" y1="0" y2="0" gradientTransform="rotate(52.978 -1387.366 2068.592) scale(326.257)" gradientUnits="userSpaceOnUse" spreadMethod="pad"><stop offset="0" style="stop-opacity:1;stop-color:#1b3072"/><stop offset="1" style="stop-opacity:1;stop-color:#99def9"/></linearGradient><linearGradient id="v" x1="0" x2="1" y1="0" y2="0" gradientTransform="scale(219.39) rotate(51.598 -6.475 9.238)" gradientUnits="userSpaceOnUse" spreadMethod="pad"><stop offset="0" style="stop-opacity:1;stop-color:#1b3072"/><stop offset="1" style="stop-opacity:1;stop-color:#99def9"/></linearGradient><linearGradient id="x" x1="0" x2="1" y1="0" y2="0" gradientTransform="rotate(48.251 -1581.143 2065.332) scale(384.174)" gradientUnits="userSpaceOnUse" spreadMethod="pad"><stop offset="0" style="stop-opacity:1;stop-color:#1b3072"/><stop offset="1" style="stop-opacity:1;stop-color:#99def9"/></linearGradient><linearGradient id="z" x1="0" x2="1" y1="0" y2="0" gradientTransform="scale(318.06) rotate(48.251 -5.047 6.275)" gradientUnits="userSpaceOnUse" spreadMethod="pad"><stop offset="0" style="stop-opacity:1;stop-color:#1b3072"/><stop offset="1" style="stop-opacity:1;stop-color:#99def9"/></linearGradient><linearGradient id="B" x1="0" x2="1" y1="0" y2="0" gradientTransform="rotate(52.978 -1444.935 1963.93) scale(271.369)" gradientUnits="userSpaceOnUse" spreadMethod="pad"><stop offset="0" style="stop-opacity:1;stop-color:#1b3072"/><stop offset="1" style="stop-opacity:1;stop-color:#99def9"/></linearGradient><linearGradient id="D" x1="0" x2="1" y1="0" y2="0" gradientTransform="scale(308.288) rotate(48.251 -5.35 6.381)" gradientUnits="userSpaceOnUse" spreadMethod="pad"><stop offset="0" style="stop-opacity:1;stop-color:#1b3072"/><stop offset="1" style="stop-opacity:1;stop-color:#99def9"/></linearGradient><clipPath id="a" clipPathUnits="userSpaceOnUse"><path d="M602.824 2205.12c-86.289 156.59-29.332 353.55 127.328 439.87 156.614 86.31 353.528 29.29 439.868-127.33 86.28-156.62 29.27-353.53-127.35-439.88-156.596-86.27-353.522-29.3-439.846 127.34z"/></clipPath><clipPath id="c" clipPathUnits="userSpaceOnUse"><path d="m591.613 2049.77-39.961-21 342.071-394.39z"/></clipPath><clipPath id="e" clipPathUnits="userSpaceOnUse"><path d="m591.613 2049.77 302.11-415.39-262.168 394.39z"/></clipPath><clipPath id="g" clipPathUnits="userSpaceOnUse"><path d="m623.941 2073.27 269.782-438.89-262.168 394.39Z"/></clipPath><clipPath id="i" clipPathUnits="userSpaceOnUse"><path d="m623.941 2073.27 269.782-438.89-237.453 470.39Z"/></clipPath><clipPath id="k" clipPathUnits="userSpaceOnUse"><path d="m743.59 2065.27 150.133-430.89-110.172 451.91Z"/></clipPath><clipPath id="m" clipPathUnits="userSpaceOnUse"><path d="m823.492 2065.27 70.231-430.89-110.172 451.91z"/></clipPath><clipPath id="o" clipPathUnits="userSpaceOnUse"><path d="m848.199 2141.29 45.524-506.91-77.852 475.39"/></clipPath><clipPath id="q" clipPathUnits="userSpaceOnUse"><path d="m1195.81 2049.77 39.96-21-342.047-394.39z"/></clipPath><clipPath id="s" clipPathUnits="userSpaceOnUse"><path d="m1195.81 2049.77-302.087-415.39 262.127 394.39Z"/></clipPath><clipPath id="u" clipPathUnits="userSpaceOnUse"><path d="m1163.48 2073.27-269.757-438.89 262.127 394.39Z"/></clipPath><clipPath id="w" clipPathUnits="userSpaceOnUse"><path d="m1163.48 2073.27-269.757-438.89 237.427 470.39Z"/></clipPath><clipPath id="y" clipPathUnits="userSpaceOnUse"><path d="m1043.84 2065.27-150.117-430.89 110.177 451.91Z"/></clipPath><clipPath id="A" clipPathUnits="userSpaceOnUse"><path d="m963.926 2065.27-70.203-430.89 110.177 451.91Z"/></clipPath><clipPath id="C" clipPathUnits="userSpaceOnUse"><path d="m939.23 2141.29-45.507-506.91 77.836 475.39"/></clipPath></defs><path d="M88.641 201.148c19.322 0 34.98 15.661 34.981 34.981 0 19.32-15.664 34.98-34.98 34.98-19.323 0-34.982-15.66-34.982-34.981 0-19.319 15.661-34.98 34.981-34.98" style="fill:#1d337a;fill-opacity:1;fill-rule:nonzero;stroke:none;stroke-width:.1" transform="matrix(4.25506 0 0 -4.25506 -84.084 1189.442)"/><path d="m48.314 252.993.48 1.176 1.712-2.369 3.405.279-.492-1.206-3.124-.153-.005-.015 2.621-1.071-.435-1.07-5.119 2.089.438 1.072 2.19-.895.006.014-1.677 2.149M53.914 257.695c-1.209.739-1.775.986-2.114.431-.34-.555.14-.947 1.348-1.683 1.209-.739 1.776-.987 2.113-.43.341.555-.138.944-1.347 1.682zm-1.376-2.254c-1.249.762-2.438 1.488-1.445 3.116.994 1.627 2.184.9 3.43.14 1.234-.755 2.439-1.488 1.446-3.116-.995-1.627-2.196-.893-3.43-.14M56.784 262.248l.334.39c.3.35.035.747-.232.975-.4.343-.697.307-.935.027l-.336-.388zm2.382-2.044-.753-.876-4.194 3.599 1.391 1.622c.514.598 1.225.652 1.94.038.534-.458.756-1.011.36-1.662l.013-.008c.186.172.721.7 1.477.052.267-.229 1.072-.889 1.316-.959l-.739-.858c-.354.104-.618.37-.892.604-.5.43-.884.839-1.462.165l-.195-.226 1.738-1.491M62.46 263.715l-3.607 4.185 2.283 1.971.555-.644-1.409-1.216.89-1.03 1.3 1.119.555-.644-1.3-1.118 1.055-1.225 1.455 1.254.556-.642-2.332-2.01M65.924 271.928l-.013-.008.815-2.306.936.581zm.468-4.967-1.62 5.502 1.29.805 4.197-3.899-1.033-.642-.907.878-1.34-.833.382-1.208-.969-.603M72.246 270.362l-2.09 5.12 1.446.589 2.808-2.99.013.008-1.445 3.544 1 .406 2.088-5.117-1.412-.576-2.922 3.173-.014-.005 1.526-3.742-.998-.41M83.501 273.55c-1.42-.186-1.796.613-1.86 1.569l1.146.154c.068-.526.15-.962.779-.878.389.05.544.325.494.697-.128.986-2.444.741-2.659 2.375-.115.856.204 1.594 1.601 1.78 1.117.146 1.736-.281 1.813-1.437l-1.117-.149c-.054.41-.178.82-.64.759-.373-.05-.565-.285-.516-.664.138-1.039 2.434-.643 2.66-2.366.189-1.418-.828-1.724-1.7-1.84M87.918 274.01l.103 5.526 3.017-.057-.017-.848-1.859.035-.026-1.362 1.715-.032-.016-.85-1.715.032-.03-1.614 1.92-.038-.014-.848-3.078.056M95.075 276.628l.506-.088c.452-.077.659.354.718.7.088.522-.098.756-.46.817l-.504.087zm-.528-3.095-1.14.194.93 5.448 2.106-.358c.777-.132 1.19-.716 1.031-1.644-.117-.694-.478-1.168-1.238-1.163l-.004-.016c.245-.072.974-.259.806-1.24-.057-.347-.21-1.377-.143-1.623l-1.118.192c-.094.358 0 .722.059 1.077.112.649.266 1.191-.61 1.338l-.292.051-.387-2.256M99.276 272.484l1.615 5.285 1.104-.338-1.613-5.286-1.106.339M102.947 271.244l2.244 5.052 2.756-1.225-.344-.776-1.701.755-.551-1.245 1.566-.696-.345-.777-1.568.695-.654-1.475 1.756-.78-.347-.777-2.812 1.249M109.135 267.952c-1.206.769-.979 1.624-.413 2.396l.974-.62c-.283-.445-.503-.831.032-1.174.33-.21.627-.099.829.218.534.838-1.395 2.142-.508 3.527.464.731 1.183 1.09 2.371.332.948-.604 1.147-1.331.461-2.265l-.949.604c.223.35.392.741-.003.993-.315.202-.614.148-.82-.175-.564-.885 1.447-2.059.514-3.524-.77-1.207-1.745-.784-2.488-.312M115.152 263.411l.678.653c2.784.345 3.216.271 3.696.734.194.185.307.431.095.653-.31.319-.628.042-.877-.195l-.749.776c.665.746 1.448.726 2.134.015.643-.666.813-1.385.091-2.081-.866-.834-2.819-.77-3.686-.796l1.413-1.469-.595-.572-2.2 2.282M121.442 260.297c-1.303-.956-1.559-1.19-1.304-1.535.253-.346.554-.172 1.856.782 1.327.976 1.575 1.167 1.303 1.536-.272.371-.529.191-1.855-.783zm1.203-1.613c-1.351-.992-2.286-1.546-3.137-.385-.852 1.162-.044 1.885 1.306 2.878 1.648 1.21 2.333 1.427 3.113.366.779-1.062.366-1.649-1.282-2.859M124.431 255.717c-1.417-.777-1.702-.976-1.495-1.352.205-.375.525-.243 1.943.531 1.444.791 1.715.947 1.497 1.351-.222.402-.501.259-1.945-.53zm.979-1.76c-1.471-.805-2.469-1.229-3.159.034-.691 1.264.205 1.874 1.675 2.679 1.793.981 2.502 1.107 3.133-.048.632-1.156.146-1.686-1.649-2.665M126.26 249.573c.628.244.878.429.73.808-.151.393-.524.281-1.154.038-.294-.112-.878-.338-.719-.752.131-.343.371-.39 1.143-.094zm2.243.972a.58.58 0 0 1 .296.189c.064.089.081.195.027.338-.171.443-.399.371-1.662-.116.348-.186.507-.298.651-.668.356-.929-.396-1.424-1.16-1.718-1.036-.4-1.848-.277-2.278.844-.501 1.3.577 1.823 1.6 2.216 1.984.766 3.018 1.041 3.567-.38.291-.758.188-1.445-.637-1.756l-.404 1.051" style="fill:#f1511b;fill-opacity:1;fill-rule:nonzero;stroke:none;stroke-width:.1" transform="matrix(4.25506 0 0 -4.25506 -84.084 1189.442)"/><g clip-path="url(#a)" transform="matrix(.4255 0 0 -.4255 -84.084 1189.442)"><path d="M602.824 2205.12c-86.289 156.59-29.332 353.55 127.328 439.87 156.614 86.31 353.528 29.29 439.868-127.33 86.28-156.62 29.27-353.53-127.35-439.88-156.596-86.27-353.522-29.3-439.846 127.34" style="fill:url(#b);fill-opacity:1;fill-rule:nonzero;stroke:none"/></g><path d="m73.236 260.531-3.283.518-.499.832-1.204-3.478c-.113-.316.015-.538.18-.597l.21-.074c.174-.061.412.068.508.35l.949 2.702.488-.81 2.512-.386c.293-.05.518.1.547.287l.035.217c.025.176-.111.392-.443.439" style="fill:#233d91;fill-opacity:1;fill-rule:nonzero;stroke:none;stroke-width:.1" transform="matrix(4.25506 0 0 -4.25506 -84.084 1189.442)"/><path d="m74.807 257.349-3.242.75-.436.864-1.446-3.384c-.136-.308-.022-.539.137-.61l.204-.087c.172-.073.42.04.535.313l1.135 2.631.428-.846 2.479-.56c.287-.07.525.065.568.248l.048.216c.038.17-.083.394-.41.465" style="fill:#233d91;fill-opacity:1;fill-rule:nonzero;stroke:none;stroke-width:.1" transform="matrix(4.25506 0 0 -4.25506 -84.084 1189.442)"/><path d="m76.152 254.069-3.179.976-.374.888-1.681-3.273c-.16-.297-.062-.534.091-.618l.194-.1c.172-.086.422.008.559.273l1.315 2.545.368-.871 2.433-.737c.286-.086.53.028.586.208l.063.211c.051.169-.055.403-.375.498" style="fill:#233d91;fill-opacity:1;fill-rule:nonzero;stroke:none;stroke-width:.1" transform="matrix(4.25506 0 0 -4.25506 -84.084 1189.442)"/><path d="m77.26 250.7-3.103 1.193-.309.917-1.908-3.148c-.177-.284-.099-.53.046-.623l.194-.116c.16-.095.418-.02.573.238l1.489 2.442.31-.892 2.372-.906c.28-.108.53-.009.599.166l.078.208c.064.164-.026.404-.341.521" style="fill:#233d91;fill-opacity:1;fill-rule:nonzero;stroke:none;stroke-width:.1" transform="matrix(4.25506 0 0 -4.25506 -84.084 1189.442)"/><path d="m78.134 247.261-3.015 1.408-.244.934-2.123-3.005c-.2-.27-.137-.52.009-.623l.176-.128c.154-.109.42-.051.59.194l1.657 2.336.246-.915 2.307-1.071c.265-.124.524-.044.604.124l.095.202c.072.159 0 .404-.302.544" style="fill:#233d91;fill-opacity:1;fill-rule:nonzero;stroke:none;stroke-width:.1" transform="matrix(4.25506 0 0 -4.25506 -84.084 1189.442)"/><path d="m78.76 243.77-2.907 1.617-.178.951-2.33-2.851c-.215-.256-.172-.509-.038-.622l.173-.142c.146-.118.411-.079.6.154l1.818 2.21.178-.928 2.223-1.227c.264-.144.527-.083.619.079l.104.196c.086.153.032.403-.262.563" style="fill:#233d91;fill-opacity:1;fill-rule:nonzero;stroke:none;stroke-width:.1" transform="matrix(4.25506 0 0 -4.25506 -84.084 1189.442)"/><path d="m79.14 240.244-2.785 1.816-.11.963-2.525-2.682c-.233-.238-.208-.498-.08-.618l.16-.153c.137-.127.407-.106.608.108l1.97 2.082.115-.937 2.132-1.383c.249-.164.514-.121.62.035l.12.188c.094.148.056.401-.225.581" style="fill:#233d91;fill-opacity:1;fill-rule:nonzero;stroke:none;stroke-width:.1" transform="matrix(4.25506 0 0 -4.25506 -84.084 1189.442)"/><path d="m79.275 236.701-2.652 2.008-.047.965-2.703-2.496c-.252-.226-.241-.483-.123-.612l.151-.163c.124-.136.396-.136.613.068l2.11 1.933.05-.945 2.029-1.525c.235-.18.505-.157.62-.009l.134.179c.103.139.088.394-.182.597" style="fill:#233d91;fill-opacity:1;fill-rule:nonzero;stroke:none;stroke-width:.1" transform="matrix(4.25506 0 0 -4.25506 -84.084 1189.442)"/><path d="m79.157 233.154-2.504 2.19.023.968-2.876-2.302c-.262-.207-.272-.464-.164-.599l.139-.178c.116-.143.386-.16.617.027l2.239 1.781-.017-.944 1.919-1.666c.222-.197.496-.192.62-.052l.142.167c.117.134.115.392-.138.608" style="fill:#233d91;fill-opacity:1;fill-rule:nonzero;stroke:none;stroke-width:.1" transform="matrix(4.25506 0 0 -4.25506 -84.084 1189.442)"/><path d="m78.793 229.625-2.344 2.359.092.964-3.031-2.093c-.278-.185-.304-.442-.207-.586l.125-.185c.107-.153.374-.188.618-.018l2.361 1.62-.085-.942 1.8-1.797c.206-.209.475-.223.608-.093l.159.157c.124.124.142.381-.096.614" style="fill:#233d91;fill-opacity:1;fill-rule:nonzero;stroke:none;stroke-width:.1" transform="matrix(4.25506 0 0 -4.25506 -84.084 1189.442)"/><path d="m78.18 226.132-2.173 2.519.159.953-3.169-1.876c-.291-.166-.335-.419-.25-.57l.112-.192c.1-.161.361-.214.618-.061l2.468 1.45-.151-.936 1.668-1.915c.191-.229.462-.259.602-.139l.168.146c.134.114.172.373-.052.621" style="fill:#233d91;fill-opacity:1;fill-rule:nonzero;stroke:none;stroke-width:.1" transform="matrix(4.25506 0 0 -4.25506 -84.084 1189.442)"/><path d="m77.325 222.691-1.993 2.663.228.94-3.293-1.647c-.301-.147-.365-.397-.287-.553l.097-.2c.083-.164.344-.242.61-.104l2.563 1.271-.214-.917 1.527-2.031c.178-.239.444-.29.594-.179l.175.135c.142.103.195.355-.007.622" style="fill:#233d91;fill-opacity:1;fill-rule:nonzero;stroke:none;stroke-width:.1" transform="matrix(4.25506 0 0 -4.25506 -84.084 1189.442)"/><path d="m76.23 219.315-1.8 2.8.292.921-3.398-1.415c-.313-.123-.396-.368-.329-.531l.085-.204c.073-.173.328-.265.599-.151l2.65 1.094-.28-.906 1.38-2.128c.16-.251.424-.321.578-.223l.186.123c.15.092.22.341.037.62" style="fill:#233d91;fill-opacity:1;fill-rule:nonzero;stroke:none;stroke-width:.1" transform="matrix(4.25506 0 0 -4.25506 -84.084 1189.442)"/><path d="m74.898 216.028-1.595 2.915.355.899-3.489-1.171c-.32-.101-.419-.337-.367-.503l.07-.213c.06-.175.311-.286.59-.192l2.717.904-.341-.882 1.228-2.223c.141-.26.4-.348.56-.26l.196.108c.153.085.244.327.076.618" style="fill:#233d91;fill-opacity:1;fill-rule:nonzero;stroke:none;stroke-width:.1" transform="matrix(4.25506 0 0 -4.25506 -84.084 1189.442)"/><path d="m73.345 212.841-1.39 3.021.417.871-3.564-.922c-.328-.079-.44-.311-.4-.48l.055-.217c.05-.177.292-.306.577-.23l2.773.712-.403-.856 1.068-2.304c.124-.272.375-.378.543-.301l.202.095c.158.073.264.309.122.611" style="fill:#233d91;fill-opacity:1;fill-rule:nonzero;stroke:none;stroke-width:.1" transform="matrix(4.25506 0 0 -4.25506 -84.084 1189.442)"/><path d="m71.57 209.771-1.176 3.109.476.841-3.618-.669c-.332-.054-.461-.279-.432-.451l.04-.217c.034-.184.265-.326.558-.271l2.817.515-.465-.827.906-2.375c.102-.278.346-.403.52-.335l.208.079c.163.064.287.29.166.601M104.396 211.135l3.287-.517.494-.83 1.208 3.478c.112.317-.014.539-.181.596l-.208.075c-.176.06-.417-.07-.513-.35l-.945-2.704-.492.812-2.507.386c-.292.049-.517-.101-.552-.283l-.031-.221c-.027-.174.111-.39.44-.442" style="fill:#233d91;fill-opacity:1;fill-rule:nonzero;stroke:none;stroke-width:.1" transform="matrix(4.25506 0 0 -4.25506 -84.084 1189.442)"/><path d="m102.825 214.32 3.241-.75.436-.862 1.449 3.384c.134.307.021.536-.137.607l-.207.09c-.17.074-.418-.041-.532-.315l-1.134-2.628-.43.841-2.478.565c-.289.065-.524-.066-.569-.248l-.049-.218c-.038-.171.082-.396.41-.466" style="fill:#233d91;fill-opacity:1;fill-rule:nonzero;stroke:none;stroke-width:.1" transform="matrix(4.25506 0 0 -4.25506 -84.084 1189.442)"/><path d="m101.483 217.601 3.18-.975.372-.891 1.682 3.275c.158.294.063.534-.092.617l-.195.103c-.168.084-.425-.014-.559-.277l-1.316-2.543-.368.872-2.434.733c-.281.088-.525-.027-.583-.204l-.064-.214c-.049-.167.052-.403.377-.496" style="fill:#233d91;fill-opacity:1;fill-rule:nonzero;stroke:none;stroke-width:.1" transform="matrix(4.25506 0 0 -4.25506 -84.084 1189.442)"/><path d="m100.374 220.968 3.102-1.192.313-.917 1.904 3.151c.178.28.099.527-.051.619l-.187.118c-.162.096-.42.018-.572-.237l-1.492-2.445-.309.894-2.375.903c-.277.107-.53.012-.595-.164l-.079-.207c-.063-.165.025-.406.341-.523" style="fill:#233d91;fill-opacity:1;fill-rule:nonzero;stroke:none;stroke-width:.1" transform="matrix(4.25506 0 0 -4.25506 -84.084 1189.442)"/><path d="m99.502 224.408 3.011-1.41.246-.936 2.124 3.007c.198.273.135.524-.007.626l-.183.13c-.15.106-.415.048-.588-.2l-1.657-2.333-.243.916-2.305 1.067c-.27.127-.528.048-.61-.119l-.092-.205c-.071-.159 0-.405.304-.543" style="fill:#233d91;fill-opacity:1;fill-rule:nonzero;stroke:none;stroke-width:.1" transform="matrix(4.25506 0 0 -4.25506 -84.084 1189.442)"/><path d="m98.873 227.899 2.905-1.616.183-.952 2.327 2.852c.215.255.174.509.037.62l-.17.144c-.146.117-.414.078-.602-.155l-1.818-2.212-.177.93-2.228 1.225c-.259.147-.52.084-.612-.077l-.11-.193c-.083-.156-.03-.406.265-.566" style="fill:#233d91;fill-opacity:1;fill-rule:nonzero;stroke:none;stroke-width:.1" transform="matrix(4.25506 0 0 -4.25506 -84.084 1189.442)"/><path d="m98.493 231.423 2.784-1.814.111-.964 2.523 2.684c.237.24.209.495.085.616l-.16.154c-.138.128-.408.107-.611-.111l-1.972-2.078-.113.938-2.135 1.379c-.245.166-.513.124-.615-.033l-.12-.187c-.096-.148-.061-.402.223-.584" style="fill:#233d91;fill-opacity:1;fill-rule:nonzero;stroke:none;stroke-width:.1" transform="matrix(4.25506 0 0 -4.25506 -84.084 1189.442)"/><path d="m98.361 234.972 2.649-2.012.047-.964 2.704 2.497c.251.224.241.48.126.609l-.153.165c-.127.136-.397.136-.613-.069l-2.109-1.935-.048.946-2.03 1.526c-.239.183-.509.155-.623.008l-.131-.177c-.107-.141-.09-.397.181-.594" style="fill:#233d91;fill-opacity:1;fill-rule:nonzero;stroke:none;stroke-width:.1" transform="matrix(4.25506 0 0 -4.25506 -84.084 1189.442)"/><path d="m98.476 238.517 2.504-2.189-.022-.966 2.874 2.298c.264.204.273.464.167.601l-.141.173c-.115.145-.386.164-.614-.026l-2.242-1.779.017.943-1.921 1.666c-.222.199-.491.189-.615.053l-.146-.17c-.114-.131-.115-.389.14-.604" style="fill:#233d91;fill-opacity:1;fill-rule:nonzero;stroke:none;stroke-width:.1" transform="matrix(4.25506 0 0 -4.25506 -84.084 1189.442)"/><path d="m98.841 242.044 2.346-2.36-.092-.961 3.028 2.091c.278.187.306.445.208.589l-.125.181c-.11.154-.376.193-.619.02l-2.359-1.62.081.943-1.798 1.793c-.207.213-.476.228-.608.097l-.16-.16c-.121-.121-.138-.38.098-.613" style="fill:#233d91;fill-opacity:1;fill-rule:nonzero;stroke:none;stroke-width:.1" transform="matrix(4.25506 0 0 -4.25506 -84.084 1189.442)"/><path d="m99.455 245.535 2.173-2.516-.162-.953 3.169 1.876c.29.164.336.419.25.57l-.113.194c-.096.158-.36.215-.617.061l-2.467-1.453.149.936-1.664 1.914c-.197.227-.463.261-.605.14l-.168-.148c-.131-.115-.169-.369.055-.621" style="fill:#233d91;fill-opacity:1;fill-rule:nonzero;stroke:none;stroke-width:.1" transform="matrix(4.25506 0 0 -4.25506 -84.084 1189.442)"/><path d="m100.306 248.979 1.994-2.663-.224-.94 3.286 1.647c.307.144.37.394.293.552l-.1.2c-.084.165-.342.237-.609.103l-2.565-1.273.215.925-1.526 2.026c-.177.239-.444.292-.594.179l-.177-.132c-.139-.107-.195-.359.007-.624" style="fill:#233d91;fill-opacity:1;fill-rule:nonzero;stroke:none;stroke-width:.1" transform="matrix(4.25506 0 0 -4.25506 -84.084 1189.442)"/><path d="m101.404 252.354 1.798-2.798-.291-.924 3.402 1.415c.31.123.392.368.324.531l-.08.204c-.076.173-.33.265-.603.148l-2.649-1.089.28.904-1.383 2.134c-.159.248-.422.316-.578.218l-.187-.123c-.144-.093-.22-.342-.033-.62" style="fill:#233d91;fill-opacity:1;fill-rule:nonzero;stroke:none;stroke-width:.1" transform="matrix(4.25506 0 0 -4.25506 -84.084 1189.442)"/><path d="m102.732 255.643 1.598-2.92-.352-.898 3.486 1.174c.322.098.42.34.366.506l-.069.208c-.062.177-.313.288-.59.192l-2.717-.904.341.88-1.227 2.224c-.142.263-.398.348-.562.262l-.197-.11c-.152-.081-.241-.324-.077-.614" style="fill:#233d91;fill-opacity:1;fill-rule:nonzero;stroke:none;stroke-width:.1" transform="matrix(4.25506 0 0 -4.25506 -84.084 1189.442)"/><path d="m104.29 258.828 1.389-3.02-.42-.873 3.567.924c.323.077.438.308.396.481l-.054.214c-.049.179-.288.309-.575.232l-2.772-.711.405.854-1.073 2.305c-.122.271-.37.377-.54.3l-.205-.094c-.157-.074-.262-.309-.118-.612" style="fill:#233d91;fill-opacity:1;fill-rule:nonzero;stroke:none;stroke-width:.1" transform="matrix(4.25506 0 0 -4.25506 -84.084 1189.442)"/><path d="m106.065 261.896 1.172-3.108-.477-.84 3.622.668c.33.057.46.28.431.452l-.039.219c-.036.183-.266.326-.556.269l-2.819-.513.463.827-.905 2.372c-.105.281-.345.405-.52.336l-.207-.077c-.164-.063-.287-.292-.165-.605" style="fill:#233d91;fill-opacity:1;fill-rule:nonzero;stroke:none;stroke-width:.1" transform="matrix(4.25506 0 0 -4.25506 -84.084 1189.442)"/><path d="M153.228 245.569h-11.184s-.948-.781-1.443-1.276v1.276h-19.807v-.421l-.591.421h-9.626l-.467-.299v.275H99.987v-.181l-.179.181h-8.952l-2.191-2.192-2.193 2.192h-14.28l-2.414-2.415-2.423 2.424h-9.627l-.693-.692v.755H37.23v-1.256l-1.42 1.421H24.625l-4.864-5.034v-24.915l39.533-34.598 20.87-17.797h18.242l20.899 17.801 38.959 33.934v25.529l-5.036 4.867" style="fill:#1d337a;fill-opacity:1;fill-rule:nonzero;stroke:none;stroke-width:.1" transform="matrix(4.25506 0 0 -4.25506 -84.084 1189.442)"/><path d="M120.7 171.8c-.023 1.655-.501 3.219-1.409 4.646v9.713l-3.914 1.313c-2.984.981-6.162.555-8.504-1.139-.705-.512-1.324-1.196-1.891-2.038l-1.816.694-.439.184-.805.31-4.217 1.585v-.628l-1.82.306-2.743.295-.605.047-2.375.178-.969.074v-.977c-1.186.506-2.393.801-3.596.801-1.266 0-2.53-.329-3.775-.892v1.01l-4.073-1.329.003-.007-.727-.23v-.002a72.614 72.614 0 0 1-3.507-1.242c.008.005-1.093-.474-1.568-.68v4.149H58.078v-2.249c.647-3.437.98-2.571 1.216-2.95v-12.786l-1.157-.163-.059-1.938v-4.95h23.744v.459c1.246-.552 2.511-.876 3.775-.876 1.203 0 2.41.297 3.596.803v-.381h12.897v.164c1.05-.409 2.142-.66 2.996-.66h3.617c2.809-.753 5.57-.395 7.779 1.013 2.682 1.714 4.219 4.696 4.219 8.187l-.001.186" style="fill:#1d337a;fill-opacity:1;fill-rule:nonzero;stroke:none;stroke-width:.1" transform="matrix(4.25506 0 0 -4.25506 -84.084 1189.442)"/><path d="m59.161 215.174 1.999-4.047 4.467-.65-3.233-3.15.761-4.45-3.994 2.1-3.996-2.1.764 4.45-3.232 3.15 4.467.65 1.997 4.047M78.355 218.825l1.997-4.048 4.468-.648-3.233-3.152.762-4.45-3.994 2.102-3.996-2.102.76 4.45-3.23 3.152 4.468.648 1.998 4.048M119.581 215.174l-1.998-4.047-4.468-.65 3.233-3.15-.763-4.45 3.996 2.1 3.996-2.1-.763 4.45 3.233 3.15-4.468.65-1.998 4.047M100.39 218.825l-2-4.048-4.467-.648 3.233-3.152-.763-4.45 3.997 2.102 3.994-2.102-.762 4.45 3.234 3.152-4.47.648-1.996 4.048" style="fill:#fff;fill-opacity:1;fill-rule:nonzero;stroke:none;stroke-width:.1" transform="matrix(4.25506 0 0 -4.25506 -84.084 1189.442)"/><g clip-path="url(#c)" transform="matrix(.4255 0 0 -.4255 -84.084 1189.442)"><path d="m591.613 2049.77-39.961-21 342.071-394.39z" style="fill:url(#d);fill-opacity:1;fill-rule:nonzero;stroke:none"/></g><g clip-path="url(#e)" transform="matrix(.4255 0 0 -.4255 -84.084 1189.442)"><path d="m591.613 2049.77 302.11-415.39-262.168 394.39z" style="fill:url(#f);fill-opacity:1;fill-rule:nonzero;stroke:none"/></g><g clip-path="url(#g)" transform="matrix(.4255 0 0 -.4255 -84.084 1189.442)"><path d="m623.941 2073.27 269.782-438.89-262.168 394.39Z" style="fill:url(#h);fill-opacity:1;fill-rule:nonzero;stroke:none"/></g><g clip-path="url(#i)" transform="matrix(.4255 0 0 -.4255 -84.084 1189.442)"><path d="m623.941 2073.27 269.782-438.89-237.453 470.39Z" style="fill:url(#j);fill-opacity:1;fill-rule:nonzero;stroke:none"/></g><g clip-path="url(#k)" transform="matrix(.4255 0 0 -.4255 -84.084 1189.442)"><path d="m743.59 2065.27 150.133-430.89-110.172 451.91Z" style="fill:url(#l);fill-opacity:1;fill-rule:nonzero;stroke:none"/></g><g clip-path="url(#m)" transform="matrix(.4255 0 0 -.4255 -84.084 1189.442)"><path d="m823.492 2065.27 70.231-430.89-110.172 451.91z" style="fill:url(#n);fill-opacity:1;fill-rule:nonzero;stroke:none"/></g><g clip-path="url(#o)" transform="matrix(.4255 0 0 -.4255 -84.084 1189.442)"><path d="m848.199 2141.29 45.524-506.91-77.852 475.39" style="fill:url(#p);fill-opacity:1;fill-rule:nonzero;stroke:none"/></g><g clip-path="url(#q)" transform="matrix(.4255 0 0 -.4255 -84.084 1189.442)"><path d="m1195.81 2049.77 39.96-21-342.047-394.39z" style="fill:url(#r);fill-opacity:1;fill-rule:nonzero;stroke:none"/></g><g clip-path="url(#s)" transform="matrix(.4255 0 0 -.4255 -84.084 1189.442)"><path d="m1195.81 2049.77-302.087-415.39 262.127 394.39Z" style="fill:url(#t);fill-opacity:1;fill-rule:nonzero;stroke:none"/></g><g clip-path="url(#u)" transform="matrix(.4255 0 0 -.4255 -84.084 1189.442)"><path d="m1163.48 2073.27-269.757-438.89 262.127 394.39Z" style="fill:url(#v);fill-opacity:1;fill-rule:nonzero;stroke:none"/></g><g clip-path="url(#w)" transform="matrix(.4255 0 0 -.4255 -84.084 1189.442)"><path d="m1163.48 2073.27-269.757-438.89 237.427 470.39Z" style="fill:url(#x);fill-opacity:1;fill-rule:nonzero;stroke:none"/></g><g clip-path="url(#y)" transform="matrix(.4255 0 0 -.4255 -84.084 1189.442)"><path d="m1043.84 2065.27-150.117-430.89 110.177 451.91Z" style="fill:url(#z);fill-opacity:1;fill-rule:nonzero;stroke:none"/></g><g clip-path="url(#A)" transform="matrix(.4255 0 0 -.4255 -84.084 1189.442)"><path d="m963.926 2065.27-70.203-430.89 110.177 451.91Z" style="fill:url(#B);fill-opacity:1;fill-rule:nonzero;stroke:none"/></g><g clip-path="url(#C)" transform="matrix(.4255 0 0 -.4255 -84.084 1189.442)"><path d="m939.23 2141.29-45.507-506.91 77.836 475.39" style="fill:url(#D);fill-opacity:1;fill-rule:nonzero;stroke:none"/></g><path d="m102.008 182.951-.744.283-1.16.437v-2.956l-1.213 2.412-.063.123-.008.016-.124.247-.187.372-.416.081-.268.05c-.008.003-1.017.195-2.14.359-1.143.17-2.52.274-2.578.277l-.594.046-.918.069v-2.798a9.256 9.256 0 0 1-.292.318c-1.538 1.598-3.511 2.48-5.56 2.48-2.36 0-4.491-1.159-6.027-3.024v2.29l-1.12-.364-.722-.238a75.804 75.804 0 0 1-3.398-1.203c-1.56-.604-3.026-1.329-3.086-1.356l-.309-.154-.475-.236V177.661s1.134.485 1.134-.429v-5.766s-1.12-1.199-2.895-1.199l-.186.003v11.305c0 1.106 1.184 1.106 1.184 1.106v2.863h-9.365v-2.863s1.217.066 1.217-1.106v-12.462c0-1.292-1.217-1.43-1.217-1.43v-2.667H79.716V167.607c.149-.183.302-.36.468-.53 1.532-1.6 3.508-2.478 5.559-2.478 2.049 0 4.022.878 5.56 2.478.128.132.25.268.368.41-.077-.213-.077-.46-.077-.706v-1.76h8.387v2.158c1.717-2.126 4.336-2.653 5.25-2.653h1.726v.88l.043-.02.143-.073.483-.233c2.757-1.335 5.596-1.297 7.793.102 2.062 1.319 3.218 3.668 3.174 6.441-.033 2.413-1.17 4.403-3.288 5.761l-1.248.837c-.502.327-1.587.925-1.312 1.386.156.265.551-.05.924-.332l2.145-1.628 1.371-1.045v7.793l-2.378.8c-2.293.751-4.706.441-6.463-.831a6.025 6.025 0 0 1-2.218-3.084c-.373.175-.801.372-1.141.514-.819.34-2.46.941-2.46.941l-.517.216" style="fill:#219f4d;fill-opacity:1;fill-rule:nonzero;stroke:none;stroke-width:.1" transform="matrix(4.25506 0 0 -4.25506 -84.084 1189.442)"/><path d="M84.825 179.203c.306.315.614.479.918.479.303 0 .612-.164.917-.479.84-.877 1.384-2.678 1.384-4.589 0-2.901-1.215-5.066-2.301-5.066-.304 0-.612.159-.916.477-.843.877-1.39 2.677-1.39 4.589 0 1.911.547 3.712 1.388 4.589zm5.862 2.422c-1.375 1.43-3.128 2.219-4.944 2.219-4.19 0-7.6-4.144-7.6-9.23 0-2.701.969-5.258 2.655-7.013 1.373-1.431 3.129-2.215 4.945-2.215 1.816 0 3.569.784 4.944 2.215 1.687 1.755 2.653 4.312 2.653 7.013 0 2.702-.966 5.258-2.653 7.011" style="fill:#1a5dad;fill-opacity:1;fill-rule:nonzero;stroke:none;stroke-width:.1" transform="matrix(4.25506 0 0 -4.25506 -84.084 1189.442)"/><path d="m77.908 168.496.003.198v11.06c0 .63.552 1.261.765 1.455l.184.16.002.249v1.167l-.724-.237a73.45 73.45 0 0 1-3.351-1.185c-1.53-.595-2.959-1.299-3.017-1.326l-.31-.152v-1.338s1.137.304 1.137-.697V171.085s-.455-.627-1.35-1.058c-.01-.005-1.198-.671-2.397-.684-.427 0-.722.017-1.046.09v12.831c0 .63.775.902.807.913l.373.128.003.397v.922H61.332v-1.351l.416-.105c.078-.024.802-.238.802-.904V168.233c0-.655-.856-1.004-.865-1.008l-.347-.135-.006-.376v-.911H78.862V167.213l-.474.064c.002.002-.48.134-.48 1.219" style="fill:#1a5dad;fill-opacity:1;fill-rule:nonzero;stroke:none;stroke-width:.1" transform="matrix(4.25506 0 0 -4.25506 -84.084 1189.442)"/><path d="M110.179 173.258" style="fill:#fff;fill-opacity:1;fill-rule:nonzero;stroke:none;stroke-width:.1" transform="matrix(4.25506 0 0 -4.25506 -84.084 1189.442)"/><path d="m114.799 176.623-.571.404-.633.405c-1.722 1.132-1.738 1.907-1.601 2.392.076.263.205.406.459.513.659.281 1.433-.222 1.735-.451l.757-.576.497-.381.888-.67v5.453l-.378.123-.209.073-1.209.405c-2.028.667-4.153.401-5.69-.709-1.05-.76-1.754-1.867-2.046-3.17 0 0-.104-.213-.115-.447l-.115.059c-.201.098-1.239.611-1.911.891-.805.334-2.413.943-2.427.948l-.525.198-.745.283v-1.461s.934-.536.934-1.698v-4.021l-3.767 7.488-.071.141-.122.242-.268.05c-.01.003-1.002.19-2.106.352-1.111.167-2.462.267-2.517.272l-.593.045v-1.354l.358-.131c.016-.01.793-.385.793-2.221v-11.403c0-1.097-.711-1.404-.793-1.438l-.35-.136-.008-.379v-.906H99.128v1.163l-.256.163-.312.201a1.688 1.688 0 0 0-.318.381c-.198.315-.254.524-.254.935v3.879l1.963-3.8c1.395-2.836 4.52-3.417 5.28-3.417h.871v12.455c0 1.016.521.841.521.841l.018-.587c.257-2.206 1.494-3.395 3.538-4.764l.645-.44.664-.447c.735-.539 1.011-.881 1.076-1.696.028-.398-.082-.745-.322-1.006-.258-.279-.643-.431-1.085-.431-.667 0-1.354.268-2.008.807l-.597.524-2.579 2.126 1.144-6.484.255-.125.148-.074.481-.236c2.48-1.199 5.015-1.177 6.955.061 1.808 1.154 2.822 3.231 2.781 5.704-.031 2.186-1.059 3.898-2.938 5.082" style="fill:#1a5dad;fill-opacity:1;fill-rule:nonzero;stroke:none;stroke-width:.1" transform="matrix(4.25506 0 0 -4.25506 -84.084 1189.442)"/><path d="M73.44 183.756c-.908-.381-1.303.079-1.516.705l.732.306c.14-.335.273-.61.676-.44.249.102.302.315.203.551-.262.633-1.76.054-2.196 1.1-.228.548-.148 1.097.746 1.469.713.297 1.204.126 1.46-.629l-.713-.298c-.11.261-.262.512-.559.387-.24-.1-.327-.292-.225-.533.278-.666 1.73.008 2.191-1.093.38-.908-.241-1.292-.799-1.525M77.322 188.415l-.01-.004.091-1.679.732.204zm-.654-3.367v3.943l1.008.282 2.011-3.392-.804-.219-.432.755-1.044-.292.016-.868-.755-.209M81.859 186.343l-.496 3.773 1.27.166.926-2.488.01.004.291 2.645 1.227.163.494-3.772-.767-.099-.382 2.906-.01-.002-.345-3.002-.753-.101-1.07 2.82h-.01l.382-2.912-.767-.101M89.129 186.878c-.99.004-1.17.584-1.128 1.24l.796-.004c0-.361.015-.667.453-.667.267 0 .4.172.4.431.002.682-1.6.729-1.597 1.862 0 .593.286 1.069 1.256 1.064.773 0 1.157-.35 1.104-1.143l-.774.001c0 .286-.048.576-.37.576-.257 0-.411-.143-.411-.405 0-.723 1.6-.66 1.598-1.856-.001-.986-.724-1.099-1.327-1.099M95.913 190.254l-.326-2.678c-.067-.564-.458-1.122-1.421-1.003-.87.105-1.233.606-1.146 1.316l.325 2.679.792-.099-.32-2.623c-.058-.465.121-.674.407-.708.345-.045.53.168.58.585l.318 2.627.791-.096M97.936 186.018l.944 3.68 1.04-.266.328-2.801.006-.001.657 2.549.717-.182-.942-3.682-1.015.259-.314 2.95-.012.002-.691-2.691-.718.183M105.69 186.307c.138.324.199.638-.192.791-.459.186-.708-.434-.984-1.116-.445-1.104-.415-1.344.003-1.512a1.27 1.27 0 0 1 .396-.08l.314.782-.401.16.219.543 1.137-.458-.719-1.788a8.005 8.005 0 0 0-1.044.283c-1.241.503-1.177 1.07-.637 2.41.357.891.768 1.775 1.972 1.29.722-.293 1.01-.877.669-1.6l-.733.295M85.743 168.998c-.46 0-.902.215-1.314.643-.952.993-1.543 2.894-1.543 4.973 0 2.077.591 3.981 1.543 4.972.412.427.854.644 1.314.644.459 0 .903-.217 1.313-.644.95-.991 1.542-2.895 1.542-4.972 0-3.044-1.31-5.616-2.855-5.616zm7.044 5.616c0 2.562-.91 4.977-2.5 6.63-1.268 1.319-2.88 2.047-4.544 2.047-3.887 0-7.046-3.893-7.046-8.677 0-2.562.91-4.979 2.501-6.634 1.266-1.316 2.88-2.043 4.545-2.043 1.664 0 3.276.727 4.543 2.043 1.59 1.655 2.5 4.072 2.5 6.634M71.916 169.222l.196.757-.662-.413s-1.215-.761-2.594-.773c-.663 0-1.042.037-1.601.22v13.251c0 1.045 1.182 1.438 1.182 1.438v.368h-6.553v-.368s1.22-.313 1.22-1.438v-14.031c0-1.051-1.22-1.519-1.22-1.519v-.36h9.276l.13.454.626 2.414" style="fill:#fff;fill-opacity:1;fill-rule:nonzero;stroke:none;stroke-width:.1" transform="matrix(4.25506 0 0 -4.25506 -84.084 1189.442)"/><path d="M72.013 179.539v-.359s1.135.162 1.135-.899v-10c0-.521-.113-.83-.4-1.108a1.105 1.105 0 0 0-.31-.223l-.425-.181v-.415h6.295v.378s-.949.137-.949 1.764v11.258c0 1.029.95 1.864.95 1.864v.407s-1.8-.587-3.322-1.178c-1.524-.591-2.974-1.308-2.974-1.308M114.566 176.16l-1.266.808c-1.546 1.015-2.131 1.972-1.835 3.008.134.456.396.712.772.869.868.369 1.793-.147 2.284-.52l.758-.576.5-.38v3.947l-.212.07-1.207.406c-1.861.612-3.798.372-5.19-.635-1.129-.818-1.813-2.058-1.952-3.546l-.028-.616c.012-2.633 1.074-3.796 3.275-5.27l1.333-.898c.835-.615 1.236-1.093 1.314-2.111.092-1.206-.801-2.031-1.955-2.031-.824 0-1.536.308-2.26.909l-1.376 1.086-.746.587.843-4.688.147-.071.477-.234c2.304-1.117 4.645-1.104 6.419.028 1.642 1.049 2.561 2.956 2.527 5.23-.03 1.987-.911 3.546-2.622 4.628M104.446 180.425c-.8.335-2.396.938-2.413.943l-.522.2v-.397s.937-.741.937-1.964v-6.341l-4.814 9.559-.07.142s-.977.184-2.084.348c-1.106.165-2.478.267-2.478.267v-.376s1.15-.429 1.15-2.736v-11.403c0-1.545-1.15-1.953-1.15-1.953v-.354h5.574v.309l-.356.229a2.273 2.273 0 0 0-.445.526c-.256.401-.34.71-.34 1.227v6.149l3.006-5.816c1.261-2.562 4.145-3.119 4.79-3.119h.317v11.903c0 1.108.439 1.394.747 1.394l.028.39c-.211.105-1.224.603-1.877.873" style="fill:#fff;fill-opacity:1;fill-rule:nonzero;stroke:none;stroke-width:.1" transform="matrix(4.25506 0 0 -4.25506 -84.084 1189.442)"/><path d="M106.957 172.988v2.023c.655-.865 1.567-1.599 2.708-2.368l1.327-.9c.618-.455.923-.922.622-1.423-.298-.5-1.435.051-1.916.45l-1.927 1.577-.814.641M84.294 174.473c0-1.676.46-3.283 1.149-3.999a.4.4 0 0 1 .599 0c.686.716 1.149 2.323 1.149 3.999v.209c0 1.676-.463 3.283-1.15 3.997a.401.401 0 0 1-.598 0c-.688-.714-1.149-2.321-1.149-3.997v-.209" style="fill:#233d91;fill-opacity:1;fill-rule:nonzero;stroke:none;stroke-width:.1" transform="matrix(4.25506 0 0 -4.25506 -84.084 1189.442)"/><path d="M32.368 243.115h-6.007l-3.441-3.44v-22.481l3.44-3.439h8.89l3.438 3.439v5.832h-6.32v-4.46h-3.13v19.738h3.13v-4.458h6.32V239.675l-3.438 3.44h-2.882M151.493 243.072h-8.887l-3.441-3.441v-10.502l3.441-3.441h6.006v-7.776h-3.128v2.509h-6.319V216.54l3.441-3.439h8.887l3.44 3.439V227.058l-3.44 3.441h-6.009v7.762h3.128v-2.507h6.321V239.631l-3.44 3.441M116.419 228.474v-2.525l-2.587.061v13.085h2.587zm0 14.598h-4.966l-2.843-2.844v-15.045l2.843-2.722 7.345-1.282 2.843 2.843v16.206l-2.843 2.844h-2.379M131.702 243.072v-10.303l-2.846 10.303h-5.745v-22.867l5.745-1.405v8.645l2.846-9.315 5.744-1.527v26.469h-5.744M64.097 233.988h-2.586v4.927h2.586zm0 8.902h-4.965l-2.842-2.842V221.06l5.221.793v8.159h2.586v-7.796l5.225.549V240.048l-2.844 2.842h-2.38M107.261 223.302l-4.748.609v18.969h4.748v-19.578M96.443 232.926h-2.35v6.339h2.35zm0 9.954h-4.511l-2.587-2.583v-16.264h4.748v5.278h4.514l2.586 2.584V240.297l-2.586 2.583h-2.164M83.243 242.88h-9.791l-2.585-2.583v-17.302l4.748.304v15.966h1.436v-15.796l4.747.183v15.613h1.445v-15.506l4.748.14v16.398l-2.585 2.583h-2.163M48.973 242.953v-9.733H46.13v9.733h-5.748v-25.86l5.748 1.831v9.921h2.843v-9.311l5.745 1.223V242.953h-5.745" style="fill:#fff;fill-opacity:1;fill-rule:nonzero;stroke:none;stroke-width:.1" transform="matrix(4.25506 0 0 -4.25506 -84.084 1189.442)"/><path d="M108.405 245.545h2.845l-1.442-1.44z" style="fill:#314093;fill-opacity:1;fill-rule:nonzero;stroke:none;stroke-width:.1" transform="matrix(4.25506 0 0 -4.25506 -84.084 1189.442)"/><path d="M37.507 222.55v-4.791c-.162-.161-2.507-2.509-2.67-2.668h-8.244v-.599h8.495l3.019 3.018v5.04h-.6M34.676 241.992s2.71-2.711 2.876-2.875v-4.108h-4.581v-.602h5.182v4.959l-3.051 3.05-.426-.424M28.345 239.484h-.3v-20.869h.601v20.267h3.677v.602h-3.978M44.952 242.416v-9.165h.6v9.165h-.6M45.23 230.04h-.3v-10.134c-.387-.116-4.015-1.188-4.015-1.188l.17-.575 4.447 1.313v9.984h3.455v.6H45.23M53.594 242.375v-20.448l-4.076-.989.143-.582 4.534 1.097v20.922h-.601M60.703 240.064h-.3v-6.071h.603v5.469h3.022v.602h-3.325M60.646 231.179h-.301v-8.121c-.433-.075-3.482-.612-3.482-.612l.105-.59 3.978.697v8.025h3v.601h-3.3M65.736 241.671l2.201-2.182v-15.601l-3.131-.422.078-.596 3.655.494v16.375l-2.381 2.359-.422-.427M74.674 240.346h-.302v-15.907l-2.658-.217.048-.598 3.211.261v15.861h1.788v.6h-2.087M80.907 240.346h-.302v-15.558c-.468-.027-2.836-.156-2.836-.156l.033-.599 3.404.184v15.529h1.787v.6h-2.086M84.774 241.743l2.07-2.055v-14.603l-2.96-.048.012-.603 3.55.061v15.442l-2.248 2.233-.424-.427M97.99 241.966l1.98-2.309v-7.23c-.153-.155-1.739-1.74-1.892-1.894h-5.13v-5.285h-2.966v-.601h3.568v5.284h4.776l2.245 2.246v7.703l-2.124 2.476-.457-.39M93.218 240.293h-.3v-7.34h.6v6.738h2.83v.602h-3.13M106.005 242.395v-17.787c-.544.078-2.809.408-2.809.408l-.087-.595 3.498-.508v18.482h-.602M112.954 240.207h-.301v-14.014h.6v13.413h3.654v.601h-3.953" style="fill:#b0860d;fill-opacity:1;fill-rule:nonzero;stroke:none;stroke-width:.1" transform="matrix(4.25506 0 0 -4.25506 -84.084 1189.442)"/><path d="M118.105 242.141s2.179-2.179 2.342-2.344v-15.152l-2.172-2.148-6.521 1.221-.111-.59 6.831-1.281 2.574 2.548v15.651l-2.52 2.519-.423-.424M127.793 242.283l2.737-9.899.58.158-2.737 9.899-.58-.158M136.143 242.345v-24.124l-4.003.98-.145-.584 4.75-1.163v24.891h-.602M127.63 227.354v-6.93l-3.944.952-.142-.586 4.688-1.13v7.694h-.602M150.909 242.018l2.886-3.007v-1.994h-4.642v-.602h5.243v2.838l-3.054 3.181-.433-.416M144.653 239.341h-.302v-8.822h.603v8.221h3.669v.601h-3.97M150.754 229.442s2.774-2.681 2.946-2.849v-9.264l-2.731-2.825h-7.814v-.601h8.068l3.078 3.183v9.763l-3.128 3.024-.419-.431M143.226 226.858v-.601h5.433v.601h-5.433" style="fill:#b0860d;fill-opacity:1;fill-rule:nonzero;stroke:none;stroke-width:.1" transform="matrix(4.25506 0 0 -4.25506 -84.084 1189.442)"/><path d="M144.266 219.841v-2.102h.6v2.102h-.6" style="fill:#b0860d;fill-opacity:1;fill-rule:nonzero;stroke:none;stroke-width:.1" transform="matrix(4.25506 0 0 -4.25506 -84.084 1189.442)"/></svg>