<svg xmlns="http://www.w3.org/2000/svg" xml:space="preserve" width="481.02396" height="500" viewBox="0 0 481.02396 500"><defs><clipPath id="a" clipPathUnits="userSpaceOnUse"><path d="M3446.32 5416.35c4.74-265.55-206.69-484.68-472.26-489.43s-484.72 206.7-489.46 472.25c-4.77 265.58 206.71 484.71 472.27 489.45 265.55 4.75 484.7-206.69 489.45-472.27"/></clipPath></defs><path d="M296.529 491.618c-12.946 0-25.168 4.998-34.416 14.073-9.259 9.086-14.487 21.234-14.719 34.207-.235 13.128 4.657 25.562 13.775 35.013 9.117 9.449 21.37 14.782 34.498 15.016.301.006.6.008.899.008 12.943 0 25.165-4.997 34.413-14.073 9.258-9.086 14.486-21.234 14.718-34.207.484-27.101-21.172-49.544-48.272-50.029a53.624 53.624 0 0 0-.896-.008" style="fill:#fff;fill-opacity:1;fill-rule:nonzero;stroke:none;stroke-width:.1" transform="matrix(3.72428 0 0 -3.72428 -865.673 2201.055)"/><path d="M296.566 591.001c-.305 0-.614-.003-.917-.008-6.779-.122-13.331-1.567-19.476-4.297a50.026 50.026 0 0 1-15.77-11.046 50.02 50.02 0 0 1-10.476-16.153c-2.509-6.24-3.72-12.841-3.598-19.619.237-13.253 5.578-25.665 15.037-34.948a50.114 50.114 0 0 1 15.861-10.526 49.86 49.86 0 0 1 20.216-3.843c6.78.121 13.332 1.567 19.478 4.297a50.053 50.053 0 0 1 15.768 11.045 50.066 50.066 0 0 1 10.475 16.154c2.51 6.238 3.72 12.839 3.599 19.616-.238 13.254-5.578 25.666-15.038 34.949a50.083 50.083 0 0 1-15.859 10.528 49.877 49.877 0 0 1-19.3 3.851zm0-2.131c26.16 0 47.596-20.971 48.066-47.234.474-26.556-20.669-48.469-47.226-48.944a51.564 51.564 0 0 0-.877-.008c-26.163 0-47.601 20.97-48.069 47.233-.477 26.558 20.671 48.471 47.227 48.945.293.006.585.008.879.008" style="fill:#0f1032;fill-opacity:1;fill-rule:nonzero;stroke:none;stroke-width:.1" transform="matrix(3.72428 0 0 -3.72428 -865.673 2201.055)"/><g clip-path="url(#a)" transform="matrix(.37243 0 0 -.37243 -865.673 2201.055)"><path d="m2510.9 4984.82 17.68-15.47-5.05 30.06zM2524.32 5000.06l-34.28 30.71 19.98 20.72 31.65-28.47-17.35-22.96M2542.19 5023.41l14.77-57.46 16.75 23.32-14.85 58.39-16.67-24.25M2559.91 5049.05l-37.5 21.94 17.44 24.74 35.22-20.41-15.16-26.27M2575.67 5075.83l19.93-53.58 14.8 26.67-20 54.72-14.73-27.81M2590.68 5104.87l-39.61 13.01 15.59 28.21 37.03-12.27-13.01-28.95M2604.36 5134.38l24.63-48.04 12.54 30.32-24.9 48.77-12.27-31.05M2616.74 5166.02l-40.69 4.41 12.2 30.84 38.56-3.93-10.07-31.32M2627.53 5198.46l28.78-41.4 10.31 32.01-29.88 41.86-9.21-32.47M2637.19 5232.14l-41.5-5.21 9.48 33.2 39.09 4.59-7.07-32.58M2644.22 5265.75l33.33-33.88 7.18 34.06-33.82 33.59-6.69-33.77M2650.91 5301.22l-40.56-14.95 6.39 34.51 38.82 13.53-4.65-33.09M2655.66 5335.95l36.49-25.46 3.63 34.11-36.76 25.57-3.36-34.22M2658.77 5371.41l-39.81-22.85 3.72 34.99 36.86 21.33-.77-33.47M2659.89 5406.36l39.19-16.61.32 34.26-39.76 17.05.25-34.7M2659.94 5442.14l-37.12-31.12-.1 35.07 35.02 29.55 2.2-33.5M2657.92 5477.06l40.36-7.79-2.34 33.53-41.26 7.65 3.24-33.39M2654.03 5511.67l-34.23-39.35-3.11 34.58 32.97 36.68 4.37-31.91M2649.28 5545.09l41.12 1.53-5.98 31.96-41.69-1.53 6.55-31.96M2642.65 5578.16l-30.71-45.44-7.05 32.14 29.29 43.55 8.47-30.25M2634.24 5609.41l40.91 10.93-8.64 30.43-41.9-11.49 9.63-29.87M2624.15 5640.75l-26.72-52.32-9.31 30.63 25.4 48.7 10.63-27.01M2613.11 5669.31l39.85 19.75-11.2 27.62-41.47-20.31 12.82-27.06M2600.1 5696.64l-22.02-55.84-12.22 27.57 20.82 53.46 13.42-25.19M2586.49 5722.85l37.99 28.29-14.26 24.34-38.78-28.71 15.05-23.92M2570.92 5747.43l-16.66-60.43-15.05 24.27 15.86 57.05 15.85-20.89M2554.68 5769.34l35.61 35.97-5.47 7.63c-22.25-15.67-39.52-32.64-39.52-32.64l9.38-10.96M2533.33 5768.04l-7.61-40.81-14.23 16.98zM3419.5 4984.82l-17.68-15.47 5.05 30.06zM3406.09 5000.06l34.26 30.71-19.96 20.72-31.66-28.47 17.36-22.96M3388.22 5023.41l-14.79-57.46-16.75 23.32 14.86 58.39 16.68-24.25M3370.47 5049.05l37.5 21.94-17.42 24.74-35.24-20.41 15.16-26.27M3354.73 5075.83l-19.93-53.58-14.82 26.67 20.02 54.72 14.73-27.81M3339.71 5104.87l39.64 13.01-15.61 28.21-37.05-12.27 13.02-28.95M3326.05 5134.38l-24.63-48.04-12.55 30.32 24.89 48.77 12.29-31.05M3313.65 5166.02l40.71 4.41-12.23 30.84-38.56-3.93 10.08-31.32M3302.88 5198.46l-28.8-41.4-10.29 32.01 29.86 41.86 9.23-32.47M3293.21 5232.14l41.5-5.21-9.48 33.2-39.09 4.59 7.07-32.58M3286.18 5265.75l-33.33-33.88-7.18 34.06 33.8 33.59 6.71-33.77M3279.49 5301.22l40.55-14.95-6.39 34.51-38.82 13.53 4.66-33.09M3274.74 5335.95l-36.5-25.46-3.62 34.11 36.75 25.57 3.37-34.22M3271.62 5371.41l39.83-22.85-3.72 34.99-36.88 21.33.77-33.47M3270.5 5406.36l-39.18-16.61-.31 34.26 39.75 17.05-.26-34.7M3270.44 5442.14l37.14-31.12.12 35.07-35.05 29.55-2.21-33.5M3272.48 5477.06l-40.38-7.79 2.36 33.53 41.26 7.65-3.24-33.39M3276.38 5511.67l34.22-39.35 3.1 34.58-32.95 36.68-4.37-31.91M3281.1 5545.09l-41.1 1.53 5.98 31.96 41.69-1.53-6.57-31.96M3287.74 5578.16l30.72-45.44 7.04 32.14-29.3 43.55-8.46-30.25M3296.16 5609.41l-40.88 10.93 8.6 30.43 41.91-11.49-9.63-29.87M3306.24 5640.75l26.73-52.32 9.32 30.63-25.4 48.7-10.65-27.01M3317.29 5669.31l-39.85 19.75 11.2 27.62 41.46-20.31-12.81-27.06M3330.29 5696.64l22.03-55.84 12.21 27.57-20.8 53.46-13.44-25.19M3343.9 5722.85l-37.99 28.29 14.26 24.34 38.82-28.71-15.09-23.92M3359.48 5747.43l16.66-60.43 15.05 24.27-15.85 57.05-15.86-20.89M3375.73 5769.34l-35.62 35.97 5.47 7.63c22.24-15.67 39.53-32.64 39.53-32.64l-9.38-10.96M3397.06 5768.04l7.61-40.81 14.24 16.98z" style="fill:#1a5dad;fill-opacity:1;fill-rule:evenodd;stroke:none"/></g><path d="M246.458 523.879h100.835L296.88 467.53ZM242.931 501.916l-1.78 1.984.209 5.559-2.879-2.58-1.434 1.6 6.022 5.396 1.434-1.599-2.607-2.337 5.277-.643 1.778-1.983-5.682.533-.338-5.93M249.197 497.887l3.113 2.79-3.079 3.436-3.112-2.79zm1.462-1.631-2.566-.1-3.73 4.16.305 2.625 3.109 2.788 2.493.113 3.833-4.277-.333-2.521-3.111-2.788M258.144 493.075l.227.899-2.636 2.941c-.796-.691-1.189-1.044-1.177-1.056l2.635-2.941zm-2.552-5.287-1.416 1.581 1.389 1.242.191 1.054-2.619 2.92-2.016-1.807-1.458 1.625 6.022 5.397 4.749-5.298-.694-2.927-2.117-.391-.284-1.829-1.747-1.567M262.975 482.455l-2.508-.106-4.42 4.933 6.02 5.396 5.486-6.119-2.4-.09-3.044 3.397-.975-.874 3.391-3.782-2.205-.064-2.441 2.722-.973-.873 4.069-4.54M267.597 478.468l.984 2.354-2.406-.768zm.387-4.505-1.573 1.753c.079.163.188.434.324.811l-2.578 2.877a10.173 10.173 0 0 0-.846-.226l-1.579 1.759 8.596 2.527.994-1.11-.921-2.379c-.475-1.252-1.281-3.257-2.417-6.012M273.814 467.458l-.915 1.021.13 6.603-3.353-3.007-1.433 1.599 6.021 5.398.909-1.014-.234-6.686 3.453 3.094 1.443-1.611-6.021-5.397M324.107 476.391l.772-2.94-5.406-5.993-.342 2.469 3.626 4.019-.151.735-.802.124-3.625-4.019-2.974.499-.81 2.914.333.368 5.09 5.646.363-2.524-3.643-4.039.185-.728.717-.062 3.631 4.026 3.036-.495M331.107 483.297l.379-2.55-4.556-5.053-6.169 5.564 5.655 6.269.353-2.44-3.139-3.481.999-.901 3.494 3.875.305-2.245-2.515-2.788.999-.901 4.195 4.651M333.827 491.665l-.945.136-2.718-3.012c.793-.74 1.195-1.103 1.207-1.091l2.718 3.014zm5.677-2.031-1.46-1.618-1.423 1.282-1.095.082-2.7-2.993 2.067-1.865-1.502-1.664-6.168 5.564 4.895 5.427 3.064-.389.633-2.12 1.9-.091 1.789-1.615M341.993 492.411l-1.427-1.599-6.168 5.563 1.435 1.593 6.16-5.557M347.318 501.269l.379-2.549-4.556-5.054-6.168 5.565 5.654 6.269.353-2.441-3.14-3.48 1-.902 3.494 3.875.306-2.243-2.515-2.79.998-.9 4.195 4.65M354.226 509.785l.773-2.94-5.406-5.994-.342 2.469 3.625 4.019-.152.734-.8.124-3.625-4.02-2.975.5-.809 2.915.331.369 5.092 5.643.363-2.522-3.643-4.04.185-.728.717-.061 3.631 4.026 3.035-.494" style="fill:#0f1032;fill-opacity:1;fill-rule:nonzero;stroke:none;stroke-width:.1" transform="matrix(3.72428 0 0 -3.72428 -865.673 2201.055)"/><path d="M296.501 462.99v4.54l50.422 56.349h5.023l-55.445-60.889" style="fill:#1a5dad;fill-opacity:1;fill-rule:nonzero;stroke:none;stroke-width:.1" transform="matrix(3.72428 0 0 -3.72428 -865.673 2201.055)"/><path d="M296.499 459.323a3.67 3.67 0 0 0-3.666 3.667v4.54c0 .903.333 1.773.935 2.445l50.423 56.35a3.666 3.666 0 0 0 2.732 1.221h5.023a3.67 3.67 0 0 0 3.356-2.184 3.668 3.668 0 0 0-.645-3.952l-55.446-60.889a3.666 3.666 0 0 0-2.712-1.198" style="fill:#0f1032;fill-opacity:1;fill-rule:nonzero;stroke:none;stroke-width:.1" transform="matrix(3.72428 0 0 -3.72428 -865.673 2201.055)"/><path d="M296.51 462.99v4.54l-50.423 56.349h-5.024l55.447-60.889" style="fill:#00adef;fill-opacity:1;fill-rule:nonzero;stroke:none;stroke-width:.1" transform="matrix(3.72428 0 0 -3.72428 -865.673 2201.055)"/><path d="M296.511 459.323c-1.013 0-2.003.42-2.713 1.198l-55.447 60.889a3.668 3.668 0 0 0 2.712 6.136h5.024a3.673 3.673 0 0 0 2.734-1.221l50.42-56.35a3.664 3.664 0 0 0 .936-2.445v-4.54a3.667 3.667 0 0 0-3.666-3.667" style="fill:#0f1032;fill-opacity:1;fill-rule:nonzero;stroke:none;stroke-width:.1" transform="matrix(3.72428 0 0 -3.72428 -865.673 2201.055)"/><path d="M296.501 462.99v4.54l50.422 56.349h5.023l-55.445-60.889" style="fill:#00adef;fill-opacity:1;fill-rule:nonzero;stroke:none;stroke-width:.1" transform="matrix(3.72428 0 0 -3.72428 -865.673 2201.055)"/><path d="M296.51 462.99v4.54l-50.423 56.349h-5.024l55.447-60.889" style="fill:#00adef;fill-opacity:1;fill-rule:nonzero;stroke:none;stroke-width:.1" transform="matrix(3.72428 0 0 -3.72428 -865.673 2201.055)"/><path d="M290.872 577.876c-.512 0-.608.303-.587.643h.419c0-.186.005-.346.232-.346.138 0 .208.09.208.223 0 .357-.831.378-.831.966 0 .313.146.557.649.557.404 0 .604-.18.574-.598h-.404c0 .151-.022.305-.189.305-.133 0-.212-.074-.212-.212 0-.376.832-.345.832-.962 0-.516-.376-.576-.691-.576M292.613 579.505h-.007l-.186-.852h.396zm-.795-1.594.548 1.978h.544l.536-1.978h-.436l-.109.436h-.563l-.115-.436h-.405M293.742 577.911v1.978h.664l.309-1.348h.008l.327 1.348h.643v-1.978h-.401v1.525h-.006l-.38-1.525h-.395l-.36 1.525h-.004v-1.525h-.405M296.678 577.876c-.516 0-.612.303-.587.643h.413c0-.186.009-.346.236-.346.143 0 .204.09.204.223 0 .357-.829.378-.829.966 0 .313.15.557.649.557.404 0 .602-.18.579-.598h-.404c0 .151-.025.305-.191.305-.135 0-.213-.074-.213-.212 0-.376.831-.345.831-.962 0-.516-.374-.576-.688-.576M299.11 579.889v-1.405c0-.295-.169-.608-.672-.608-.453 0-.675.234-.675.608v1.405h.414v-1.375c0-.245.105-.341.255-.341.181 0 .263.119.263.341v1.375h.415M299.56 577.911v1.978h.555l.526-1.37h.007v1.37h.384v-1.978h-.546l-.538 1.444h-.006v-1.444h-.382M302.392 579.279c.006.181-.024.347-.246.347-.258 0-.258-.352-.258-.733 0-.617.06-.727.299-.727l.204.039v.438h-.226v.301h.641v-1.001a3.706 3.706 0 0 0-.561-.067c-.694 0-.774.29-.774 1.039 0 .499.026 1.004.699 1.004.406 0 .657-.227.636-.64h-.414M289.666 569.505l.224.05-.456-1.257s-3.107-.828-5.219-1.702l.263.874c.289.092.592.279.68.575l1.318 5.883-.361-.097.109.426 2.224.788-1.417-6.194c-.086-.327.057-.451.401-.371l1.378.383c.454.144.856.642.856.642M293.225 575.224c-.029-.436-.467-.865-.975-.955-.511-.092-.898.19-.87.627.03.438.467.867.976.955.509.092.899-.191.869-.627M292.517 569.628a.7.7 0 0 0-.373-.202c-.231-.034-.259.26-.179.614l.945 3.875-1.974-.702-.101-.403.324.087-.717-2.738c-.192-.791.068-1.559 1.14-1.413.49.066.916.313 1.281.672l-.346.21M298.291 573.679c.288 1.185-.426 1.568-1.608 1.424-1.369-.169-2.486-.964-2.799-2.191l-.461-1.88c-.325-1.176.395-1.58 1.583-1.422 1.356.176 2.476.888 2.762 1.986zm-2.972-3.426c-.199-.014-.425.126-.387.316l.885 3.538c.05.209.383.357.588.382.178.018.563-.006.516-.2l-.877-3.546c-.074-.286-.391-.464-.725-.49M299.641 575.393l-.09-.377.327.1-1.097-4.495 1.595.392.889 3.669c.09.393.331.604.64.711.24.084.448-.011.393-.218l-.596-2.514c-.136-.548-.499-1.637.577-1.489.804.108 1.336.601 1.658.992l-.362.226c-.129-.185-.299-.296-.408-.262l-.049.194.734 3.065c.231.93-.283 1.125-.725 1.052-.551-.083-1.268-.434-1.606-.751l.112.444-1.992-.739" style="fill:#1a5dad;fill-opacity:1;fill-rule:nonzero;stroke:none;stroke-width:.1" transform="matrix(3.72428 0 0 -3.72428 -865.673 2201.055)"/><path d="M306.575 575.763c-.019.445.187.845.532.823.542-.038.675-.907.468-1.493l.037-.114 1.331.625c-.11 1.004-1.049 1.653-2.225 1.407-1.263-.266-1.8-1.16-1.777-2.276.029-1.406 1.831-2.48 1.861-3.783.023-.973-.367-1.351-.804-1.467-.389-.099-.961.157-1.02.639.452.108 1.066.496 1.009 1.063-.058.565-.548.586-.764.539-.544-.112-.942-.62-.892-1.242-4.544-.631-13.144-3.211-18.223-5.379 1.427.009 3.17-.221 4.426-1.009 5.045 3.406 10.427 5.209 13.898 5.946.319-.837 1.213-1.128 2.07-.98 1.29.224 2.177 1.24 1.907 2.719-.286 1.534-1.773 2.467-1.834 3.982M248.565 525.064l-2.474-2.911h-7.768l-2.446 2.922v6.643l2.446 2.905h7.768l2.474-2.91h-9.324v-6.649h9.324" style="fill:#1a5dad;fill-opacity:1;fill-rule:nonzero;stroke:none;stroke-width:.1" transform="matrix(3.72428 0 0 -3.72428 -865.673 2201.055)"/><path d="M246.091 518.717h-7.768c-1.016 0-1.981.45-2.634 1.23l-2.448 2.923a3.44 3.44 0 0 0-.801 2.205v6.643c0 .81.286 1.593.808 2.212l2.446 2.907a3.438 3.438 0 0 0 2.629 1.223h7.768a3.436 3.436 0 0 0 2.618-1.211l2.474-2.91a3.436 3.436 0 0 0-1.75-5.55 3.445 3.445 0 0 0 2.251-1.883 3.44 3.44 0 0 0-.501-3.668l-2.474-2.911a3.439 3.439 0 0 0-2.618-1.21" style="fill:#0f1032;fill-opacity:1;fill-rule:nonzero;stroke:none;stroke-width:.1" transform="matrix(3.72428 0 0 -3.72428 -865.673 2201.055)"/><path d="M261.983 522.153h-3.392v4.82h-6.542v-4.82h-3.339v12.47h3.339v-4.615h6.542v4.615h3.392v-12.47" style="fill:#1a5dad;fill-opacity:1;fill-rule:nonzero;stroke:none;stroke-width:.1" transform="matrix(3.72428 0 0 -3.72428 -865.673 2201.055)"/><path d="M261.983 518.717h-3.392a3.44 3.44 0 0 0-3.272 2.381 3.436 3.436 0 0 0-3.27-2.381h-3.339a3.436 3.436 0 0 0-3.436 3.436v12.47a3.436 3.436 0 0 0 3.436 3.437h3.339a3.436 3.436 0 0 0 3.27-2.382 3.439 3.439 0 0 0 3.272 2.382h3.392a3.437 3.437 0 0 0 3.436-3.437v-12.47a3.436 3.436 0 0 0-3.436-3.436" style="fill:#0f1032;fill-opacity:1;fill-rule:nonzero;stroke:none;stroke-width:.1" transform="matrix(3.72428 0 0 -3.72428 -865.673 2201.055)"/><path d="m272.051 526.347-1.69 3.551-1.595-3.551zm5.572-4.194h-3.631c-.106.257-.306.659-.599 1.205h-5.957a18.07 18.07 0 0 0-.613-1.205h-3.643l5.945 12.47h2.3l1.781-3.505c.948-1.835 2.422-4.824 4.417-8.965" style="fill:#1a5dad;fill-opacity:1;fill-rule:nonzero;stroke:none;stroke-width:.1" transform="matrix(3.72428 0 0 -3.72428 -865.673 2201.055)"/><path d="M277.627 518.717h-3.635a3.438 3.438 0 0 0-2.614 1.205h-1.94a3.437 3.437 0 0 0-2.615-1.205h-3.643a3.435 3.435 0 0 0-3.102 4.915l5.945 12.47a3.438 3.438 0 0 0 3.102 1.958h2.3a3.436 3.436 0 0 0 3.063-1.879l1.783-3.505c.936-1.812 2.409-4.801 4.369-8.868a3.438 3.438 0 0 0-3.013-5.091" style="fill:#0f1032;fill-opacity:1;fill-rule:nonzero;stroke:none;stroke-width:.1" transform="matrix(3.72428 0 0 -3.72428 -865.673 2201.055)"/><path d="M294.565 522.153h-3.297v7.621l-3.711-6.197h-2.208l-3.75 6.197v-7.621h-3.365v12.47h3.539l4.64-7.275 4.589 7.275h3.563v-12.47" style="fill:#1a5dad;fill-opacity:1;fill-rule:nonzero;stroke:none;stroke-width:.1" transform="matrix(3.72428 0 0 -3.72428 -865.673 2201.055)"/><path d="M294.565 518.717h-3.297a3.44 3.44 0 0 0-2.862 1.53 3.411 3.411 0 0 0-.849-.107h-2.208c-.302 0-.599.04-.885.117a3.427 3.427 0 0 0-2.865-1.54h-3.365a3.435 3.435 0 0 0-3.435 3.436v12.47a3.436 3.436 0 0 0 3.435 3.437h3.539a3.436 3.436 0 0 0 2.896-1.589l1.728-2.707 1.699 2.692a3.434 3.434 0 0 0 2.906 1.604h3.563a3.438 3.438 0 0 0 3.438-3.437v-12.47a3.437 3.437 0 0 0-3.438-3.436" style="fill:#0f1032;fill-opacity:1;fill-rule:nonzero;stroke:none;stroke-width:.1" transform="matrix(3.72428 0 0 -3.72428 -865.673 2201.055)"/><path d="m306.176 530.336-.798 1.315h-6.225v-2.535h6.225zm3.484.36-2.805-4.443h-7.594v-4.1h-3.472v12.47h11.066l2.805-3.927" style="fill:#1a5dad;fill-opacity:1;fill-rule:nonzero;stroke:none;stroke-width:.1" transform="matrix(3.72428 0 0 -3.72428 -865.673 2201.055)"/><path d="M299.261 518.717h-3.472a3.435 3.435 0 0 0-3.435 3.436v12.47a3.436 3.436 0 0 0 3.435 3.437h11.066c1.108 0 2.15-.536 2.795-1.438l2.806-3.928a3.433 3.433 0 0 0 .11-3.833l-2.806-4.443a3.437 3.437 0 0 0-2.905-1.601h-4.159v-.664a3.436 3.436 0 0 0-3.435-3.436" style="fill:#0f1032;fill-opacity:1;fill-rule:nonzero;stroke:none;stroke-width:.1" transform="matrix(3.72428 0 0 -3.72428 -865.673 2201.055)"/><path d="m313.265 522.169-3.219-.016v12.47h3.219v-12.454" style="fill:#1a5dad;fill-opacity:1;fill-rule:nonzero;stroke:none;stroke-width:.1" transform="matrix(3.72428 0 0 -3.72428 -865.673 2201.055)"/><path d="M310.046 518.717c-.908 0-1.779.359-2.424.999a3.44 3.44 0 0 0-1.013 2.437v12.47a3.438 3.438 0 0 0 3.437 3.437h3.219a3.436 3.436 0 0 0 3.436-3.437v-12.454a3.436 3.436 0 0 0-3.419-3.436l-3.218-.016h-.018" style="fill:#0f1032;fill-opacity:1;fill-rule:nonzero;stroke:none;stroke-width:.1" transform="matrix(3.72428 0 0 -3.72428 -865.673 2201.055)"/><path d="M324.955 525.205v6.446h-7.116v-6.446zm3.377 0-2.526-3.052h-8.617l-2.701 3.052v6.441l2.434 2.977h8.857l2.553-2.977v-6.441" style="fill:#1a5dad;fill-opacity:1;fill-rule:nonzero;stroke:none;stroke-width:.1" transform="matrix(3.72428 0 0 -3.72428 -865.673 2201.055)"/><path d="M325.806 518.717h-8.617c-.986 0-1.922.421-2.576 1.159l-2.698 3.051a3.44 3.44 0 0 0-.863 2.278v6.441c0 .792.273 1.56.776 2.175l2.433 2.977a3.437 3.437 0 0 0 2.661 1.262h8.857a3.44 3.44 0 0 0 2.609-1.199l2.553-2.978a3.43 3.43 0 0 0 .829-2.237v-6.441c0-.801-.28-1.576-.79-2.193l-2.528-3.051a3.435 3.435 0 0 0-2.646-1.244" style="fill:#0f1032;fill-opacity:1;fill-rule:nonzero;stroke:none;stroke-width:.1" transform="matrix(3.72428 0 0 -3.72428 -865.673 2201.055)"/><path d="M342.31 522.153h-2.114l-7.448 6.947v-6.947h-3.311v12.47h2.098l7.437-7.15v7.15h3.338v-12.47" style="fill:#1a5dad;fill-opacity:1;fill-rule:nonzero;stroke:none;stroke-width:.1" transform="matrix(3.72428 0 0 -3.72428 -865.673 2201.055)"/><path d="M342.31 518.717h-2.114c-.87 0-1.708.329-2.343.923l-1.778 1.656a3.436 3.436 0 0 0-3.327-2.579h-3.311a3.437 3.437 0 0 0-3.438 3.436v12.47a3.437 3.437 0 0 0 3.438 3.437h2.098c.887 0 1.74-.344 2.382-.959l1.718-1.653a3.437 3.437 0 0 0 3.337 2.612h3.338a3.437 3.437 0 0 0 3.437-3.437v-12.47a3.436 3.436 0 0 0-3.437-3.436" style="fill:#0f1032;fill-opacity:1;fill-rule:nonzero;stroke:none;stroke-width:.1" transform="matrix(3.72428 0 0 -3.72428 -865.673 2201.055)"/><path d="m358.162 526.003-2.499-3.818h-12.116l2.406 2.863h8.126l.666.908-.666 1.017h-8.126l-2.432 3.817 2.432 3.833H358.109l-2.446-2.942h-8.166l-.625-.938.651-.861h8.14l2.499-3.879" style="fill:#1a5dad;fill-opacity:1;fill-rule:nonzero;stroke:none;stroke-width:.1" transform="matrix(3.72428 0 0 -3.72428 -865.673 2201.055)"/><path d="M355.663 518.749h-12.116a3.434 3.434 0 0 0-2.63 5.647l1.481 1.762-1.775 2.785a3.436 3.436 0 0 0-.004 3.689l2.434 3.833a3.435 3.435 0 0 0 2.9 1.595h12.156a3.436 3.436 0 0 0 2.642-5.635l-1.486-1.787 1.787-2.775a3.437 3.437 0 0 0-.015-3.743l-2.499-3.818a3.44 3.44 0 0 0-2.875-1.553" style="fill:#0f1032;fill-opacity:1;fill-rule:nonzero;stroke:none;stroke-width:.1" transform="matrix(3.72428 0 0 -3.72428 -865.673 2201.055)"/><path d="m248.565 525.064-2.474-2.911h-7.768l-2.446 2.922v6.643l2.446 2.905h7.768l2.474-2.91h-9.324v-6.649h9.324" style="fill:#fff;fill-opacity:1;fill-rule:nonzero;stroke:none;stroke-width:.1" transform="matrix(3.72428 0 0 -3.72428 -865.673 2201.055)"/><path d="m237.349 525.611.42-.5v6.566l-.42-.497zm8.742-4.931h-7.768c-.435 0-.849.193-1.13.528l-2.445 2.922c-.223.265-.345.6-.345.945v6.643c0 .346.123.682.347.948l2.447 2.907c.28.332.692.523 1.126.523h7.768c.431 0 .842-.189 1.122-.519l2.474-2.91a1.472 1.472 0 0 0-1.122-2.426h-7.852v-3.705h7.852a1.472 1.472 0 0 0 1.122-2.426l-2.474-2.911a1.475 1.475 0 0 0-1.122-.519" style="fill:#fff;fill-opacity:1;fill-rule:nonzero;stroke:none;stroke-width:.1" transform="matrix(3.72428 0 0 -3.72428 -865.673 2201.055)"/><path d="M261.983 522.153h-3.392v4.82h-6.542v-4.82h-3.339v12.47h3.339v-4.615h6.542v4.615h3.392v-12.47" style="fill:#fff;fill-opacity:1;fill-rule:nonzero;stroke:none;stroke-width:.1" transform="matrix(3.72428 0 0 -3.72428 -865.673 2201.055)"/><path d="M260.064 523.626h.445v9.525h-.445v-3.143c0-.813-.66-1.474-1.473-1.474h-6.542c-.815 0-1.473.661-1.473 1.474v3.143h-.393v-9.525h.393v3.347c0 .813.658 1.472 1.473 1.472h6.542c.813 0 1.473-.659 1.473-1.472zm1.919-2.946h-3.392c-.812 0-1.472.659-1.472 1.473v3.347h-3.598v-3.347c0-.814-.659-1.473-1.472-1.473h-3.339c-.814 0-1.473.659-1.473 1.473v12.47c0 .814.659 1.473 1.473 1.473h3.339c.813 0 1.472-.659 1.472-1.473v-3.143h3.598v3.143c0 .814.66 1.473 1.472 1.473h3.392c.813 0 1.473-.659 1.473-1.473v-12.47c0-.814-.66-1.473-1.473-1.473" style="fill:#fff;fill-opacity:1;fill-rule:nonzero;stroke:none;stroke-width:.1" transform="matrix(3.72428 0 0 -3.72428 -865.673 2201.055)"/><path d="m272.051 526.347-1.69 3.551-1.595-3.551zm5.572-4.194h-3.631c-.106.257-.306.659-.599 1.205h-5.957a18.07 18.07 0 0 0-.613-1.205h-3.643l5.945 12.47h2.3l1.781-3.505c.948-1.835 2.422-4.824 4.417-8.965" style="fill:#fff;fill-opacity:1;fill-rule:nonzero;stroke:none;stroke-width:.1" transform="matrix(3.72428 0 0 -3.72428 -865.673 2201.055)"/><path d="M272.051 524.874h-3.285a1.475 1.475 0 0 0-1.344 2.076l1.597 3.552a1.473 1.473 0 0 0 2.672.029l1.689-3.552a1.474 1.474 0 0 0-1.329-2.105zm2.866-1.248h.357c-1.473 3.041-2.606 5.328-3.375 6.817l-1.378 2.708h-.467l-4.54-9.525h.42c.08.16.124.258.148.315.234.54.765.89 1.354.89h5.957a1.47 1.47 0 0 0 1.298-.777c.083-.154.158-.296.226-.428zm2.71-2.946h-3.635c-.595 0-1.133.36-1.362.909a4.073 4.073 0 0 1-.134.297h-4.145c-.07-.134-.149-.279-.233-.434a1.47 1.47 0 0 0-1.295-.772h-3.643a1.472 1.472 0 0 0-1.329 2.107l5.945 12.47a1.47 1.47 0 0 0 1.329.839h2.3a1.47 1.47 0 0 0 1.312-.805l1.784-3.505c.937-1.816 2.412-4.81 4.38-8.892a1.474 1.474 0 0 0-1.274-2.214" style="fill:#fff;fill-opacity:1;fill-rule:nonzero;stroke:none;stroke-width:.1" transform="matrix(3.72428 0 0 -3.72428 -865.673 2201.055)"/><path d="M294.565 522.153h-3.297v7.621l-3.711-6.197h-2.208l-3.75 6.197v-7.621h-3.365v12.47h3.539l4.64-7.275 4.589 7.275h3.563v-12.47" style="fill:#fff;fill-opacity:1;fill-rule:nonzero;stroke:none;stroke-width:.1" transform="matrix(3.72428 0 0 -3.72428 -865.673 2201.055)"/><path d="M286.179 525.05h.544l.788 1.316a1.475 1.475 0 0 0-1.094-.491h-.004c-.347 0-.677.123-.937.337zm-6.471-1.424h.419v6.148a1.472 1.472 0 0 0 2.162 1.3l-1.324 2.077h-1.257zm13.033 0h.352v9.525h-1.278l-1.354-2.146a1.474 1.474 0 0 0 2.28-1.231zm1.824-2.946h-3.297c-.814 0-1.473.659-1.473 1.473v2.295l-.975-1.627a1.47 1.47 0 0 0-1.263-.716h-2.208c-.515 0-.992.269-1.259.709l-1.019 1.682v-2.343c0-.814-.66-1.473-1.472-1.473h-3.365c-.813 0-1.472.659-1.472 1.473v12.47c0 .814.659 1.473 1.472 1.473h3.539c.501 0 .97-.257 1.24-.681l3.393-5.317 3.35 5.311c.269.428.74.687 1.246.687h3.563c.814 0 1.474-.659 1.474-1.473v-12.47c0-.814-.66-1.473-1.474-1.473" style="fill:#fff;fill-opacity:1;fill-rule:nonzero;stroke:none;stroke-width:.1" transform="matrix(3.72428 0 0 -3.72428 -865.673 2201.055)"/><path d="m306.176 530.336-.798 1.315h-6.225v-2.535h6.225zm3.484.36-2.805-4.443h-7.594v-4.1h-3.472v12.47h11.066l2.805-3.927" style="fill:#fff;fill-opacity:1;fill-rule:nonzero;stroke:none;stroke-width:.1" transform="matrix(3.72428 0 0 -3.72428 -865.673 2201.055)"/><path d="m306.72 532.278.715-1.177c.156-.256.226-.547.212-.835l.24.379zm-.856-4.553h.179l.072.116zm-8.601-4.099h.525v2.627c0 .676.455 1.246 1.076 1.418a1.474 1.474 0 0 0-1.182 1.445v2.535c0 .813.658 1.473 1.471 1.473h6.225c.403 0 .785-.166 1.06-.45l-.34.477h-8.835zm1.998-2.946h-3.472c-.812 0-1.472.659-1.472 1.473v12.47c0 .814.66 1.473 1.472 1.473h11.066c.475 0 .922-.229 1.197-.616l2.806-3.928a1.467 1.467 0 0 0 .046-1.643l-2.804-4.443a1.476 1.476 0 0 0-1.245-.686h-6.123v-2.627c0-.814-.659-1.473-1.471-1.473" style="fill:#fff;fill-opacity:1;fill-rule:nonzero;stroke:none;stroke-width:.1" transform="matrix(3.72428 0 0 -3.72428 -865.673 2201.055)"/><path d="m313.265 522.169-3.219-.016v12.47h3.219v-12.454" style="fill:#fff;fill-opacity:1;fill-rule:nonzero;stroke:none;stroke-width:.1" transform="matrix(3.72428 0 0 -3.72428 -865.673 2201.055)"/><path d="M311.519 533.151v-9.518l.273.001v9.517zm-1.473-12.471a1.47 1.47 0 0 0-1.473 1.473v12.47c0 .814.659 1.473 1.473 1.473h3.219c.812 0 1.472-.659 1.472-1.473v-12.454c0-.81-.655-1.469-1.465-1.473l-3.219-.016h-.007" style="fill:#fff;fill-opacity:1;fill-rule:nonzero;stroke:none;stroke-width:.1" transform="matrix(3.72428 0 0 -3.72428 -865.673 2201.055)"/><path d="M324.955 525.205v6.446h-7.116v-6.446zm3.377 0-2.526-3.052h-8.617l-2.701 3.052v6.441l2.434 2.977h8.857l2.553-2.977v-6.441" style="fill:#fff;fill-opacity:1;fill-rule:nonzero;stroke:none;stroke-width:.1" transform="matrix(3.72428 0 0 -3.72428 -865.673 2201.055)"/><path d="m317.621 533.151-.041-.051.259.024h7.116l.18-.011-.032.038zm1.691-6.474h4.17v3.501h-4.17zm-3.351-.914.406-.459v6.314l-.406-.498zm10.466 5.843v-6.393l.433.522v5.366zm-8.575-7.98h7.261l.108.129a1.548 1.548 0 0 0-.266-.024h-7.116l-.084.003zm7.954-2.946h-8.617c-.422 0-.824.181-1.104.497l-2.7 3.051c-.237.27-.37.617-.37.977v6.441c0 .34.118.669.334.932l2.433 2.977c.28.343.699.541 1.14.541h8.857c.43 0 .838-.187 1.117-.514l2.554-2.977c.23-.267.355-.607.355-.959v-6.441c0-.343-.12-.676-.338-.94l-2.526-3.051a1.472 1.472 0 0 0-1.135-.534" style="fill:#fff;fill-opacity:1;fill-rule:nonzero;stroke:none;stroke-width:.1" transform="matrix(3.72428 0 0 -3.72428 -865.673 2201.055)"/><path d="M342.31 522.153h-2.114l-7.448 6.947v-6.947h-3.311v12.47h2.098l7.437-7.15v7.15h3.338v-12.47" style="fill:#fff;fill-opacity:1;fill-rule:nonzero;stroke:none;stroke-width:.1" transform="matrix(3.72428 0 0 -3.72428 -865.673 2201.055)"/><path d="M340.775 523.626h.062v9.525h-.393v-5.678a1.472 1.472 0 0 0-2.494-1.062l-7.009 6.74h-.033v-9.525h.367v5.474a1.472 1.472 0 0 0 2.477 1.077zm1.535-2.946h-2.114a1.47 1.47 0 0 0-1.005.397l-4.97 4.635v-3.559c0-.814-.659-1.473-1.473-1.473h-3.311c-.815 0-1.474.659-1.474 1.473v12.47c0 .814.659 1.473 1.474 1.473h2.098a1.47 1.47 0 0 0 1.021-.411l4.943-4.753v3.691c0 .814.659 1.473 1.473 1.473h3.338c.813 0 1.473-.659 1.473-1.473v-12.47c0-.814-.66-1.473-1.473-1.473" style="fill:#fff;fill-opacity:1;fill-rule:nonzero;stroke:none;stroke-width:.1" transform="matrix(3.72428 0 0 -3.72428 -865.673 2201.055)"/><path d="m358.162 526.003-2.499-3.818h-12.116l2.406 2.863h8.126l.666.908-.666 1.017h-8.126l-2.432 3.817 2.432 3.833H358.109l-2.446-2.942h-8.166l-.625-.938.651-.861h8.14l2.499-3.879" style="fill:#fff;fill-opacity:1;fill-rule:nonzero;stroke:none;stroke-width:.1" transform="matrix(3.72428 0 0 -3.72428 -865.673 2201.055)"/><path d="m346.764 533.151-.22-.346c.236.2.533.323.847.346zm-1.498-2.359.143-.226c-.019.162-.012.327.024.488zm1.496-2.347h.44a1.472 1.472 0 0 0-.651.333zm7.639-.035c.263-.059.506-.19.702-.377l-.244.377zm1.743-1.993c.078-.238.094-.492.047-.736l.216.328zm-1.578-2.76h.3l.187.285a1.486 1.486 0 0 0-.487-.285zm1.097-2.945h-12.116a1.474 1.474 0 0 0-1.127 2.421l2.406 2.863.013.014-.127.17-2.434 3.818a1.478 1.478 0 0 0-.002 1.582l2.434 3.833c.27.425.739.683 1.243.683h12.156a1.473 1.473 0 0 0 1.134-2.414l-2.414-2.9.071-.102 2.5-3.88a1.474 1.474 0 0 0-.005-1.604l-2.501-3.818a1.47 1.47 0 0 0-1.231-.666" style="fill:#fff;fill-opacity:1;fill-rule:nonzero;stroke:none;stroke-width:.1" transform="matrix(3.72428 0 0 -3.72428 -865.673 2201.055)"/><path d="M341.717 528.389h5.088v-5.282h-5.088v5.282" style="fill:#fff;fill-opacity:1;fill-rule:nonzero;stroke:none;stroke-width:.1" transform="matrix(3.72428 0 0 -3.72428 -865.673 2201.055)"/><path d="M343.188 524.579h2.144v2.336h-2.144zm3.617-2.945h-5.088c-.815 0-1.475.66-1.475 1.473v5.282c0 .813.66 1.472 1.475 1.472h5.088c.814 0 1.473-.659 1.473-1.472v-5.282c0-.813-.659-1.473-1.473-1.473M317.326 530.954h9.169v-5.206h-9.169v5.206" style="fill:#fff;fill-opacity:1;fill-rule:nonzero;stroke:none;stroke-width:.1" transform="matrix(3.72428 0 0 -3.72428 -865.673 2201.055)"/><path d="M318.8 527.22h6.223v2.261H318.8Zm7.695-2.945h-9.169c-.812 0-1.472.659-1.472 1.473v5.206c0 .813.66 1.473 1.472 1.473h9.169c.813 0 1.473-.66 1.473-1.473v-5.206c0-.814-.66-1.473-1.473-1.473M250.314 525.228h-11.073v6.485h11.073v-6.485" style="fill:#fff;fill-opacity:1;fill-rule:nonzero;stroke:none;stroke-width:.1" transform="matrix(3.72428 0 0 -3.72428 -865.673 2201.055)"/><path d="M240.713 526.7h8.127v3.541h-8.127zm9.601-2.945h-11.073c-.813 0-1.472.66-1.472 1.473v6.485c0 .814.659 1.473 1.472 1.473h11.073c.811 0 1.47-.659 1.47-1.473v-6.485c0-.813-.659-1.473-1.47-1.473" style="fill:#fff;fill-opacity:1;fill-rule:nonzero;stroke:none;stroke-width:.1" transform="matrix(3.72428 0 0 -3.72428 -865.673 2201.055)"/><path d="m248.565 525.064-2.474-2.911h-7.768l-2.446 2.922v6.643l2.446 2.905h7.768l2.474-2.91h-9.324v-6.649h9.324M261.983 522.153h-3.392v4.82h-6.542v-4.82h-3.339v12.47h3.339v-4.615h6.542v4.615h3.392v-12.47M272.051 526.347l-1.69 3.551-1.595-3.551zm5.572-4.194h-3.631c-.106.257-.306.659-.599 1.205h-5.957a18.07 18.07 0 0 0-.613-1.205h-3.643l5.945 12.47h2.3l1.781-3.505c.948-1.835 2.422-4.824 4.417-8.965M294.565 522.153h-3.297v7.621l-3.711-6.197h-2.208l-3.75 6.197v-7.621h-3.365v12.47h3.539l4.64-7.275 4.589 7.275h3.563v-12.47M306.176 530.336l-.798 1.315h-6.225v-2.535h6.225zm3.484.36-2.805-4.443h-7.594v-4.1h-3.472v12.47h11.066l2.805-3.927M313.265 522.169l-3.219-.016v12.47h3.219v-12.454M324.955 525.205v6.446h-7.116v-6.446zm3.377 0-2.526-3.052h-8.617l-2.701 3.052v6.441l2.434 2.977h8.857l2.553-2.977v-6.441M342.31 522.153h-2.114l-7.448 6.947v-6.947h-3.311v12.47h2.098l7.437-7.15v7.15h3.338v-12.47M358.162 526.003l-2.499-3.818h-12.116l2.406 2.863h8.126l.666.908-.666 1.017h-8.126l-2.432 3.817 2.432 3.833H358.109l-2.446-2.942h-8.166l-.625-.938.651-.861h8.14l2.499-3.879" style="fill:#1a5dad;fill-opacity:1;fill-rule:nonzero;stroke:none;stroke-width:.1" transform="matrix(3.72428 0 0 -3.72428 -865.673 2201.055)"/><path d="m285.925 550.598-2.12-3.128h-5.525l-.769-.904v-.672h8.402l-1.954-2.377h-9.237v3.591l2.405 2.817h5.437l.516.788-.516.75h-7.853l1.943 2.351h7.151l2.12-3.216M296.27 546.036v5.324h-5.875v-5.324zm2.79 0-2.087-2.519h-7.117l-2.229 2.519v5.32l2.009 2.458h7.315l2.109-2.458v-5.32M305.354 543.517h-2.813v7.933h-1.46l1.943 2.391h2.33v-10.324M319.017 546.679l-2.011-3.162h-7.392l-2.163 2.429h7.984l.56.795-.56.846h-5.041v2.184h5.041l.56.813-.56.802h-7.984l2.021 2.428h7.512l2.033-3.239-1.329-1.935 1.329-1.961" style="fill:#0f1032;fill-opacity:1;fill-rule:nonzero;stroke:none;stroke-width:.1" transform="matrix(3.72428 0 0 -3.72428 -865.673 2201.055)"/><path d="M318.208 513.376c.179-.379 3.591-7.619-8.242-22.613-.5-.627-9.971-12.547-7.844-30.637h-18.746c-.041.543-.836 10.802 6.555 20.265.821 1.034 16.445 20.616 18.172 23.241h-31.375v9.744h41.48" style="fill:#fff;fill-opacity:1;fill-rule:nonzero;stroke:none;stroke-width:.1" transform="matrix(3.72428 0 0 -3.72428 -865.673 2201.055)"/><path d="M286.795 463.506h11.676c-.662 16.869 7.815 28.062 8.851 29.363 6.954 8.81 8.087 14.415 8.088 17.128h-35.303v-2.986h27.996a3.377 3.377 0 0 0 2.823-5.237c-1.401-2.129-10.558-13.704-17.994-23.039l-.348-.436c-4.312-5.53-5.498-11.319-5.789-14.793zm15.332-6.759h-18.751a3.378 3.378 0 0 0-3.369 3.12c-.097 1.241-.703 12.407 7.26 22.605l.018.022.361.452c5.89 7.395 10.588 13.346 13.67 17.306h-24.588a3.38 3.38 0 0 0-3.38 3.38v9.744a3.38 3.38 0 0 0 3.38 3.379h41.48a3.384 3.384 0 0 0 3.058-1.938c.429-.915 1.357-3.506.662-7.807-.884-5.464-4.017-11.634-9.311-18.34-.936-1.177-8.99-11.827-7.158-27.969a3.38 3.38 0 0 0-3.332-3.954" style="fill:#0f1032;fill-opacity:1;fill-rule:nonzero;stroke:none;stroke-width:.1" transform="matrix(3.72428 0 0 -3.72428 -865.673 2201.055)"/><path d="M318.208 513.376c.179-.379 3.591-7.619-8.242-22.613-.5-.627-9.971-12.547-7.844-30.637h-18.746c-.041.543-.836 10.802 6.555 20.265.821 1.034 16.445 20.616 18.172 23.241h-31.375v9.744h41.48" style="fill:#fff;fill-opacity:1;fill-rule:nonzero;stroke:none;stroke-width:.1" transform="matrix(3.72428 0 0 -3.72428 -865.673 2201.055)"/><path d="M284.744 461.54h15.816c-1.448 17.295 7.272 28.813 8.298 30.104 9.112 11.542 8.813 18.135 8.325 20.318h-39.042v-6.917h29.962a1.414 1.414 0 0 0 1.181-2.191c-1.431-2.175-11.823-15.277-17.889-22.893l-.358-.449c-5.627-7.208-6.282-14.887-6.293-17.972zm17.383-2.827h-18.751c-.738 0-1.352.568-1.41 1.305-.089 1.162-.656 11.63 6.851 21.243l.366.461c7.839 9.84 13.46 16.986 16.129 20.496h-28.584c-.781 0-1.414.633-1.414 1.414v9.744c0 .781.633 1.413 1.414 1.413h41.48c.547 0 1.045-.316 1.279-.811.662-1.403 3.368-9.166-8.412-24.091-.985-1.236-9.514-12.511-7.563-29.481a1.414 1.414 0 0 0-1.385-1.693" style="fill:#fff;fill-opacity:1;fill-rule:nonzero;stroke:none;stroke-width:.1" transform="matrix(3.72428 0 0 -3.72428 -865.673 2201.055)"/><path d="M318.208 513.376c.179-.379 3.591-7.619-8.242-22.613-.5-.627-9.971-12.547-7.844-30.637h-18.746c-.041.543-.836 10.802 6.555 20.265.821 1.034 16.445 20.616 18.172 23.241h-31.375v9.744h41.48" style="fill:#1a5dad;fill-opacity:1;fill-rule:nonzero;stroke:none;stroke-width:.1" transform="matrix(3.72428 0 0 -3.72428 -865.673 2201.055)"/></svg>