<svg xmlns="http://www.w3.org/2000/svg" xml:space="preserve" width="582.28564" height="500" viewBox="0 0 582.28565 500"><defs><clipPath id="a" clipPathUnits="userSpaceOnUse"><path d="M1003.85 5716.94c1.86-102.65-79.873-187.35-182.53-189.19-102.672-1.84-187.375 79.89-189.199 182.54-1.855 102.66 79.883 187.36 182.535 189.2 102.657 1.84 187.394-79.88 189.194-182.55"/></clipPath></defs><path d="m154.603 535.882-72.804-72.807-72.807 72.807L81.8 579.339l72.804-43.457" style="fill:#0f1032;fill-opacity:1;fill-rule:evenodd;stroke:none;stroke-width:.1" transform="matrix(3.55925 0 0 -3.55925 0 2109.55)"/><path d="m144.847 535.882-63.048-63.048-63.049 63.048 63.049 37.632 63.048-37.632" style="fill:#1a5dad;fill-opacity:1;fill-rule:evenodd;stroke:none;stroke-width:.1" transform="matrix(3.55925 0 0 -3.55925 0 2109.55)"/><path d="M103.131 571.362c0-11.782-9.552-21.332-21.333-21.332-11.781 0-21.332 9.55-21.332 21.332s9.55 21.333 21.332 21.333c11.781 0 21.333-9.551 21.333-21.333" style="fill:#0f1032;fill-opacity:1;fill-rule:nonzero;stroke:none;stroke-width:.1" transform="matrix(3.55925 0 0 -3.55925 0 2109.55)"/><path d="M100.388 571.363c0-10.268-8.323-18.591-18.59-18.591-10.265 0-18.589 8.323-18.589 18.591 0 10.267 8.324 18.589 18.589 18.589 10.267 0 18.59-8.322 18.59-18.589" style="fill:#fff;fill-opacity:1;fill-rule:nonzero;stroke:none;stroke-width:.1" transform="matrix(3.55925 0 0 -3.55925 0 2109.55)"/><path d="M97.28 581.649c.627-1.824.99-3.777 1.028-5.811.186-10.407-8.101-18.993-18.51-19.18-5.941-.106-11.29 2.554-14.82 6.792 3.022-6.418 9.598-10.81 17.154-10.675 10.266.184 18.439 8.654 18.253 18.919a18.502 18.502 0 0 1-3.106 9.955" style="fill:#c8cfd2;fill-opacity:1;fill-rule:nonzero;stroke:none;stroke-width:.1" transform="matrix(3.55925 0 0 -3.55925 0 2109.55)"/><g clip-path="url(#a)" transform="matrix(.35593 0 0 -.35593 0 2109.55)"><path d="m642.262 5550.13 6.855-5.98-1.961 11.62zM647.453 5556.02l-13.242 11.88 7.73 8.01 12.219-11.01-6.707-8.88M654.367 5565.05l5.727-22.23 6.457 9.04-5.727 22.58-6.457-9.39M661.227 5574.96l-14.493 8.48 6.75 9.56 13.59-7.88-5.847-10.16M667.301 5585.34l7.719-20.74 5.718 10.3-7.718 21.17-5.719-10.73M673.125 5596.53l-15.332 5.03 6.035 10.9 14.332-4.73-5.035-11.2M678.414 5607.93l9.508-18.55 4.859 11.72-9.625 18.85-4.742-12.02M683.199 5620.16l-15.738 1.71 4.719 11.94 14.89-1.53-3.871-12.12M687.359 5632.71l11.137-15.99 3.981 12.37-11.547 16.18-3.571-12.56M691.094 5645.73l-16.028-2.02 3.661 12.84 15.109 1.78-2.742-12.6M693.816 5658.73l12.883-13.12 2.766 13.19-13.063 12.99-2.586-13.06M696.402 5672.43l-15.672-5.77 2.469 13.34 14.992 5.22-1.789-12.79M698.23 5685.86l14.122-9.85 1.386 13.19-14.207 9.87-1.301-13.21M699.445 5699.58l-15.386-8.83 1.429 13.53 14.239 8.22-.282-12.92M699.863 5713.08l15.164-6.42.106 13.24-15.352 6.58.082-13.4M699.898 5726.92l-14.355-12.05-.055 13.56 13.551 11.43.859-12.94M699.094 5740.41l15.621-3-.914 12.94-15.942 2.97 1.235-12.91M697.609 5753.77l-13.238-15.19-1.191 13.36 12.738 14.16 1.691-12.33M695.777 5766.71l15.883.59-2.312 12.34-16.114-.58 2.543-12.35M693.219 5779.46l-11.871-17.54-2.719 12.43 11.293 16.82 3.297-11.71M689.953 5791.57l15.817 4.22-3.336 11.76-16.211-4.44 3.73-11.54M686.063 5803.7l-10.333-20.24-3.605 11.84 9.805 18.83 4.133-10.43M681.781 5814.73l15.399 7.63-4.313 10.66-16.039-7.85 4.953-10.44M676.77 5825.29l-8.528-21.59-4.726 10.67 8.062 20.65 5.192-9.73M671.504 5835.43l14.684 10.92-5.524 9.42-15-11.11 5.84-9.23M665.477 5844.93l-6.442-23.38-5.82 9.4 6.133 22.03 6.129-8.05M659.203 5853.38l13.762 13.92-2.117 2.93c-8.59-6.04-15.282-12.6-15.282-12.6l3.637-4.25M650.949 5852.88l-2.945-15.77-5.488 6.57zM993.504 5550.13l-6.848-5.98 1.953 11.62zM988.293 5556.02l13.257 11.88-7.722 8.01-12.215-11.01 6.68-8.88M981.418 5565.05l-5.727-22.23-6.464 9.04 5.722 22.58 6.469-9.39M974.551 5574.96l14.484 8.48-6.734 9.56-13.621-7.88 5.871-10.16M968.453 5585.34l-7.711-20.74-5.707 10.3 7.731 21.17 5.687-10.73M962.637 5596.53l15.332 5.03-6.028 10.9-14.324-4.73 5.02-11.2M957.359 5607.93l-9.527-18.55-4.84 11.72 9.617 18.85 4.75-12.02M952.574 5620.16l15.739 1.71-4.739 11.94-14.89-1.53 3.89-12.12M948.414 5632.71l-11.137-15.99-3.953 12.37 11.539 16.18 3.551-12.56M944.676 5645.73l16.047-2.02-3.649 12.84-15.121 1.78 2.723-12.6M941.973 5658.73l-12.891-13.12-2.785 13.19 13.094 12.99 2.582-13.06M939.391 5672.43l15.664-5.77-2.481 13.34-14.984 5.22 1.801-12.79M937.547 5685.86l-14.098-9.85-1.422 13.19 14.231 9.87 1.289-13.21M936.348 5699.58l15.394-8.83-1.449 13.53-14.258 8.22.313-12.92M935.898 5713.08l-15.16-6.42-.117 13.24 15.363 6.58-.086-13.4M935.879 5726.92l14.363-12.05.031 13.56-13.546 11.43-.848-12.94M936.66 5740.41l-15.609-3 .914 12.94 15.945 2.97-1.25-12.91M938.164 5753.77l13.231-15.19 1.199 13.36-12.739 14.16-1.691-12.33M939.988 5766.71l-15.859.59 2.297 12.34 16.113-.58-2.551-12.35M942.574 5779.46l11.871-17.54 2.731 12.43-11.344 16.82-3.258-11.71M945.832 5791.57l-15.801 4.22 3.309 11.76 16.211-4.44-3.719-11.54M949.715 5803.7l10.34-20.24 3.613 11.84-9.84 18.83-4.113-10.43M954.016 5814.73l-15.45 7.63 4.34 10.66 16.02-7.85-4.91-10.44M959.023 5825.29l8.497-21.59 4.742 10.67-8.047 20.65-5.192-9.73M964.273 5835.43l-14.687 10.92 5.523 9.42 14.981-11.11-5.817-9.23M970.293 5844.93l6.437-23.38 5.821 9.4-6.133 22.03-6.125-8.05M976.582 5853.38l-13.762 13.92 2.11 2.93c8.605-6.04 15.261-12.6 15.261-12.6l-3.609-4.25M984.828 5852.88l2.914-15.77 5.528 6.57z" style="fill:#1a5dad;fill-opacity:1;fill-rule:evenodd;stroke:none"/></g><path d="M77.776 575.695c-.364 0-.435.217-.42.46h.3c0-.134.003-.248.166-.248.1 0 .147.064.147.159 0 .256-.593.271-.593.69 0 .224.106.4.467.4.287 0 .429-.13.408-.427h-.288c0 .107-.015.216-.138.216-.091 0-.15-.052-.15-.15 0-.27.595-.246.595-.688 0-.369-.27-.412-.494-.412M79.021 576.859h-.005l-.133-.608h.283zm-.57-1.141.394 1.416h.387l.385-1.416h-.312l-.078.314h-.4l-.085-.314h-.29M79.827 575.718v1.416h.476l.221-.964h.007l.232.964h.46v-1.416h-.286v1.091h-.005l-.27-1.091h-.284l-.256 1.091h-.005v-1.091h-.29M81.927 575.695c-.368 0-.436.217-.418.46h.295c0-.134.006-.248.168-.248.101 0 .145.064.145.159 0 .256-.59.271-.59.69 0 .224.104.4.461.4.29 0 .432-.13.415-.427h-.289c0 .107-.018.216-.137.216-.095 0-.152-.052-.152-.15 0-.27.593-.246.593-.688 0-.369-.266-.412-.491-.412M83.665 577.134v-1.006c0-.209-.122-.433-.482-.433-.322 0-.48.167-.48.433v1.006h.296v-.982c0-.176.073-.245.182-.245.131 0 .187.086.187.245v.982h.297M83.986 575.718v1.416h.398l.378-.979h.004v.979h.275v-1.416h-.393l-.384 1.034h-.002v-1.034h-.276M86.012 576.698c.003.129-.018.247-.176.247-.184 0-.184-.251-.184-.522 0-.442.045-.521.212-.521l.147.028v.313h-.16v.215h.458v-.715a2.867 2.867 0 0 0-.401-.048c-.496 0-.556.207-.556.744 0 .356.019.717.502.717.29 0 .469-.163.455-.458h-.297" style="fill:#1a5dad;fill-opacity:1;fill-rule:nonzero;stroke:none;stroke-width:.1" transform="matrix(3.55925 0 0 -3.55925 0 2109.55)"/><path d="m77.629 572.536-.2-.787.229.064-.413-1.582a1.63 1.63 0 0 1-.047-.378c0-.265.075-.495.222-.659.14-.154.405-.323.895-.255.381.051.73.238 1.048.546l.212.209-.656.392-.127-.121-.027-.026.017.105.679 2.765.1.415-1.932-.688M74.038 566.325l-.104.295.346.158c1.856.791 4.411 1.681 7.015 2.442 2.673.78 5.044 1.316 6.515 1.474l.256.027-.013-.744-.184-.038c-1.263-.243-5.742-1.272-10.204-4.284l-.124-.087-.127.081c-.97.608-2.321.689-3.04.687-.105 0-.336-.011-.336-.011" style="fill:#85868a;fill-opacity:1;fill-rule:nonzero;stroke:none;stroke-width:.1" transform="matrix(3.55925 0 0 -3.55925 0 2109.55)"/><path d="M78.798 574.478c-.47-.086-.862-.477-.886-.898l-.002-.048a.63.63 0 0 1 .207-.477c.172-.152.422-.213.687-.168.47.083.859.477.885.897a.642.642 0 0 1-.207.526c-.169.153-.42.211-.684.168M74.262 573.285l-.21-.808.272.073c-.135-.618-.849-3.799-.855-3.824-.036-.118-.197-.207-.333-.249l-.114-.037-.366-1.209.45.186c1.476.611 3.68 1.205 3.701 1.21l.12.03.508 1.413-.55-.131-.151-.084c-.07-.084-.29-.317-.503-.387l-.97-.266-.005-.003 1.106 4.829-2.1-.743M81.756 573.042l.086.003-.592-2.393c-.02-.09-.157-.165-.311-.175l-.021.001c.03.126.614 2.449.614 2.459zm.145.899c-1.115-.135-1.956-.803-2.195-1.738l-.332-1.345v.006c-.117-.43-.07-.769.138-1.008.241-.277.658-.378 1.249-.302 1.12.151 1.951.759 2.168 1.596l.377 1.489c.101.432.051.77-.161 1.004-.238.269-.657.37-1.244.298M86.5 574.898a2.645 2.645 0 0 1-.741-.252l.043.173-1.954-.728-.185-.779.23.074c-.145-.607-.776-3.192-.776-3.192l1.646.402.665 2.762c.042.16.12.263.26.324-.053-.229-.393-1.663-.393-1.663l-.024-.083c-.085-.34-.207-.8.047-1.086.139-.156.356-.214.643-.176.51.071.957.335 1.336.789l.165.203-.615.389.433 1.805c.033.13.046.246.046.353 0 .208-.057.37-.172.497-.148.161-.39.231-.654.188" style="fill:#85868a;fill-opacity:1;fill-rule:nonzero;stroke:none;stroke-width:.1" transform="matrix(3.55925 0 0 -3.55925 0 2109.55)"/><path d="M89.058 575.304c-.947-.201-1.473-.876-1.455-1.86.014-.585.378-1.072.734-1.539.3-.404.587-.783.596-1.166.019-.71-.296-.81-.399-.832a.372.372 0 0 0-.355.115c.317.148.634.431.634.836l-.002.081a.639.639 0 0 1-.255.476.75.75 0 0 1-.568.112c-.555-.117-.908-.665-.805-1.25.17-.947 1.055-1.239 1.805-1.111.545.093 1 .369 1.282.773.28.395.37.895.269 1.441-.103.565-.405 1.008-.696 1.438-.3.447-.588.869-.611 1.376-.008.16.04.282.09.327l.045.02.1-.07c.099-.15.115-.458.03-.689l-.026-.078.14-.395 1.33.62-.018.167a1.36 1.36 0 0 1-.554.968c-.356.256-.822.341-1.31.24" style="fill:#85868a;fill-opacity:1;fill-rule:nonzero;stroke:none;stroke-width:.1" transform="matrix(3.55925 0 0 -3.55925 0 2109.55)"/><path d="M78.826 574.313c-.391-.068-.728-.401-.751-.743v-.038c0-.139.055-.264.153-.354.135-.117.333-.162.545-.128.393.071.728.404.75.744a.469.469 0 0 1-.153.392c-.13.118-.33.164-.544.127M74.4 573.159l-.114-.446.262.071c-.047-.201-.917-4.095-.92-4.1-.064-.225-.33-.329-.442-.365l-.032-.012-.239-.79.13.053c1.481.617 3.698 1.21 3.72 1.216l.034.01.38 1.042-.202-.048-.124-.052c-.053-.06-.303-.341-.572-.427l-.982-.271c-.1-.022-.169-.022-.201.012l-.005.173 1.04 4.544-1.734-.61M77.767 572.41l-.11-.427.235.062-.484-1.851a1.365 1.365 0 0 1-.044-.343c0-.225.061-.412.18-.547.113-.121.332-.259.749-.202.342.048.661.216.953.501l.059.058-.362.218-.036-.033-.23-.126-.05.011c-.032.034-.055.147-.006.348l.706 2.887-1.56-.556M81.375 572.986c.027.112.234.208.361.22.112.015.264-.003.298-.045l.003-.016-.624-2.533c-.043-.16-.234-.284-.465-.299l-.183.068-.025.058.002.017zm.544.791c-1.044-.128-1.828-.747-2.054-1.616l-.327-1.342c-.104-.371-.071-.656.099-.854.198-.229.58-.313 1.102-.244 1.054.135 1.83.699 2.029 1.467l.376 1.491c.09.375.05.662-.12.853-.203.225-.575.309-1.105.245M86.525 574.733a2.75 2.75 0 0 1-1.029-.432l.063.254-1.569-.585-.1-.415.234.07c-.048-.205-.783-3.205-.783-3.205l1.286.312.641 2.661c.053.238.19.389.417.465l.183-.008.014-.071-.427-1.796-.024-.091c-.076-.301-.184-.711.01-.93.1-.115.27-.155.498-.122.469.063.88.308 1.227.729l.047.056-.37.236-.038-.05c-.082-.117-.177-.172-.215-.163l-.005.018.01.04v.001l.525 2.194c.026.114.04.221.04.312a.538.538 0 0 1-.128.384c-.113.122-.296.172-.507.136M87.825 570.528c-1.457-.154-3.822-.69-6.483-1.468-2.6-.758-5.147-1.646-6.998-2.435l-.069-.031.027-.092.071-.003c.738.006 2.125-.081 3.129-.706l.036-.026.034.026c4.49 3.029 8.995 4.063 10.267 4.31l.05.01.009.423-.073-.008" style="fill:#fff;fill-opacity:1;fill-rule:nonzero;stroke:none;stroke-width:.1" transform="matrix(3.55925 0 0 -3.55925 0 2109.55)"/><path d="M89.093 575.14c-.873-.182-1.341-.781-1.32-1.691.008-.533.359-.998.692-1.445.32-.425.626-.825.633-1.259.016-.561-.163-.89-.523-.982a.59.59 0 0 0-.449.088.479.479 0 0 0-.19.254c.306.094.712.359.712.757v.059c-.017.163-.08.283-.189.36a.563.563 0 0 1-.436.083c-.475-.099-.764-.557-.678-1.058.151-.836.943-1.092 1.615-.976.502.086.916.336 1.17.701.256.361.339.816.247 1.317-.098.532-.39.962-.675 1.377-.316.464-.611.907-.636 1.461-.006.19.048.366.139.454l.17.07a.314.314 0 0 0 .234-.146c.125-.195.144-.553.043-.838l-.004-.021.056-.167 1.058.492-.002.045a1.197 1.197 0 0 1-.49.854c-.317.23-.734.305-1.177.211" style="fill:#fff;fill-opacity:1;fill-rule:nonzero;stroke:none;stroke-width:.1" transform="matrix(3.55925 0 0 -3.55925 0 2109.55)"/><path d="m76.915 569.709.16.038-.326-.899s-2.223-.593-3.732-1.216l.189.623c.207.066.422.2.487.412l.941 4.206-.258-.069.079.305 1.588.562-1.012-4.43c-.062-.233.04-.321.285-.264l.985.274c.325.103.614.458.614.458M79.457 573.8c-.02-.313-.333-.62-.696-.684-.365-.066-.641.136-.62.45.019.312.332.617.697.681.362.066.64-.135.619-.447M78.952 569.798a.508.508 0 0 0-.267-.145c-.164-.023-.186.188-.126.438l.675 2.773-1.412-.503-.072-.288.231.063-.51-1.958c-.14-.566.046-1.114.814-1.01.35.047.655.224.915.482l-.248.148M83.08 572.694c.206.849-.304 1.121-1.15 1.018-.977-.121-1.775-.688-2.002-1.567l-.329-1.343c-.232-.841.284-1.131 1.133-1.017.968.128 1.77.635 1.972 1.42zm-2.124-2.448c-.143-.011-.305.088-.279.224l.635 2.529c.037.151.274.258.42.273.125.013.402-.004.37-.142l-.628-2.534c-.054-.206-.28-.332-.518-.35M84.044 573.92l-.062-.27.232.07-.784-3.212 1.14.28.635 2.623c.065.283.24.432.46.509.17.059.317-.008.28-.155l-.425-1.799c-.099-.391-.36-1.169.412-1.063.576.076.955.429 1.186.708l-.257.162c-.096-.134-.216-.212-.294-.188l-.035.139.524 2.193c.164.664-.202.802-.518.751-.393-.06-.907-.309-1.148-.536l.08.315-1.426-.527" style="fill:#1a5dad;fill-opacity:1;fill-rule:nonzero;stroke:none;stroke-width:.1" transform="matrix(3.55925 0 0 -3.55925 0 2109.55)"/><path d="M89.002 574.183c-.015.319.134.605.379.588.389-.026.481-.646.337-1.066l.026-.081.953.446c-.081.718-.752 1.182-1.592 1.007-.904-.189-1.287-.83-1.27-1.627.02-1.005 1.308-1.773 1.33-2.705.017-.695-.263-.966-.574-1.049-.28-.07-.689.111-.732.457.324.078.764.353.723.76-.043.405-.39.419-.546.386-.39-.081-.672-.445-.638-.889-3.249-.45-9.397-2.294-13.026-3.844 1.019.005 2.264-.158 3.163-.721 3.607 2.433 7.452 3.724 9.935 4.25.227-.598.867-.807 1.48-.7.921.159 1.557.885 1.363 1.942-.204 1.098-1.268 1.765-1.311 2.846" style="fill:#1a5dad;fill-opacity:1;fill-rule:nonzero;stroke:none;stroke-width:.1" transform="matrix(3.55925 0 0 -3.55925 0 2109.55)"/><path d="M69.465 534.506h-7.77v1.865l3.543 4.039c.592.684 1.01 1.277 1.249 1.779.24.502.36 1.01.36 1.524 0 .479-.152.849-.454 1.112a1.535 1.535 0 0 1-1.035.393c-.376 0-.794-.102-1.249-.307a16.41 16.41 0 0 1-1.61-.857l-.665 2.191a11.67 11.67 0 0 0 1.821.873c.587.216 1.127.325 1.617.325.558 0 1.081-.077 1.565-.231a3.51 3.51 0 0 0 1.26-.693c.352-.308.629-.696.83-1.164.198-.468.298-1.016.298-1.642 0-.343-.033-.694-.103-1.053a5.28 5.28 0 0 0-.35-1.112 8.234 8.234 0 0 0-.65-1.198 10.293 10.293 0 0 0-1.019-1.309l-2.07-2.327h4.432v-2.208M76.687 545.15c-.4 0-.722-.143-.968-.428a2.833 2.833 0 0 1-.556-1.062 6.66 6.66 0 0 1-.248-1.385c-.04-.502-.06-.964-.06-1.386 0-.434.02-.899.06-1.395a6.83 6.83 0 0 1 .248-1.386 2.82 2.82 0 0 1 .556-1.069c.246-.286.568-.428.968-.428.41 0 .735.142.975.428.238.284.425.641.555 1.069a6.4 6.4 0 0 1 .257 1.394c.04.503.06.964.06 1.387 0 .422-.02.881-.06 1.377a6.403 6.403 0 0 1-.257 1.387c-.13.427-.317.784-.555 1.069-.24.285-.565.428-.975.428zm0 2.293c1.367 0 2.411-.562 3.13-1.686.72-1.123 1.079-2.746 1.079-4.868 0-2.122-.36-3.745-1.078-4.869-.72-1.123-1.764-1.685-3.131-1.685-1.37 0-2.414.562-3.132 1.685-.72 1.124-1.08 2.747-1.08 4.869s.359 3.745 1.071 4.868c.713 1.124 1.76 1.686 3.14 1.686M88.63 534.506h-2.412v9.532l-1.096-1.01-1.453 1.557 3.08 2.686h1.882v-12.765M97.29 539.417v4.039l-2.413-4.039zm3.969-2.224H99.65v-2.687h-2.378v2.687H92.07v1.916l5.185 8.162h2.395v-7.837h1.609v-2.241M56.045 556.619l1.619-1.417 1.848 1.1-.848-1.976 1.617-1.417-2.141.195-.848-1.975-.476 2.095-2.14.196 1.845 1.101-.476 2.098" style="fill:#fff200;fill-opacity:1;fill-rule:nonzero;stroke:none;stroke-width:.1" transform="matrix(3.55925 0 0 -3.55925 0 2109.55)"/><path d="m55.627 553.636 1.216-.111a.301.301 0 0 0 .267-.234l.27-1.191.483 1.123c.051.12.175.193.306.182l1.215-.111-.918.805a.3.3 0 0 0-.08.346l.483 1.122-1.05-.624a.301.301 0 0 0-.353.032l-.92.805.27-1.191a.302.302 0 0 0-.14-.326zm1.665-2.809-.028.001a.3.3 0 0 0-.266.234l-.428 1.882-1.922.176a.302.302 0 0 0-.128.559l1.66.99-.428 1.883a.303.303 0 0 0 .14.326.299.299 0 0 0 .352-.032l1.454-1.273 1.66.987a.3.3 0 0 0 .431-.377l-.76-1.775 1.451-1.272c.1-.086.13-.226.08-.345a.311.311 0 0 0-.307-.183l-1.922.176-.762-1.775a.303.303 0 0 0-.277-.182M46.2 550.75l1.616-1.414 1.847 1.099-.847-1.976 1.618-1.417-2.143.195-.846-1.976-.476 2.097-2.141.196 1.847 1.101-.476 2.095" style="fill:#fff200;fill-opacity:1;fill-rule:nonzero;stroke:none;stroke-width:.1" transform="matrix(3.55925 0 0 -3.55925 0 2109.55)"/><path d="m45.78 547.771 1.217-.112a.3.3 0 0 0 .266-.234l.271-1.191.48 1.122c.052.12.175.194.305.182l1.219-.112-.92.806a.303.303 0 0 0-.08.345l.482 1.124-1.048-.624a.3.3 0 0 0-.353.032l-.92.804.27-1.192a.3.3 0 0 0-.139-.326zm1.665-2.812-.027.002a.303.303 0 0 0-.268.233l-.426 1.884-1.924.177a.301.301 0 0 0-.127.559l1.66.988-.427 1.881a.301.301 0 0 0 .492.295l1.453-1.271 1.658.988a.304.304 0 0 0 .354-.032.303.303 0 0 0 .078-.346l-.761-1.775 1.453-1.273a.301.301 0 0 0 .079-.346.308.308 0 0 0-.305-.181l-1.924.174-.76-1.774a.304.304 0 0 0-.278-.183M36.353 544.884l1.616-1.416 1.849 1.101-.848-1.977 1.617-1.417-2.14.197-.849-1.976-.475 2.097-2.143.196 1.847 1.099-.474 2.096" style="fill:#fff200;fill-opacity:1;fill-rule:nonzero;stroke:none;stroke-width:.1" transform="matrix(3.55925 0 0 -3.55925 0 2109.55)"/><path d="m35.934 541.904 1.216-.111a.3.3 0 0 0 .266-.234l.271-1.191.481 1.123c.052.12.176.195.306.181l1.215-.111-.918.805a.3.3 0 0 0-.079.345l.482 1.124-1.049-.625a.302.302 0 0 0-.354.032l-.919.805.27-1.192a.301.301 0 0 0-.14-.327zm1.664-2.81-.028.001a.306.306 0 0 0-.267.234l-.427 1.883-1.923.176a.3.3 0 0 0-.126.559l1.657.988-.425 1.883a.301.301 0 0 0 .491.294l1.455-1.271 1.658.988a.305.305 0 0 0 .353-.033.3.3 0 0 0 .079-.346l-.761-1.775 1.451-1.272a.304.304 0 0 0 .08-.347.305.305 0 0 0-.306-.181l-1.921.177-.762-1.775a.303.303 0 0 0-.278-.183M26.505 539.018l1.618-1.416 1.846 1.102-.848-1.978 1.618-1.415-2.142.194-.846-1.975-.476 2.098-2.14.194 1.845 1.1-.475 2.096" style="fill:#fff200;fill-opacity:1;fill-rule:nonzero;stroke:none;stroke-width:.1" transform="matrix(3.55925 0 0 -3.55925 0 2109.55)"/><path d="m26.087 536.038 1.215-.11a.302.302 0 0 0 .266-.234l.271-1.191.48 1.121a.3.3 0 0 0 .306.181l1.218-.109-.92.804a.3.3 0 0 0-.078.345l.48 1.123-1.048-.625a.301.301 0 0 0-.353.032l-.918.805.269-1.191a.301.301 0 0 0-.14-.326zm1.664-2.81-.028.001a.302.302 0 0 0-.266.234l-.427 1.883-1.923.176a.3.3 0 0 0-.266.234.297.297 0 0 0 .14.325l1.658.988-.427 1.883a.301.301 0 0 0 .492.293l1.452-1.272 1.659.99a.3.3 0 0 0 .352-.032.3.3 0 0 0 .079-.346l-.76-1.776 1.452-1.271a.3.3 0 0 0 .079-.346.307.307 0 0 0-.305-.182l-1.923.175-.76-1.774a.304.304 0 0 0-.278-.183M107.971 556.619l-1.616-1.417-1.849 1.1.85-1.976-1.619-1.417 2.141.195.85-1.975.474 2.095 2.141.196-1.848 1.101.476 2.098" style="fill:#fff200;fill-opacity:1;fill-rule:nonzero;stroke:none;stroke-width:.1" transform="matrix(3.55925 0 0 -3.55925 0 2109.55)"/><path d="M105.878 553.406c.12 0 .229-.071.278-.183l.483-1.124.27 1.192c.03.128.137.222.266.234l1.216.111-1.051.627a.3.3 0 0 0-.138.326l.269 1.19-.918-.804a.3.3 0 0 0-.352-.032l-1.051.624.483-1.122a.303.303 0 0 0-.078-.346l-.92-.805 1.216.111zm.85-2.579a.302.302 0 0 0-.277.182l-.763 1.775-1.923-.176a.302.302 0 0 0-.227.528l1.454 1.272-.763 1.774a.301.301 0 0 0 .433.378l1.659-.987 1.451 1.272a.301.301 0 0 0 .493-.293l-.427-1.883 1.661-.99a.299.299 0 0 0 .138-.326.297.297 0 0 0-.265-.233l-1.924-.176-.425-1.882a.301.301 0 0 0-.268-.233l-.027-.002M117.821 550.75l-1.62-1.414-1.846 1.099.847-1.976-1.616-1.417 2.139.195.849-1.976.476 2.097 2.141.196-1.848 1.101.478 2.095" style="fill:#fff200;fill-opacity:1;fill-rule:nonzero;stroke:none;stroke-width:.1" transform="matrix(3.55925 0 0 -3.55925 0 2109.55)"/><path d="M115.725 547.538c.121 0 .23-.07.279-.182l.481-1.123.269 1.192c.03.127.137.222.268.234l1.215.112-1.048.624a.301.301 0 0 0-.139.326l.27 1.192-.921-.804a.297.297 0 0 0-.352-.032l-1.049.624.482-1.122a.302.302 0 0 0-.079-.347l-.919-.806 1.216.112zm.849-2.579a.302.302 0 0 0-.278.183l-.761 1.774-1.922-.174a.3.3 0 0 0-.227.527l1.452 1.273-.762 1.774a.306.306 0 0 0 .078.347.305.305 0 0 0 .354.032l1.66-.988 1.454 1.271a.3.3 0 0 0 .353.031.3.3 0 0 0 .139-.326l-.427-1.881 1.658-.988a.303.303 0 0 0 .14-.325.3.3 0 0 0-.267-.234l-1.923-.177-.426-1.883a.304.304 0 0 0-.267-.234l-.028-.002M127.667 544.884l-1.618-1.416-1.846 1.101.847-1.977-1.619-1.417 2.144.197.846-1.976.475 2.097 2.143.196-1.848 1.099.476 2.096" style="fill:#fff200;fill-opacity:1;fill-rule:nonzero;stroke:none;stroke-width:.1" transform="matrix(3.55925 0 0 -3.55925 0 2109.55)"/><path d="M125.575 541.673c.119 0 .229-.07.276-.182l.482-1.123.27 1.191a.3.3 0 0 0 .266.234l1.216.111-1.049.624a.304.304 0 0 0-.141.327l.271 1.191-.918-.804a.3.3 0 0 0-.353-.032l-1.049.624.482-1.123a.298.298 0 0 0-.079-.345l-.918-.805 1.215.111zm.846-2.579a.3.3 0 0 0-.276.183l-.763 1.775-1.923-.177a.303.303 0 0 0-.227.528l1.455 1.272-.762 1.775a.301.301 0 0 0 .432.379l1.659-.988 1.452 1.271a.302.302 0 0 0 .493-.294l-.427-1.883 1.659-.988a.305.305 0 0 0 .141-.326.303.303 0 0 0-.268-.233l-1.923-.176-.427-1.883a.302.302 0 0 0-.266-.234l-.029-.001M137.513 539.018l-1.616-1.416-1.848 1.102.848-1.978-1.617-1.415 2.14.194.847-1.975.476 2.098 2.142.194-1.847 1.1.475 2.096" style="fill:#fff200;fill-opacity:1;fill-rule:nonzero;stroke:none;stroke-width:.1" transform="matrix(3.55925 0 0 -3.55925 0 2109.55)"/><path d="M135.42 535.807c.12 0 .229-.072.277-.183l.482-1.122.271 1.192a.302.302 0 0 0 .266.234l1.216.11-1.049.625a.303.303 0 0 0-.141.326l.271 1.19-.917-.804a.303.303 0 0 0-.354-.032l-1.051.626.483-1.124a.299.299 0 0 0-.079-.345l-.918-.804 1.216.109zm.847-2.579a.301.301 0 0 0-.276.183l-.762 1.774-1.922-.175a.298.298 0 0 0-.304.182c-.052.12-.02.26.078.346l1.452 1.271-.761 1.776a.298.298 0 0 0 .078.345c.099.088.24.1.353.033l1.661-.99 1.451 1.272a.3.3 0 0 0 .492-.293l-.428-1.883 1.661-.987a.303.303 0 0 0 .14-.326.303.303 0 0 0-.267-.234l-1.924-.176-.427-1.883a.303.303 0 0 0-.267-.234l-.028-.001" style="fill:#fff200;fill-opacity:1;fill-rule:nonzero;stroke:none;stroke-width:.1" transform="matrix(3.55925 0 0 -3.55925 0 2109.55)"/><path d="m24.094 547.184-1.733-1.037-3.541 1.373 1.539-2.571-1.37-.818-4.295 7.183 1.367.818 1.387-2.32.434 3.408 1.664.996-.691-5.093 5.239-1.939M24.815 555.747c-.302-.18-.52-.4-.652-.658a1.932 1.932 0 0 1-.216-.841c-.01-.303.037-.617.144-.941.107-.323.254-.643.442-.958.183-.307.396-.588.635-.842.238-.254.494-.452.766-.593.273-.142.557-.216.853-.223.295-.006.594.081.895.261.302.181.52.403.655.666.133.264.204.549.207.857a2.94 2.94 0 0 1-.16.956c-.11.33-.258.649-.443.957-.188.316-.4.596-.635.844a2.815 2.815 0 0 1-.754.574c-.27.135-.55.205-.845.208-.293.002-.59-.087-.892-.267zm-.773 1.291c.501.299 1.003.466 1.505.501.502.034.983-.04 1.44-.223a4.2 4.2 0 0 0 1.283-.821c.397-.365.74-.797 1.028-1.293.302-.519.521-1.042.658-1.569a4.248 4.248 0 0 0 .127-1.525 3.131 3.131 0 0 0-.477-1.365c-.267-.42-.65-.781-1.151-1.08-.5-.299-1-.468-1.498-.504a3.232 3.232 0 0 0-1.437.219 4.095 4.095 0 0 0-1.293.828c-.4.37-.754.812-1.061 1.326-.3.5-.516 1.013-.653 1.539a4.01 4.01 0 0 0-.109 1.516c.062.486.226.941.49 1.365.265.424.648.786 1.148 1.086M32.097 557.802l.269.162c.147.088.282.189.407.302.124.114.22.237.289.369.069.133.106.272.11.419a.827.827 0 0 1-.133.45c-.169.284-.38.423-.633.425-.254.001-.586-.121-.997-.367l-.27-.161zm6.053-2.209-1.483-.887-2.422 1.754c-.248.183-.451.286-.609.309-.158.023-.326-.019-.506-.127l-.25-.149 1.785-2.985-1.348-.806-4.297 7.182 1.888 1.129c.339.204.675.346 1.006.426.332.08.648.093.95.039.304-.054.585-.177.849-.368.262-.192.493-.455.693-.789.228-.378.316-.764.269-1.159-.047-.394-.227-.776-.538-1.145.338.062.662-.019.97-.244l3.043-2.18M43.561 558.83l-3.804-2.276-4.296 7.184 3.707 2.217.784-1.31-2.34-1.399.915-1.531 2.205 1.319.773-1.29-2.206-1.319 1.043-1.743 2.435 1.457.784-1.309M44.974 566.827l.545-2.681 1.559.933zm-.2-7.272-1.533 8.836 1.193.714 7.041-5.541-1.474-.881-1.667 1.369-2.503-1.498.417-2.117-1.475-.882M58.359 567.682l-1.397-.835-5.334 3.149 2.793-4.669-1.357-.812-4.296 7.181 1.337.802 5.447-3.226-2.857 4.774 1.367.819 4.297-7.183M111.17 571.046a4.048 4.048 0 0 1-.486.621 2.812 2.812 0 0 1-.616.489c-.65.386-1.111.347-1.387-.116-.099-.168-.107-.377-.028-.63.083-.251.245-.568.489-.948.181-.281.34-.56.48-.839.14-.278.237-.553.293-.827.056-.271.062-.551.018-.838a2.472 2.472 0 0 0-.336-.884c-.214-.36-.461-.639-.743-.836a2.16 2.16 0 0 0-.9-.374 2.54 2.54 0 0 0-.995.049 3.807 3.807 0 0 0-1.04.435 3.017 3.017 0 0 0-.43.312 4.57 4.57 0 0 0-.415.419 6.502 6.502 0 0 0-.385.482 6.189 6.189 0 0 0-.328.493l1.074 1.151c.171-.328.365-.638.581-.932a2.41 2.41 0 0 1 .693-.659c.354-.21.666-.273.936-.19.271.082.482.249.631.5a.923.923 0 0 1 .069.8c-.098.289-.289.656-.571 1.103a6.939 6.939 0 0 0-.428.775 3.214 3.214 0 0 0-.25.755 2.168 2.168 0 0 0-.017.74c.036.244.126.489.271.733.199.334.436.587.711.758.276.173.567.275.875.31.307.034.626.009.954-.076.327-.086.642-.218.944-.397.347-.207.627-.42.838-.642.212-.222.413-.453.6-.694l-1.102-1.043M115.48 560.806l-3.812 2.262 4.271 7.197 3.715-2.203-.777-1.313-2.346 1.391-.911-1.534 2.209-1.311-.767-1.293-2.209 1.311-1.036-1.747 2.442-1.448-.779-1.312M122.674 562.356l.27-.16a2.46 2.46 0 0 1 .46-.214c.159-.055.313-.081.463-.079a.943.943 0 0 1 .419.103.826.826 0 0 1 .333.331c.168.283.193.536.073.759-.12.223-.386.457-.797.702l-.27.16zm.94-6.376-1.486.882.389 2.965c.042.305.036.533-.018.682-.055.151-.171.279-.352.386l-.252.149-1.773-2.992-1.352.802 4.271 7.198 1.891-1.123c.341-.201.626-.429.853-.682a2.28 2.28 0 0 0 .488-.817 2.06 2.06 0 0 0 .08-.921 2.638 2.638 0 0 0-.363-.985c-.225-.379-.522-.642-.892-.788-.368-.147-.791-.172-1.263-.073.215-.267.298-.59.247-.969l-.468-3.714M128.033 553.359l-1.38.818 4.27 7.199 1.379-.819-4.269-7.198M135.502 548.928l-3.812 2.261 4.271 7.199 3.714-2.205-.777-1.312-2.346 1.39-.91-1.533 2.21-1.311-.768-1.293-2.208 1.311-1.038-1.746 2.441-1.449-.777-1.312M145.414 550.73a4.075 4.075 0 0 1-.486.621 2.822 2.822 0 0 1-.616.49c-.649.385-1.112.346-1.388-.117-.098-.167-.107-.377-.026-.629s.244-.569.487-.948c.181-.281.341-.561.482-.84.138-.278.236-.553.292-.825a2.337 2.337 0 0 0-.318-1.723 2.653 2.653 0 0 0-.744-.838 2.144 2.144 0 0 0-.9-.371 2.478 2.478 0 0 0-.994.048 3.777 3.777 0 0 0-1.04.434 2.892 2.892 0 0 0-.429.313 4.22 4.22 0 0 0-.417.418 6.502 6.502 0 0 0-.711.976l1.073 1.15c.17-.328.364-.638.581-.932.217-.294.448-.513.693-.659.354-.209.666-.273.937-.19.27.083.481.25.63.5a.92.92 0 0 1 .069.8c-.098.289-.289.656-.571 1.103a6.93 6.93 0 0 0-.427.774c-.12.255-.203.507-.251.756-.048.25-.053.497-.019.741.037.243.128.488.273.732.199.334.436.587.712.759.275.171.566.274.874.309.307.035.625.01.953-.076.328-.086.641-.218.944-.397.348-.206.628-.421.84-.641a9.38 9.38 0 0 0 .599-.695l-1.102-1.043" style="fill:#0f1032;fill-opacity:1;fill-rule:nonzero;stroke:none;stroke-width:.1" transform="matrix(3.55925 0 0 -3.55925 0 2109.55)"/><path d="m162.566 544.682-5.944 5.35a3.105 3.105 0 0 1-4.39-.231 3.109 3.109 0 0 1 .233-4.388l.346-.311-71.012-70.958-71.013 70.958.345.311a3.107 3.107 0 1 1-4.156 4.619l-5.946-5.35a3.106 3.106 0 1 1 4.157-4.618l.348.312 68.741-85.071a9.32 9.32 0 0 1 7.524-3.071 9.308 9.308 0 0 1 7.52 3.071l68.743 85.071.35-.312a3.107 3.107 0 1 1 4.154 4.618" style="fill:#0f1032;fill-opacity:1;fill-rule:nonzero;stroke:none;stroke-width:.1" transform="matrix(3.55925 0 0 -3.55925 0 2109.55)"/><path d="m80.956 470.609 72.312 72.697a.259.259 0 0 0 .37-.361l-70.996-73.983a1.178 1.178 0 1 0-1.7 1.632l.014.015M153.359 547.977a3.467 3.467 0 0 1 .246-.718c.114-.245.254-.483.415-.711a5.498 5.498 0 0 1 1.191-1.203l.001-.002a.323.323 0 0 0-.352-.541 6.223 6.223 0 0 0-1.522 1.185c-.223.24-.428.501-.608.783a4.396 4.396 0 0 0-.462.948l-.006.02a.564.564 0 0 0 1.077.333l.02-.094" style="fill:#fff;fill-opacity:1;fill-rule:nonzero;stroke:none;stroke-width:.1" transform="matrix(3.55925 0 0 -3.55925 0 2109.55)"/><path d="m80.955 468.963-70.838 73.982a.259.259 0 0 0 .371.361l72.155-72.698a1.179 1.179 0 0 0-1.673-1.66l-.015.015M11.486 547.718c-.065-.211-.131-.348-.208-.508-.08-.153-.162-.3-.253-.441a5.582 5.582 0 0 0-.61-.782 6.206 6.206 0 0 0-1.523-1.186.324.324 0 0 0-.352.542l.002.002c.462.344.869.749 1.19 1.203.162.228.303.465.418.711.057.123.109.248.152.373.04.118.082.263.092.345a.565.565 0 1 0 1.12-.146l-.02-.09-.008-.023" style="fill:#fff;fill-opacity:1;fill-rule:nonzero;stroke:none;stroke-width:.1" transform="matrix(3.55925 0 0 -3.55925 0 2109.55)"/><path d="M152.069 519.42a8.029 8.029 0 0 1-1.507 2.418 9.922 9.922 0 0 1-1.284 1.175l.191.076a2.807 2.807 0 0 1 1.567 1.799l.919 3.232a2.803 2.803 0 0 1-1.668 3.377c-.716.282-1.456.531-2.204.739-.91.253-1.917.377-3.077.377-1.037 0-2.055-.142-3.024-.42-1.05-.303-2-.771-2.822-1.394-.113-.085-.215-.183-.323-.274a2.803 2.803 0 0 1-2.631 1.838h-3.53a2.804 2.804 0 0 1-2.805-2.804v-1.275l-1.417 2.612a2.804 2.804 0 0 1-2.465 1.467h-3.457a2.804 2.804 0 0 1-2.805-2.804v-.014a10 10 0 0 1-2.711 2.004c-1.388.706-2.97 1.064-4.701 1.064-1.736 0-3.316-.36-4.698-1.068a10.336 10.336 0 0 1-2.716-2.005v.019a2.803 2.803 0 0 1-2.804 2.804h-3.555a2.805 2.805 0 0 1-2.597-1.746 8.945 8.945 0 0 1-2.31 1.206 9.961 9.961 0 0 1-3.272.54h-4.897a2.789 2.789 0 0 1-1.816-.668c-.489.417-1.12.668-1.813.668h-4.178a2.806 2.806 0 0 1-2.632-1.835l-2.099-5.699-2.11 5.703a2.807 2.807 0 0 1-2.63 1.831H64.01a2.805 2.805 0 0 1-2.806-2.804v-8.552l-3.648 9.553a2.806 2.806 0 0 1-2.62 1.803h-3.084c-1.16 0-2.2-.714-2.617-1.797l-3.577-9.298v8.291a2.804 2.804 0 0 1-2.805 2.804h-3.505a2.804 2.804 0 0 1-2.805-2.804v-4.529h-.606v4.529a2.805 2.805 0 0 1-2.804 2.804h-3.531c-.79 0-1.501-.327-2.011-.852l-.037.019a8.15 8.15 0 0 1-1.539.612c-.499.144-1.062.26-1.675.345a16.15 16.15 0 0 1-2.172.126c-1.726 0-3.316-.315-4.724-.936a10.448 10.448 0 0 1-3.657-2.663c-.981-1.114-1.736-2.44-2.244-3.939-.485-1.436-.73-3.023-.73-4.715 0-1.567.22-3.082.657-4.503.459-1.495 1.16-2.837 2.085-3.989.964-1.204 2.186-2.166 3.632-2.861 1.448-.696 3.123-1.048 4.981-1.048 1.558 0 2.869.194 4.01.593.5.174.955.357 1.377.547a2.797 2.797 0 0 1 2.047-.891h3.53a2.805 2.805 0 0 1 2.805 2.804v2.724c.226-.165.438-.317.606-.43v-2.294a2.804 2.804 0 0 1 2.805-2.804h3.505c.328 0 .642.059.934.162.294-.104.608-.162.93-.162h3.805c1.183 0 2.238.742 2.64 1.856l.948 2.643h2.519l.949-2.643a2.804 2.804 0 0 1 2.64-1.856h3.803c.345 0 .683.064.999.183.307-.117.64-.183.99-.183h3.455c.99 0 1.858.512 2.358 1.285a2.807 2.807 0 0 1 1.72-.589h2.758c.639 0 1.24.216 1.72.589a2.803 2.803 0 0 1 2.358-1.285h3.457c.693 0 1.324.251 1.813.668a2.789 2.789 0 0 1 1.816-.668h3.53a2.804 2.804 0 0 1 2.805 2.804v4.527a9.774 9.774 0 0 1 1.808.424c.77.259 1.48.618 2.129 1.061v-6.012a2.804 2.804 0 0 1 2.804-2.804h3.555a2.803 2.803 0 0 1 2.804 2.804v.009a10.051 10.051 0 0 1 2.732-2.016c1.376-.694 2.952-1.046 4.682-1.046 1.729 0 3.304.352 4.681 1.046a9.762 9.762 0 0 1 2.731 2.032v-.025a2.804 2.804 0 0 1 2.805-2.804h3.505a2.804 2.804 0 0 1 2.805 2.804v1.038l1.296-2.379a2.804 2.804 0 0 1 2.463-1.463h3.605a2.8 2.8 0 0 1 2.211 1.081c.13-.06.258-.122.395-.181a18.1 18.1 0 0 1 1.52-.576c.552-.179 1.103-.32 1.641-.416a9.318 9.318 0 0 1 1.666-.157c1.17 0 2.278.159 3.3.472a8.377 8.377 0 0 1 2.919 1.557 7.535 7.535 0 0 1 2.054 2.727c.48 1.06.722 2.269.722 3.593 0 1.135-.19 2.181-.565 3.112" style="fill:#0f1032;fill-opacity:1;fill-rule:nonzero;stroke:none;stroke-width:.1" transform="matrix(3.55925 0 0 -3.55925 0 2109.55)"/><path d="M27.316 512.132c-.547-.332-1.235-.643-2.063-.933-.83-.29-1.857-.435-3.084-.435-1.441 0-2.696.257-3.765.77-1.07.515-1.958 1.211-2.66 2.089-.706.879-1.236 1.898-1.592 3.057a12.45 12.45 0 0 0-.534 3.68c0 1.393.194 2.665.583 3.817.39 1.151.954 2.146 1.692 2.982a7.61 7.61 0 0 0 2.684 1.952c1.052.464 2.25.697 3.592.697.713 0 1.309-.033 1.79-.1.481-.067.908-.154 1.28-.261a5.332 5.332 0 0 0 1.007-.398l.97-.51-.92-3.281c-.68.381-1.318.679-1.914.895-.597.215-1.334.323-2.213.323-.828 0-1.553-.165-2.175-.497a4.77 4.77 0 0 1-1.566-1.33 5.87 5.87 0 0 1-.957-1.952 8.37 8.37 0 0 1-.323-2.337c0-.845.095-1.649.286-2.411.19-.763.493-1.43.907-2.001a4.479 4.479 0 0 1 1.567-1.356c.63-.331 1.383-.497 2.261-.497.78 0 1.525.15 2.238.447a10.56 10.56 0 0 1 1.989 1.094l.92-3.504M42.853 511.012H39.35v7.832h-6.215v-7.832h-3.531v18.547h3.53v-7.334h6.216v7.334h3.505v-18.547M53.37 524.612l-2.014-5.719h4.028zm-8.651-13.6 7.134 18.547h3.084l7.085-18.547h-3.804l-1.616 4.501H50.14l-1.616-4.501h-3.804M81.837 511.012H78.38v11.784l-4.078-11.087h-2.758l-4.078 11.087v-11.784h-3.455v18.547h4.177l4.747-12.829 4.724 12.829h4.178v-18.547M88.97 521.579h.698c1.026 0 1.834.19 2.423.571.588.381.883.97.883 1.766 0 .778-.295 1.358-.883 1.74-.589.38-1.397.571-2.423.571h-.697zm-3.504 7.98h4.897c.828 0 1.612-.129 2.35-.386a6.053 6.053 0 0 0 1.952-1.106 5.116 5.116 0 0 0 1.329-1.765c.324-.696.486-1.491.486-2.386 0-.896-.162-1.696-.486-2.4a5.21 5.21 0 0 0-1.329-1.79 5.788 5.788 0 0 0-1.951-1.106 7.308 7.308 0 0 0-2.35-.373h-1.368v-7.235h-3.53v18.547M102.097 511.012h-3.555v18.547h3.555v-18.547M112.315 526.476c-.779 0-1.442-.17-1.99-.51a4.368 4.368 0 0 1-1.366-1.354 5.955 5.955 0 0 1-.796-1.952 10.63 10.63 0 0 1-.248-2.325c0-.796.083-1.57.248-2.324a6.463 6.463 0 0 1 .783-2.002 4.226 4.226 0 0 1 1.368-1.392c.554-.348 1.222-.522 2.001-.522.779 0 1.445.174 2.001.522a4.226 4.226 0 0 1 1.368 1.392c.356.58.617 1.247.782 2.002.166.754.249 1.528.249 2.324 0 .812-.083 1.587-.249 2.325a6.139 6.139 0 0 1-.782 1.952 4.184 4.184 0 0 1-1.368 1.354c-.556.34-1.222.51-2.001.51zm0 3.332c1.293 0 2.437-.254 3.43-.759a7.162 7.162 0 0 0 2.487-2.063c.662-.87 1.164-1.877 1.504-3.02.339-1.145.501-2.355.484-3.631-.017-1.326-.194-2.569-.534-3.729-.34-1.16-.836-2.175-1.491-3.045a6.979 6.979 0 0 0-2.461-2.052c-.987-.497-2.126-.745-3.419-.745-1.293 0-2.433.248-3.418.745a7.192 7.192 0 0 0-2.487 2.052c-.671.87-1.178 1.885-1.516 3.045a13.236 13.236 0 0 0-.51 3.729c0 1.293.171 2.515.51 3.667.338 1.152.845 2.155 1.516 3.009a7.429 7.429 0 0 0 2.487 2.038c.985.505 2.125.759 3.418.759M136.206 511.012h-3.605l-6.564 12.058v-12.058h-3.505v18.547h3.457l6.687-12.331v12.331h3.53v-18.547M148.338 525.656a9.453 9.453 0 0 1-1.627.633 6.342 6.342 0 0 1-1.729.237c-1.674 0-2.511-.597-2.511-1.79 0-.432.219-.841.658-1.231.439-.389 1.107-.808 2.001-1.256a19.925 19.925 0 0 0 1.866-1.056 7.407 7.407 0 0 0 1.491-1.243c.414-.455.742-.982.981-1.579.241-.596.361-1.284.361-2.063 0-.929-.157-1.74-.472-2.437a4.737 4.737 0 0 0-1.293-1.727 5.552 5.552 0 0 0-1.951-1.032 8.381 8.381 0 0 0-2.474-.348c-.365 0-.755.037-1.168.112a9.368 9.368 0 0 0-1.268.323c-.431.141-.857.302-1.281.484-.422.184-.816.373-1.18.573l.745 3.405a15.77 15.77 0 0 1 2.163-1.119c.746-.314 1.434-.471 2.063-.471.911 0 1.58.231 2.002.695.423.464.634 1.019.634 1.666 0 .629-.258 1.164-.771 1.604-.514.439-1.292.923-2.337 1.453-.613.315-1.176.647-1.691.996a6.992 6.992 0 0 0-1.33 1.155 4.884 4.884 0 0 0-.869 1.392c-.208.506-.311 1.074-.311 1.704 0 .861.165 1.611.497 2.25a4.621 4.621 0 0 0 1.318 1.578 5.75 5.75 0 0 0 1.901.933 8.119 8.119 0 0 0 2.25.311c.895 0 1.669-.092 2.325-.274a19.694 19.694 0 0 0 1.926-.646l-.919-3.232" style="fill:#fff;fill-opacity:1;fill-rule:nonzero;stroke:none;stroke-width:.1" transform="matrix(3.55925 0 0 -3.55925 0 2109.55)"/><path d="M72.932 481.666c-2.888-2.497-4.884-6.114-4.884-10.137 0-7.536 6.158-13.647 13.752-13.647 7.596 0 13.75 6.111 13.75 13.647 0 4.023-1.997 7.64-4.884 10.137 2.887 2.498 4.884 6.114 4.884 10.136 0 7.537-6.154 13.646-13.75 13.646-7.594 0-13.752-6.109-13.752-13.646 0-4.022 1.996-7.638 4.884-10.136" style="fill:#0f1032;fill-opacity:1;fill-rule:nonzero;stroke:none;stroke-width:.1" transform="matrix(3.55925 0 0 -3.55925 0 2109.55)"/><path d="M87.62 481.274s-5.202-3.801-5.361-3.895c-.12-.073 3.882-2.606 4.275-5.992.128-3.665-2.805-4.759-3.255-4.905-.207-.058-.419-.152-.648-.184a5.073 5.073 0 0 0-.832-.07v-.217h-.001v.217a6.5 6.5 0 0 0-.839.076c-3.495.569-4.18 4.656-3.914 5.7.221.883.485 2.885 4.753 6.004v.709-.709c.284.213.584.365.9.587.334.217.883.574 1.547 1.034l.005.003c2.401 1.658 5.948 4.756 7.15 6.711.668 1.089 1.345 2.271 1.764 3.563l.031.096c1.786 6.505-3.207 10.286-3.207 10.286a11.484 11.484 0 0 1-5.781 2.451l-.015.002c-.83.147-1.634.189-2.393.161v-.003h-.001v.011l-.24-.011h-.009c-3.496-.182-8.659-1.989-10.592-6.731-2.266-5.554.913-10.167 5.02-14.111 0 0 5.237 3.745 5.395 3.84.12.072-3.915 2.662-4.309 6.047-.127 3.665 2.805 4.76 3.255 4.905.208.059.426.15.655.183.263.037.539.078.825.071v.116-.116c.27-.008.546-.028.84-.076 3.496-.568 4.18-4.656 3.915-5.7-.222-.883-.485-2.884-4.754-6.004v-.281h-.001v.281c-.283-.213-.582-.365-.9-.587-.332-.217-.882-.574-1.545-1.034l-.006-.002c-2.4-1.658-5.948-4.757-7.149-6.711-.67-1.089-1.345-2.272-1.764-3.564l-.032-.096c-1.54-6.437 3.208-10.286 3.208-10.286a11.47 11.47 0 0 1 5.78-2.45l.015-.003c.83-.147 1.635-.188 2.393-.161v.205-.212c3.494.106 8.863 1.885 10.843 6.741 2.266 5.553-.914 10.168-5.02 14.111" style="fill:#fff200;fill-opacity:1;fill-rule:nonzero;stroke:none;stroke-width:.1" transform="matrix(3.55925 0 0 -3.55925 0 2109.55)"/><path d="M75.669 470.793c.354 0 .641-.268.641-.599 0-2.542 2.217-4.61 4.943-4.61.354 0 .64-.268.64-.599 0-.33-.286-.598-.64-.598-3.433 0-6.226 2.605-6.226 5.807 0 .331.287.599.642.599M82.027 498.727c3.433 0 6.226-2.605 6.226-5.807 0-.331-.287-.598-.641-.598-.353 0-.64.267-.64.598 0 2.543-2.218 4.61-4.945 4.61-.354 0-.64.268-.64.599 0 .33.286.598.64.598" style="fill:#0f1032;fill-opacity:1;fill-rule:nonzero;stroke:none;stroke-width:.1" transform="matrix(3.55925 0 0 -3.55925 0 2109.55)"/></svg>